<svg width="39" height="113" viewBox="0 0 39 113" fill="none" xmlns="http://www.w3.org/2000/svg">
<rect x="0.705078" width="5.41176" height="5.36301" fill="#29399B" fill-opacity="0.3"/>
<rect x="11.5293" width="5.41176" height="5.36301" fill="#29399B" fill-opacity="0.3"/>
<rect x="22.3535" width="5.41176" height="5.36301" fill="#29399B" fill-opacity="0.3"/>
<rect x="33.1758" width="5.41176" height="5.36301" fill="#29399B" fill-opacity="0.3"/>
<rect x="0.705078" y="10.7259" width="5.41176" height="5.36301" fill="#29399B" fill-opacity="0.3"/>
<rect x="11.5293" y="10.7259" width="5.41176" height="5.36301" fill="#29399B" fill-opacity="0.3"/>
<rect x="22.3535" y="10.7259" width="5.41176" height="5.36301" fill="#F5E200" fill-opacity="0.3"/>
<rect x="33.1758" y="10.7259" width="5.41176" height="5.36301" fill="#29399B" fill-opacity="0.3"/>
<rect x="0.705078" y="21.452" width="5.41176" height="5.36301" fill="#29399B" fill-opacity="0.3"/>
<rect x="11.5293" y="21.452" width="5.41176" height="5.36301" fill="#29399B" fill-opacity="0.3"/>
<rect x="22.3535" y="21.452" width="5.41176" height="5.36301" fill="#29399B" fill-opacity="0.3"/>
<rect x="33.1758" y="21.452" width="5.41176" height="5.36301" fill="#29399B" fill-opacity="0.3"/>
<rect x="0.705078" y="32.1782" width="5.41176" height="5.36301" fill="#29399B" fill-opacity="0.3"/>
<rect x="11.5293" y="32.1782" width="5.41176" height="5.36301" fill="#29399B" fill-opacity="0.3"/>
<rect x="22.3535" y="32.1782" width="5.41176" height="5.36301" fill="#29399B" fill-opacity="0.3"/>
<rect x="33.1758" y="32.1782" width="5.41176" height="5.36301" fill="#29399B" fill-opacity="0.3"/>
<rect x="0.705078" y="42.904" width="5.41176" height="5.36301" fill="#29399B" fill-opacity="0.3"/>
<rect x="11.5293" y="42.904" width="5.41176" height="5.36301" fill="#29399B" fill-opacity="0.3"/>
<rect x="22.3535" y="42.904" width="5.41176" height="5.36301" fill="#29399B" fill-opacity="0.3"/>
<rect x="33.1758" y="42.904" width="5.41176" height="5.36301" fill="#29399B" fill-opacity="0.3"/>
<rect x="0.705078" y="53.6299" width="5.41176" height="5.36301" fill="#29399B" fill-opacity="0.3"/>
<rect x="11.5293" y="53.6299" width="5.41176" height="5.36301" fill="#F5E200" fill-opacity="0.3"/>
<rect x="22.3535" y="53.6299" width="5.41176" height="5.36301" fill="#29399B" fill-opacity="0.3"/>
<rect x="33.1758" y="53.6299" width="5.41176" height="5.36301" fill="#29399B" fill-opacity="0.3"/>
<rect x="0.705078" y="64.356" width="5.41176" height="5.36301" fill="#29399B" fill-opacity="0.3"/>
<rect x="11.5293" y="64.356" width="5.41176" height="5.36301" fill="#29399B" fill-opacity="0.3"/>
<rect x="22.3535" y="64.356" width="5.41176" height="5.36301" fill="#29399B" fill-opacity="0.3"/>
<rect x="33.1758" y="64.356" width="5.41176" height="5.36301" fill="#29399B" fill-opacity="0.3"/>
<rect x="0.705078" y="75.0822" width="5.41176" height="5.36301" fill="#29399B" fill-opacity="0.3"/>
<rect x="11.5293" y="75.0822" width="5.41176" height="5.36301" fill="#29399B" fill-opacity="0.3"/>
<rect x="22.3535" y="75.0822" width="5.41176" height="5.36301" fill="#29399B" fill-opacity="0.3"/>
<rect x="33.1758" y="75.0822" width="5.41176" height="5.36301" fill="#29399B" fill-opacity="0.3"/>
<rect x="0.705078" y="85.808" width="5.41176" height="5.36301" fill="#29399B" fill-opacity="0.3"/>
<rect x="11.5293" y="85.808" width="5.41176" height="5.36301" fill="#29399B" fill-opacity="0.3"/>
<rect x="22.3535" y="85.808" width="5.41176" height="5.36301" fill="#29399B" fill-opacity="0.3"/>
<rect x="33.1758" y="85.808" width="5.41176" height="5.36301" fill="#29399B" fill-opacity="0.3"/>
<rect x="0.705078" y="96.5341" width="5.41176" height="5.36301" fill="#29399B" fill-opacity="0.3"/>
<rect x="11.5293" y="96.5341" width="5.41176" height="5.36301" fill="#29399B" fill-opacity="0.3"/>
<rect x="22.3535" y="96.5341" width="5.41176" height="5.36301" fill="#29399B" fill-opacity="0.3"/>
<rect x="33.1758" y="96.5341" width="5.41176" height="5.36301" fill="#F5E200" fill-opacity="0.3"/>
<rect x="0.705078" y="107.26" width="5.41176" height="5.36301" fill="#F5E200" fill-opacity="0.3"/>
<rect x="11.5293" y="107.26" width="5.41176" height="5.36301" fill="#29399B" fill-opacity="0.3"/>
<rect x="22.3535" y="107.26" width="5.41176" height="5.36301" fill="#29399B" fill-opacity="0.3"/>
<rect x="33.1758" y="107.26" width="5.41176" height="5.36301" fill="#29399B" fill-opacity="0.3"/>
</svg>
