<svg width="61" height="113" viewBox="0 0 61 113" fill="none" xmlns="http://www.w3.org/2000/svg">
<g opacity="0.3">
<rect x="1.05859" width="5.41176" height="5.36301" fill="#29399B"/>
<rect x="11.8809" width="5.41176" height="5.36301" fill="#29399B"/>
<rect x="22.7051" width="5.41176" height="5.36301" fill="#29399B"/>
<rect x="33.5293" width="5.41176" height="5.36301" fill="#29399B"/>
<rect x="44.3535" width="5.41176" height="5.36301" fill="#29399B"/>
<rect x="55.1758" width="5.41176" height="5.36301" fill="#29399B"/>
<rect x="1.05859" y="10.7259" width="5.41176" height="5.36301" fill="#29399B"/>
<rect x="11.8809" y="10.7259" width="5.41176" height="5.36301" fill="#29399B"/>
<rect x="22.7051" y="10.7259" width="5.41176" height="5.36301" fill="#29399B"/>
<rect x="33.5293" y="10.7259" width="5.41176" height="5.36301" fill="#29399B"/>
<rect x="44.3535" y="10.7259" width="5.41176" height="5.36301" fill="#29399B"/>
<rect x="55.1758" y="10.7259" width="5.41176" height="5.36301" fill="#29399B"/>
<rect x="1.05859" y="21.452" width="5.41176" height="5.36301" fill="#29399B"/>
<rect x="11.8809" y="21.452" width="5.41176" height="5.36301" fill="#29399B"/>
<rect x="22.7051" y="21.452" width="5.41176" height="5.36301" fill="#29399B"/>
<rect x="33.5293" y="21.452" width="5.41176" height="5.36301" fill="#29399B"/>
<rect x="44.3535" y="21.452" width="5.41176" height="5.36301" fill="#29399B"/>
<rect x="55.1758" y="21.452" width="5.41176" height="5.36301" fill="#29399B"/>
<rect x="1.05859" y="32.1781" width="5.41176" height="5.36301" fill="#29399B"/>
<rect x="11.8809" y="32.1781" width="5.41176" height="5.36301" fill="#29399B"/>
<rect x="22.7051" y="32.1781" width="5.41176" height="5.36301" fill="#29399B"/>
<rect x="33.5293" y="32.1781" width="5.41176" height="5.36301" fill="#29399B"/>
<rect x="44.3535" y="32.1781" width="5.41176" height="5.36301" fill="#29399B"/>
<rect x="55.1758" y="32.1781" width="5.41176" height="5.36301" fill="#29399B"/>
<rect x="1.05859" y="42.904" width="5.41176" height="5.36301" fill="#29399B"/>
<rect x="11.8809" y="42.904" width="5.41176" height="5.36301" fill="#29399B"/>
<rect x="22.7051" y="42.904" width="5.41176" height="5.36301" fill="#29399B"/>
<rect x="33.5293" y="42.904" width="5.41176" height="5.36301" fill="#29399B"/>
<rect x="44.3535" y="42.904" width="5.41176" height="5.36301" fill="#29399B"/>
<rect x="55.1758" y="42.904" width="5.41176" height="5.36301" fill="#29399B"/>
<rect x="1.05859" y="53.6299" width="5.41176" height="5.36301" fill="#29399B"/>
<rect x="11.8809" y="53.6299" width="5.41176" height="5.36301" fill="#29399B"/>
<rect x="22.7051" y="53.6299" width="5.41176" height="5.36301" fill="#29399B"/>
<rect x="33.5293" y="53.6299" width="5.41176" height="5.36301" fill="#29399B"/>
<rect x="44.3535" y="53.6299" width="5.41176" height="5.36301" fill="#29399B"/>
<rect x="55.1758" y="53.6299" width="5.41176" height="5.36301" fill="#29399B"/>
<rect x="1.05859" y="64.356" width="5.41176" height="5.36301" fill="#29399B"/>
<rect x="11.8809" y="64.356" width="5.41176" height="5.36301" fill="#29399B"/>
<rect x="22.7051" y="64.356" width="5.41176" height="5.36301" fill="#29399B"/>
<rect x="33.5293" y="64.356" width="5.41176" height="5.36301" fill="#29399B"/>
<rect x="44.3535" y="64.356" width="5.41176" height="5.36301" fill="#29399B"/>
<rect x="55.1758" y="64.356" width="5.41176" height="5.36301" fill="#29399B"/>
<rect x="1.05859" y="75.0821" width="5.41176" height="5.36301" fill="#29399B"/>
<rect x="11.8809" y="75.0821" width="5.41176" height="5.36301" fill="#29399B"/>
<rect x="22.7051" y="75.0821" width="5.41176" height="5.36301" fill="#29399B"/>
<rect x="33.5293" y="75.0821" width="5.41176" height="5.36301" fill="#29399B"/>
<rect x="44.3535" y="75.0821" width="5.41176" height="5.36301" fill="#29399B"/>
<rect x="55.1758" y="75.0821" width="5.41176" height="5.36301" fill="#29399B"/>
<rect x="1.05859" y="85.808" width="5.41176" height="5.36301" fill="#29399B"/>
<rect x="11.8809" y="85.808" width="5.41176" height="5.36301" fill="#29399B"/>
<rect x="22.7051" y="85.808" width="5.41176" height="5.36301" fill="#29399B"/>
<rect x="33.5293" y="85.808" width="5.41176" height="5.36301" fill="#29399B"/>
<rect x="44.3535" y="85.808" width="5.41176" height="5.36301" fill="#29399B"/>
<rect x="55.1758" y="85.808" width="5.41176" height="5.36301" fill="#29399B"/>
<rect x="1.05859" y="96.5341" width="5.41176" height="5.36301" fill="#29399B"/>
<rect x="11.8809" y="96.5341" width="5.41176" height="5.36301" fill="#29399B"/>
<rect x="22.7051" y="96.5341" width="5.41176" height="5.36301" fill="#29399B"/>
<rect x="33.5293" y="96.5341" width="5.41176" height="5.36301" fill="#29399B"/>
<rect x="44.3535" y="96.5341" width="5.41176" height="5.36301" fill="#29399B"/>
<rect x="55.1758" y="96.5341" width="5.41176" height="5.36301" fill="#29399B"/>
<rect x="1.05859" y="107.26" width="5.41176" height="5.36301" fill="#29399B"/>
<rect x="11.8809" y="107.26" width="5.41176" height="5.36301" fill="#29399B"/>
<rect x="22.7051" y="107.26" width="5.41176" height="5.36301" fill="#29399B"/>
<rect x="33.5293" y="107.26" width="5.41176" height="5.36301" fill="#29399B"/>
<rect x="44.3535" y="107.26" width="5.41176" height="5.36301" fill="#29399B"/>
<rect x="55.1758" y="107.26" width="5.41176" height="5.36301" fill="#29399B"/>
</g>
</svg>
