<svg width="223" height="17" viewBox="0 0 223 17" fill="none" xmlns="http://www.w3.org/2000/svg">
<rect x="0.292969" width="5.41176" height="5.36301" fill="#29399B" fill-opacity="0.3"/>
<rect x="11.1172" width="5.41176" height="5.36301" fill="#F5E200" fill-opacity="0.3"/>
<rect x="21.9414" width="5.41176" height="5.36301" fill="#29399B" fill-opacity="0.3"/>
<rect x="32.7637" width="5.41176" height="5.36301" fill="#29399B" fill-opacity="0.3"/>
<rect x="43.5879" width="5.41176" height="5.36301" fill="#29399B" fill-opacity="0.3"/>
<rect x="54.4121" width="5.41176" height="5.36301" fill="#29399B" fill-opacity="0.3"/>
<rect x="65.2344" width="5.41176" height="5.36301" fill="#29399B" fill-opacity="0.3"/>
<rect x="76.0586" width="5.41176" height="5.36301" fill="#29399B" fill-opacity="0.3"/>
<rect x="86.8809" width="5.41176" height="5.36301" fill="#29399B" fill-opacity="0.3"/>
<rect x="97.707" width="5.41176" height="5.36301" fill="#29399B" fill-opacity="0.3"/>
<rect x="108.529" width="5.41176" height="5.36301" fill="#29399B" fill-opacity="0.3"/>
<rect x="119.354" width="5.41176" height="5.36301" fill="#F5E200" fill-opacity="0.3"/>
<rect x="130.176" width="5.41176" height="5.36301" fill="#29399B" fill-opacity="0.3"/>
<rect x="141" width="5.41176" height="5.36301" fill="#29399B" fill-opacity="0.3"/>
<rect x="151.824" width="5.41176" height="5.36301" fill="#29399B" fill-opacity="0.3"/>
<rect x="162.648" width="5.41176" height="5.36301" fill="#29399B" fill-opacity="0.3"/>
<rect x="173.473" width="5.41176" height="5.36301" fill="#F5E200" fill-opacity="0.3"/>
<rect x="184.297" width="5.41176" height="5.36301" fill="#29399B" fill-opacity="0.3"/>
<rect x="195.121" width="5.41176" height="5.36301" fill="#29399B" fill-opacity="0.3"/>
<rect x="205.945" width="5.41176" height="5.36301" fill="#29399B" fill-opacity="0.3"/>
<rect x="216.77" width="5.41176" height="5.36301" fill="#29399B" fill-opacity="0.3"/>
<rect x="0.292969" y="10.7261" width="5.41176" height="5.36301" fill="#29399B" fill-opacity="0.3"/>
<rect x="11.1172" y="10.7261" width="5.41176" height="5.36301" fill="#29399B" fill-opacity="0.3"/>
<rect x="21.9414" y="10.7261" width="5.41176" height="5.36301" fill="#29399B" fill-opacity="0.3"/>
<rect x="32.7637" y="10.7261" width="5.41176" height="5.36301" fill="#29399B" fill-opacity="0.3"/>
<rect x="43.5879" y="10.7261" width="5.41176" height="5.36301" fill="#29399B" fill-opacity="0.3"/>
<rect x="54.4121" y="10.7261" width="5.41176" height="5.36301" fill="#29399B" fill-opacity="0.3"/>
<rect x="65.2344" y="10.7261" width="5.41176" height="5.36301" fill="#29399B" fill-opacity="0.3"/>
<rect x="76.0586" y="10.7261" width="5.41176" height="5.36301" fill="#29399B" fill-opacity="0.3"/>
<rect x="86.8809" y="10.7261" width="5.41176" height="5.36301" fill="#29399B" fill-opacity="0.3"/>
<rect x="97.707" y="10.7261" width="5.41176" height="5.36301" fill="#29399B" fill-opacity="0.3"/>
<rect x="108.529" y="10.7261" width="5.41176" height="5.36301" fill="#29399B" fill-opacity="0.3"/>
<rect x="119.354" y="10.7261" width="5.41176" height="5.36301" fill="#29399B" fill-opacity="0.3"/>
<rect x="130.176" y="10.7261" width="5.41176" height="5.36301" fill="#29399B" fill-opacity="0.3"/>
<rect x="141" y="10.7261" width="5.41176" height="5.36301" fill="#29399B" fill-opacity="0.3"/>
<rect x="151.824" y="10.7261" width="5.41176" height="5.36301" fill="#29399B" fill-opacity="0.3"/>
<rect x="162.648" y="10.7261" width="5.41176" height="5.36301" fill="#29399B" fill-opacity="0.3"/>
<rect x="173.473" y="10.7261" width="5.41176" height="5.36301" fill="#29399B" fill-opacity="0.3"/>
<rect x="184.297" y="10.7261" width="5.41176" height="5.36301" fill="#29399B" fill-opacity="0.3"/>
<rect x="195.121" y="10.7261" width="5.41176" height="5.36301" fill="#29399B" fill-opacity="0.3"/>
<rect x="205.945" y="10.7261" width="5.41176" height="5.36301" fill="#29399B" fill-opacity="0.3"/>
<rect x="216.77" y="10.7261" width="5.41176" height="5.36301" fill="#29399B" fill-opacity="0.3"/>
</svg>
