<svg width="436" height="30" viewBox="0 0 436 30" fill="none" xmlns="http://www.w3.org/2000/svg">
<path d="M44.9688 25H33.4961V23.043L39.1797 16.8438C40 15.9297 40.582 15.168 40.9258 14.5586C41.2773 13.9414 41.4531 13.3242 41.4531 12.707C41.4531 11.8945 41.2227 11.2383 40.7617 10.7383C40.3086 10.2383 39.6953 9.98828 38.9219 9.98828C38 9.98828 37.2852 10.2695 36.7773 10.832C36.2695 11.3945 36.0156 12.1641 36.0156 13.1406H33.168C33.168 12.1016 33.4023 11.168 33.8711 10.3398C34.3477 9.50391 35.0234 8.85547 35.8984 8.39453C36.7812 7.93359 37.7969 7.70312 38.9453 7.70312C40.6016 7.70312 41.9062 8.12109 42.8594 8.95703C43.8203 9.78516 44.3008 10.9336 44.3008 12.4023C44.3008 13.2539 44.0586 14.1484 43.5742 15.0859C43.0977 16.0156 42.3125 17.0742 41.2188 18.2617L37.0469 22.7266H44.9688V25ZM58.2578 17.8164C58.2578 20.2695 57.7969 22.1211 56.875 23.3711C55.9609 24.6133 54.5664 25.2344 52.6914 25.2344C50.8477 25.2344 49.457 24.6289 48.5195 23.418C47.5898 22.1992 47.1133 20.3984 47.0898 18.0156V15.0625C47.0898 12.6094 47.5469 10.7695 48.4609 9.54297C49.3828 8.31641 50.7852 7.70312 52.668 7.70312C54.5352 7.70312 55.9258 8.30078 56.8398 9.49609C57.7617 10.6914 58.2344 12.4805 58.2578 14.8633V17.8164ZM55.4102 14.6289C55.4102 13.0273 55.1914 11.8555 54.7539 11.1133C54.3164 10.3633 53.6211 9.98828 52.668 9.98828C51.7383 9.98828 51.0547 10.3438 50.6172 11.0547C50.1797 11.7578 49.9492 12.8594 49.9258 14.3594V18.2266C49.9258 19.8203 50.1484 21.0078 50.5938 21.7891C51.0391 22.5703 51.7383 22.9609 52.6914 22.9609C53.6055 22.9609 54.2812 22.6016 54.7188 21.8828C55.1562 21.1562 55.3867 20.0234 55.4102 18.4844V14.6289ZM68.4883 25H65.6523V11.3008L61.4688 12.7305V10.3281L68.125 7.87891H68.4883V25ZM82.4922 17.8633C81.5391 18.8711 80.4258 19.375 79.1523 19.375C77.6523 19.375 76.457 18.8516 75.5664 17.8047C74.6758 16.75 74.2305 15.3672 74.2305 13.6562C74.2305 12.5312 74.457 11.5117 74.9102 10.5977C75.3633 9.68359 76.0078 8.97266 76.8438 8.46484C77.6797 7.95703 78.6484 7.70312 79.75 7.70312C81.4688 7.70312 82.832 8.34375 83.8398 9.625C84.8477 10.9062 85.3516 12.6211 85.3516 14.7695V15.5664C85.3516 18.6445 84.6562 20.9922 83.2656 22.6094C81.875 24.2266 79.8008 25.0469 77.043 25.0703H76.7031V22.7148H77.1133C78.793 22.6914 80.082 22.2891 80.9805 21.5078C81.8789 20.7188 82.3828 19.5039 82.4922 17.8633ZM79.75 17.1484C80.3203 17.1484 80.8555 16.9844 81.3555 16.6562C81.8555 16.3281 82.2422 15.875 82.5156 15.2969V14.1836C82.5156 12.9258 82.2578 11.9141 81.7422 11.1484C81.2266 10.3828 80.5586 10 79.7383 10C78.918 10 78.2617 10.3398 77.7695 11.0195C77.2852 11.6914 77.043 12.543 77.043 13.5742C77.043 14.6445 77.2891 15.5078 77.7812 16.1641C78.2734 16.8203 78.9297 17.1484 79.75 17.1484ZM97.6211 25H94.668V7.9375H97.6211V25ZM103.633 12.3203L103.715 13.7852C104.652 12.6523 105.883 12.0859 107.406 12.0859C110.047 12.0859 111.391 13.5977 111.438 16.6211V25H108.59V16.7852C108.59 15.9805 108.414 15.3867 108.062 15.0039C107.719 14.6133 107.152 14.418 106.363 14.418C105.215 14.418 104.359 14.9375 103.797 15.9766V25H100.949V12.3203H103.633ZM115.352 25V14.4297H113.418V12.3203H115.352V11.1602C115.352 9.75391 115.742 8.66797 116.523 7.90234C117.305 7.13672 118.398 6.75391 119.805 6.75391C120.305 6.75391 120.836 6.82422 121.398 6.96484L121.328 9.19141C121.016 9.12891 120.652 9.09766 120.238 9.09766C118.879 9.09766 118.199 9.79688 118.199 11.1953V12.3203H120.777V14.4297H118.199V25H115.352ZM122.324 18.543C122.324 17.3008 122.57 16.1836 123.062 15.1914C123.555 14.1914 124.246 13.4258 125.137 12.8945C126.027 12.3555 127.051 12.0859 128.207 12.0859C129.918 12.0859 131.305 12.6367 132.367 13.7383C133.438 14.8398 134.016 16.3008 134.102 18.1211L134.113 18.7891C134.113 20.0391 133.871 21.1562 133.387 22.1406C132.91 23.125 132.223 23.8867 131.324 24.4258C130.434 24.9648 129.402 25.2344 128.23 25.2344C126.441 25.2344 125.008 24.6406 123.93 23.4531C122.859 22.2578 122.324 20.668 122.324 18.6836V18.543ZM125.172 18.7891C125.172 20.0938 125.441 21.1172 125.98 21.8594C126.52 22.5938 127.27 22.9609 128.23 22.9609C129.191 22.9609 129.938 22.5859 130.469 21.8359C131.008 21.0859 131.277 19.9883 131.277 18.543C131.277 17.2617 131 16.2461 130.445 15.4961C129.898 14.7461 129.152 14.3711 128.207 14.3711C127.277 14.3711 126.539 14.7422 125.992 15.4844C125.445 16.2188 125.172 17.3203 125.172 18.7891ZM140.09 9.23828V12.3203H142.328V14.4297H140.09V21.5078C140.09 21.9922 140.184 22.3438 140.371 22.5625C140.566 22.7734 140.91 22.8789 141.402 22.8789C141.73 22.8789 142.062 22.8398 142.398 22.7617V24.9648C141.75 25.1445 141.125 25.2344 140.523 25.2344C138.336 25.2344 137.242 24.0273 137.242 21.6133V14.4297H135.156V12.3203H137.242V9.23828H140.09ZM152.09 25C151.965 24.7578 151.855 24.3633 151.762 23.8164C150.855 24.7617 149.746 25.2344 148.434 25.2344C147.16 25.2344 146.121 24.8711 145.316 24.1445C144.512 23.418 144.109 22.5195 144.109 21.4492C144.109 20.0977 144.609 19.0625 145.609 18.3438C146.617 17.6172 148.055 17.2539 149.922 17.2539H151.668V16.4219C151.668 15.7656 151.484 15.2422 151.117 14.8516C150.75 14.4531 150.191 14.2539 149.441 14.2539C148.793 14.2539 148.262 14.418 147.848 14.7461C147.434 15.0664 147.227 15.4766 147.227 15.9766H144.379C144.379 15.2812 144.609 14.6328 145.07 14.0312C145.531 13.4219 146.156 12.9453 146.945 12.6016C147.742 12.2578 148.629 12.0859 149.605 12.0859C151.09 12.0859 152.273 12.4609 153.156 13.2109C154.039 13.9531 154.492 15 154.516 16.3516V22.0703C154.516 23.2109 154.676 24.1211 154.996 24.8008V25H152.09ZM148.961 22.9492C149.523 22.9492 150.051 22.8125 150.543 22.5391C151.043 22.2656 151.418 21.8984 151.668 21.4375V19.0469H150.133C149.078 19.0469 148.285 19.2305 147.754 19.5977C147.223 19.9648 146.957 20.4844 146.957 21.1562C146.957 21.7031 147.137 22.1406 147.496 22.4688C147.863 22.7891 148.352 22.9492 148.961 22.9492ZM160.141 12.3203L160.223 13.7852C161.16 12.6523 162.391 12.0859 163.914 12.0859C166.555 12.0859 167.898 13.5977 167.945 16.6211V25H165.098V16.7852C165.098 15.9805 164.922 15.3867 164.57 15.0039C164.227 14.6133 163.66 14.418 162.871 14.418C161.723 14.418 160.867 14.9375 160.305 15.9766V25H157.457V12.3203H160.141ZM174.977 19.5625L173.711 20.8633V25H170.863V7H173.711V17.3828L174.602 16.2695L178.105 12.3203H181.527L176.816 17.6055L182.031 25H178.738L174.977 19.5625ZM190.504 21.5547C190.504 21.0469 190.293 20.6602 189.871 20.3945C189.457 20.1289 188.766 19.8945 187.797 19.6914C186.828 19.4883 186.02 19.2305 185.371 18.918C183.949 18.2305 183.238 17.2344 183.238 15.9297C183.238 14.8359 183.699 13.9219 184.621 13.1875C185.543 12.4531 186.715 12.0859 188.137 12.0859C189.652 12.0859 190.875 12.4609 191.805 13.2109C192.742 13.9609 193.211 14.9336 193.211 16.1289H190.363C190.363 15.582 190.16 15.1289 189.754 14.7695C189.348 14.4023 188.809 14.2188 188.137 14.2188C187.512 14.2188 187 14.3633 186.602 14.6523C186.211 14.9414 186.016 15.3281 186.016 15.8125C186.016 16.25 186.199 16.5898 186.566 16.832C186.934 17.0742 187.676 17.3203 188.793 17.5703C189.91 17.8125 190.785 18.1055 191.418 18.4492C192.059 18.7852 192.531 19.1914 192.836 19.668C193.148 20.1445 193.305 20.7227 193.305 21.4023C193.305 22.543 192.832 23.4688 191.887 24.1797C190.941 24.8828 189.703 25.2344 188.172 25.2344C187.133 25.2344 186.207 25.0469 185.395 24.6719C184.582 24.2969 183.949 23.7812 183.496 23.125C183.043 22.4688 182.816 21.7617 182.816 21.0039H185.582C185.621 21.6758 185.875 22.1953 186.344 22.5625C186.812 22.9219 187.434 23.1016 188.207 23.1016C188.957 23.1016 189.527 22.9609 189.918 22.6797C190.309 22.3906 190.504 22.0156 190.504 21.5547ZM196.199 28.8438L194.664 27.9297C195.117 27.2188 195.426 26.5977 195.59 26.0664C195.762 25.543 195.852 25.0078 195.859 24.4609V22.2461H198.426L198.414 24.2969C198.406 25.125 198.195 25.9531 197.781 26.7812C197.375 27.6172 196.848 28.3047 196.199 28.8438ZM210.449 25H207.496V7.9375H210.449V25ZM216.461 12.3203L216.543 13.7852C217.48 12.6523 218.711 12.0859 220.234 12.0859C222.875 12.0859 224.219 13.5977 224.266 16.6211V25H221.418V16.7852C221.418 15.9805 221.242 15.3867 220.891 15.0039C220.547 14.6133 219.98 14.418 219.191 14.418C218.043 14.418 217.188 14.9375 216.625 15.9766V25H213.777V12.3203H216.461ZM232.387 22.9609C233.098 22.9609 233.688 22.7539 234.156 22.3398C234.625 21.9258 234.875 21.4141 234.906 20.8047H237.59C237.559 21.5938 237.312 22.332 236.852 23.0195C236.391 23.6992 235.766 24.2383 234.977 24.6367C234.188 25.0352 233.336 25.2344 232.422 25.2344C230.648 25.2344 229.242 24.6602 228.203 23.5117C227.164 22.3633 226.645 20.7773 226.645 18.7539V18.4609C226.645 16.5312 227.16 14.9883 228.191 13.832C229.223 12.668 230.629 12.0859 232.41 12.0859C233.918 12.0859 235.145 12.5273 236.09 13.4102C237.043 14.2852 237.543 15.4375 237.59 16.8672H234.906C234.875 16.1406 234.625 15.543 234.156 15.0742C233.695 14.6055 233.105 14.3711 232.387 14.3711C231.465 14.3711 230.754 14.707 230.254 15.3789C229.754 16.043 229.5 17.0547 229.492 18.4141V18.8711C229.492 20.2461 229.738 21.2734 230.23 21.9531C230.73 22.625 231.449 22.9609 232.387 22.9609ZM241.516 22C242.047 22 242.457 22.1523 242.746 22.457C243.035 22.7539 243.18 23.1289 243.18 23.582C243.18 24.0273 243.035 24.3984 242.746 24.6953C242.457 24.9844 242.047 25.1289 241.516 25.1289C241.008 25.1289 240.605 24.9844 240.309 24.6953C240.012 24.4062 239.863 24.0352 239.863 23.582C239.863 23.1289 240.008 22.7539 240.297 22.457C240.586 22.1523 240.992 22 241.516 22ZM262.246 21.0273H255.637L254.254 25H251.172L257.617 7.9375H260.277L266.734 25H263.641L262.246 21.0273ZM256.469 18.6367H261.414L258.941 11.5586L256.469 18.6367ZM271.434 25H268.586V7H271.434V25ZM277.574 25H274.727V7H277.574V25ZM293.301 14.9219C292.926 14.8594 292.539 14.8281 292.141 14.8281C290.836 14.8281 289.957 15.3281 289.504 16.3281V25H286.656V12.3203H289.375L289.445 13.7383C290.133 12.6367 291.086 12.0859 292.305 12.0859C292.711 12.0859 293.047 12.1406 293.312 12.25L293.301 14.9219ZM298.129 25H295.281V12.3203H298.129V25ZM295.105 9.02734C295.105 8.58984 295.242 8.22656 295.516 7.9375C295.797 7.64844 296.195 7.50391 296.711 7.50391C297.227 7.50391 297.625 7.64844 297.906 7.9375C298.188 8.22656 298.328 8.58984 298.328 9.02734C298.328 9.45703 298.188 9.81641 297.906 10.1055C297.625 10.3867 297.227 10.5273 296.711 10.5273C296.195 10.5273 295.797 10.3867 295.516 10.1055C295.242 9.81641 295.105 9.45703 295.105 9.02734ZM300.742 18.5664C300.742 16.5977 301.203 15.0273 302.125 13.8555C303.055 12.6758 304.285 12.0859 305.816 12.0859C307.262 12.0859 308.398 12.5898 309.227 13.5977L309.355 12.3203H311.922V24.6133C311.922 26.2773 311.402 27.5898 310.363 28.5508C309.332 29.5117 307.938 29.9922 306.18 29.9922C305.25 29.9922 304.34 29.7969 303.449 29.4062C302.566 29.0234 301.895 28.5195 301.434 27.8945L302.781 26.1836C303.656 27.2227 304.734 27.7422 306.016 27.7422C306.961 27.7422 307.707 27.4844 308.254 26.9688C308.801 26.4609 309.074 25.7109 309.074 24.7188V23.8633C308.254 24.7773 307.16 25.2344 305.793 25.2344C304.309 25.2344 303.094 24.6445 302.148 23.4648C301.211 22.2852 300.742 20.6523 300.742 18.5664ZM303.578 18.8125C303.578 20.0859 303.836 21.0898 304.352 21.8242C304.875 22.5508 305.598 22.9141 306.52 22.9141C307.668 22.9141 308.52 22.4219 309.074 21.4375V15.8594C308.535 14.8984 307.691 14.418 306.543 14.418C305.605 14.418 304.875 14.7891 304.352 15.5312C303.836 16.2734 303.578 17.3672 303.578 18.8125ZM317.664 13.7031C318.594 12.625 319.77 12.0859 321.191 12.0859C323.895 12.0859 325.266 13.6289 325.305 16.7148V25H322.457V16.8203C322.457 15.9453 322.266 15.3281 321.883 14.9688C321.508 14.6016 320.953 14.418 320.219 14.418C319.078 14.418 318.227 14.9258 317.664 15.9414V25H314.816V7H317.664V13.7031ZM331.762 9.23828V12.3203H334V14.4297H331.762V21.5078C331.762 21.9922 331.855 22.3438 332.043 22.5625C332.238 22.7734 332.582 22.8789 333.074 22.8789C333.402 22.8789 333.734 22.8398 334.07 22.7617V24.9648C333.422 25.1445 332.797 25.2344 332.195 25.2344C330.008 25.2344 328.914 24.0273 328.914 21.6133V14.4297H326.828V12.3203H328.914V9.23828H331.762ZM348.801 14.9219C348.426 14.8594 348.039 14.8281 347.641 14.8281C346.336 14.8281 345.457 15.3281 345.004 16.3281V25H342.156V12.3203H344.875L344.945 13.7383C345.633 12.6367 346.586 12.0859 347.805 12.0859C348.211 12.0859 348.547 12.1406 348.812 12.25L348.801 14.9219ZM355.949 25.2344C354.145 25.2344 352.68 24.668 351.555 23.5352C350.438 22.3945 349.879 20.8789 349.879 18.9883V18.6367C349.879 17.3711 350.121 16.2422 350.605 15.25C351.098 14.25 351.785 13.4727 352.668 12.918C353.551 12.3633 354.535 12.0859 355.621 12.0859C357.348 12.0859 358.68 12.6367 359.617 13.7383C360.562 14.8398 361.035 16.3984 361.035 18.4141V19.5625H352.75C352.836 20.6094 353.184 21.4375 353.793 22.0469C354.41 22.6562 355.184 22.9609 356.113 22.9609C357.418 22.9609 358.48 22.4336 359.301 21.3789L360.836 22.8438C360.328 23.6016 359.648 24.1914 358.797 24.6133C357.953 25.0273 357.004 25.2344 355.949 25.2344ZM355.609 14.3711C354.828 14.3711 354.195 14.6445 353.711 15.1914C353.234 15.7383 352.93 16.5 352.797 17.4766H358.223V17.2656C358.16 16.3125 357.906 15.5938 357.461 15.1094C357.016 14.6172 356.398 14.3711 355.609 14.3711ZM370.363 21.5547C370.363 21.0469 370.152 20.6602 369.73 20.3945C369.316 20.1289 368.625 19.8945 367.656 19.6914C366.688 19.4883 365.879 19.2305 365.23 18.918C363.809 18.2305 363.098 17.2344 363.098 15.9297C363.098 14.8359 363.559 13.9219 364.48 13.1875C365.402 12.4531 366.574 12.0859 367.996 12.0859C369.512 12.0859 370.734 12.4609 371.664 13.2109C372.602 13.9609 373.07 14.9336 373.07 16.1289H370.223C370.223 15.582 370.02 15.1289 369.613 14.7695C369.207 14.4023 368.668 14.2188 367.996 14.2188C367.371 14.2188 366.859 14.3633 366.461 14.6523C366.07 14.9414 365.875 15.3281 365.875 15.8125C365.875 16.25 366.059 16.5898 366.426 16.832C366.793 17.0742 367.535 17.3203 368.652 17.5703C369.77 17.8125 370.645 18.1055 371.277 18.4492C371.918 18.7852 372.391 19.1914 372.695 19.668C373.008 20.1445 373.164 20.7227 373.164 21.4023C373.164 22.543 372.691 23.4688 371.746 24.1797C370.801 24.8828 369.562 25.2344 368.031 25.2344C366.992 25.2344 366.066 25.0469 365.254 24.6719C364.441 24.2969 363.809 23.7812 363.355 23.125C362.902 22.4688 362.676 21.7617 362.676 21.0039H365.441C365.48 21.6758 365.734 22.1953 366.203 22.5625C366.672 22.9219 367.293 23.1016 368.066 23.1016C368.816 23.1016 369.387 22.9609 369.777 22.6797C370.168 22.3906 370.363 22.0156 370.363 21.5547ZM381.238 25.2344C379.434 25.2344 377.969 24.668 376.844 23.5352C375.727 22.3945 375.168 20.8789 375.168 18.9883V18.6367C375.168 17.3711 375.41 16.2422 375.895 15.25C376.387 14.25 377.074 13.4727 377.957 12.918C378.84 12.3633 379.824 12.0859 380.91 12.0859C382.637 12.0859 383.969 12.6367 384.906 13.7383C385.852 14.8398 386.324 16.3984 386.324 18.4141V19.5625H378.039C378.125 20.6094 378.473 21.4375 379.082 22.0469C379.699 22.6562 380.473 22.9609 381.402 22.9609C382.707 22.9609 383.77 22.4336 384.59 21.3789L386.125 22.8438C385.617 23.6016 384.938 24.1914 384.086 24.6133C383.242 25.0273 382.293 25.2344 381.238 25.2344ZM380.898 14.3711C380.117 14.3711 379.484 14.6445 379 15.1914C378.523 15.7383 378.219 16.5 378.086 17.4766H383.512V17.2656C383.449 16.3125 383.195 15.5938 382.75 15.1094C382.305 14.6172 381.688 14.3711 380.898 14.3711ZM392.852 21.3906L395.535 12.3203H398.477L394.082 25H391.609L387.18 12.3203H390.133L392.852 21.3906ZM405.684 25.2344C403.879 25.2344 402.414 24.668 401.289 23.5352C400.172 22.3945 399.613 20.8789 399.613 18.9883V18.6367C399.613 17.3711 399.855 16.2422 400.34 15.25C400.832 14.25 401.52 13.4727 402.402 12.918C403.285 12.3633 404.27 12.0859 405.355 12.0859C407.082 12.0859 408.414 12.6367 409.352 13.7383C410.297 14.8398 410.77 16.3984 410.77 18.4141V19.5625H402.484C402.57 20.6094 402.918 21.4375 403.527 22.0469C404.145 22.6562 404.918 22.9609 405.848 22.9609C407.152 22.9609 408.215 22.4336 409.035 21.3789L410.57 22.8438C410.062 23.6016 409.383 24.1914 408.531 24.6133C407.688 25.0273 406.738 25.2344 405.684 25.2344ZM405.344 14.3711C404.562 14.3711 403.93 14.6445 403.445 15.1914C402.969 15.7383 402.664 16.5 402.531 17.4766H407.957V17.2656C407.895 16.3125 407.641 15.5938 407.195 15.1094C406.75 14.6172 406.133 14.3711 405.344 14.3711ZM412.457 18.5664C412.457 16.6133 412.91 15.0469 413.816 13.8672C414.723 12.6797 415.938 12.0859 417.461 12.0859C418.805 12.0859 419.891 12.5547 420.719 13.4922V7H423.566V25H420.988L420.848 23.6875C419.996 24.7188 418.859 25.2344 417.438 25.2344C415.953 25.2344 414.75 24.6367 413.828 23.4414C412.914 22.2461 412.457 20.6211 412.457 18.5664ZM415.305 18.8125C415.305 20.1016 415.551 21.1094 416.043 21.8359C416.543 22.5547 417.25 22.9141 418.164 22.9141C419.328 22.9141 420.18 22.3945 420.719 21.3555V15.9414C420.195 14.9258 419.352 14.418 418.188 14.418C417.266 14.418 416.555 14.7852 416.055 15.5195C415.555 16.2461 415.305 17.3438 415.305 18.8125ZM428.312 22C428.844 22 429.254 22.1523 429.543 22.457C429.832 22.7539 429.977 23.1289 429.977 23.582C429.977 24.0273 429.832 24.3984 429.543 24.6953C429.254 24.9844 428.844 25.1289 428.312 25.1289C427.805 25.1289 427.402 24.9844 427.105 24.6953C426.809 24.4062 426.66 24.0352 426.66 23.582C426.66 23.1289 426.805 22.7539 427.094 22.457C427.383 22.1523 427.789 22 428.312 22Z" fill="#3A3A3A"/>
<path d="M12.8867 19.9609C13.5977 19.9609 14.1875 19.7539 14.6562 19.3398C15.125 18.9258 15.375 18.4141 15.4062 17.8047H18.0898C18.0586 18.5938 17.8125 19.332 17.3516 20.0195C16.8906 20.6992 16.2656 21.2383 15.4766 21.6367C14.6875 22.0352 13.8359 22.2344 12.9219 22.2344C11.1484 22.2344 9.74219 21.6602 8.70312 20.5117C7.66406 19.3633 7.14453 17.7773 7.14453 15.7539V15.4609C7.14453 13.5312 7.66016 11.9883 8.69141 10.832C9.72266 9.66797 11.1289 9.08594 12.9102 9.08594C14.418 9.08594 15.6445 9.52734 16.5898 10.4102C17.543 11.2852 18.043 12.4375 18.0898 13.8672H15.4062C15.375 13.1406 15.125 12.543 14.6562 12.0742C14.1953 11.6055 13.6055 11.3711 12.8867 11.3711C11.9648 11.3711 11.2539 11.707 10.7539 12.3789C10.2539 13.043 10 14.0547 9.99219 15.4141V15.8711C9.99219 17.2461 10.2383 18.2734 10.7305 18.9531C11.2305 19.625 11.9492 19.9609 12.8867 19.9609Z" fill="#3A3A3A"/>
<circle cx="13" cy="16" r="11" stroke="#3A3A3A" stroke-width="2"/>
</svg>
