<svg width="149" height="113" viewBox="0 0 149 113" fill="none" xmlns="http://www.w3.org/2000/svg">
<g opacity="0.3">
<rect width="5.41176" height="5.36301" fill="#29399B"/>
<rect x="10.8242" width="5.41176" height="5.36301" fill="#29399B"/>
<rect x="21.6465" width="5.41176" height="5.36301" fill="#29399B"/>
<rect x="32.4707" width="5.41176" height="5.36301" fill="#29399B"/>
<rect x="43.293" width="5.41176" height="5.36301" fill="#29399B"/>
<rect x="54.1172" width="5.41176" height="5.36301" fill="#29399B"/>
<rect x="64.9414" width="5.41176" height="5.36301" fill="#29399B"/>
<rect x="75.7637" width="5.41176" height="5.36301" fill="#29399B"/>
<rect x="86.5879" width="5.41176" height="5.36301" fill="#29399B"/>
<rect x="97.4121" width="5.41176" height="5.36301" fill="#29399B"/>
<rect x="108.234" width="5.41176" height="5.36301" fill="#29399B"/>
<rect x="119.059" width="5.41176" height="5.36301" fill="#29399B"/>
<rect x="129.881" width="5.41176" height="5.36301" fill="#29399B"/>
<rect x="140.705" width="5.41176" height="5.36301" fill="#29399B"/>
<rect y="10.726" width="5.41176" height="5.36301" fill="#29399B"/>
<rect x="10.8242" y="10.7259" width="5.41176" height="5.36301" fill="#29399B"/>
<rect x="21.6465" y="10.7259" width="5.41176" height="5.36301" fill="#29399B"/>
<rect x="32.4707" y="10.7259" width="5.41176" height="5.36301" fill="#29399B"/>
<rect x="43.293" y="10.7259" width="5.41176" height="5.36301" fill="#29399B"/>
<rect x="54.1172" y="10.7259" width="5.41176" height="5.36301" fill="#29399B"/>
<rect x="64.9414" y="10.7259" width="5.41176" height="5.36301" fill="#29399B"/>
<rect x="75.7637" y="10.7259" width="5.41176" height="5.36301" fill="#29399B"/>
<rect x="86.5879" y="10.7259" width="5.41176" height="5.36301" fill="#29399B"/>
<rect x="97.4121" y="10.7259" width="5.41176" height="5.36301" fill="#29399B"/>
<rect x="108.234" y="10.7259" width="5.41176" height="5.36301" fill="#29399B"/>
<rect x="119.059" y="10.7259" width="5.41176" height="5.36301" fill="#29399B"/>
<rect x="129.881" y="10.7259" width="5.41176" height="5.36301" fill="#29399B"/>
<rect x="140.705" y="10.7259" width="5.41176" height="5.36301" fill="#29399B"/>
<rect y="21.452" width="5.41176" height="5.36301" fill="#29399B"/>
<rect x="10.8242" y="21.452" width="5.41176" height="5.36301" fill="#29399B"/>
<rect x="21.6465" y="21.452" width="5.41176" height="5.36301" fill="#29399B"/>
<rect x="32.4707" y="21.452" width="5.41176" height="5.36301" fill="#29399B"/>
<rect x="43.293" y="21.452" width="5.41176" height="5.36301" fill="#29399B"/>
<rect x="54.1172" y="21.452" width="5.41176" height="5.36301" fill="#29399B"/>
<rect x="64.9414" y="21.452" width="5.41176" height="5.36301" fill="#29399B"/>
<rect x="75.7637" y="21.452" width="5.41176" height="5.36301" fill="#29399B"/>
<rect x="86.5879" y="21.452" width="5.41176" height="5.36301" fill="#29399B"/>
<rect x="97.4121" y="21.452" width="5.41176" height="5.36301" fill="#29399B"/>
<rect x="108.234" y="21.452" width="5.41176" height="5.36301" fill="#F5E200"/>
<rect x="119.059" y="21.452" width="5.41176" height="5.36301" fill="#29399B"/>
<rect x="129.881" y="21.452" width="5.41176" height="5.36301" fill="#29399B"/>
<rect x="140.705" y="21.452" width="5.41176" height="5.36301" fill="#29399B"/>
<rect y="32.178" width="5.41176" height="5.36301" fill="#29399B"/>
<rect x="10.8242" y="32.1782" width="5.41176" height="5.36301" fill="#29399B"/>
<rect x="21.6465" y="32.1782" width="5.41176" height="5.36301" fill="#29399B"/>
<rect x="32.4707" y="32.1782" width="5.41176" height="5.36301" fill="#29399B"/>
<rect x="43.293" y="32.1782" width="5.41176" height="5.36301" fill="#29399B"/>
<rect x="54.1172" y="32.1782" width="5.41176" height="5.36301" fill="#29399B"/>
<rect x="64.9414" y="32.1782" width="5.41176" height="5.36301" fill="#29399B"/>
<rect x="75.7637" y="32.1782" width="5.41176" height="5.36301" fill="#29399B"/>
<rect x="86.5879" y="32.1782" width="5.41176" height="5.36301" fill="#29399B"/>
<rect x="97.4121" y="32.1782" width="5.41176" height="5.36301" fill="#29399B"/>
<rect x="108.234" y="32.1782" width="5.41176" height="5.36301" fill="#29399B"/>
<rect x="119.059" y="32.1782" width="5.41176" height="5.36301" fill="#29399B"/>
<rect x="129.881" y="32.1782" width="5.41176" height="5.36301" fill="#29399B"/>
<rect x="140.705" y="32.1782" width="5.41176" height="5.36301" fill="#29399B"/>
<rect y="42.9039" width="5.41176" height="5.36301" fill="#29399B"/>
<rect x="10.8242" y="42.904" width="5.41176" height="5.36301" fill="#29399B"/>
<rect x="21.6465" y="42.904" width="5.41176" height="5.36301" fill="#29399B"/>
<rect x="32.4707" y="42.904" width="5.41176" height="5.36301" fill="#29399B"/>
<rect x="43.293" y="42.904" width="5.41176" height="5.36301" fill="#F5E200"/>
<rect x="54.1172" y="42.904" width="5.41176" height="5.36301" fill="#29399B"/>
<rect x="64.9414" y="42.904" width="5.41176" height="5.36301" fill="#29399B"/>
<rect x="75.7637" y="42.904" width="5.41176" height="5.36301" fill="#29399B"/>
<rect x="86.5879" y="42.904" width="5.41176" height="5.36301" fill="#29399B"/>
<rect x="97.4121" y="42.904" width="5.41176" height="5.36301" fill="#29399B"/>
<rect x="108.234" y="42.904" width="5.41176" height="5.36301" fill="#29399B"/>
<rect x="119.059" y="42.904" width="5.41176" height="5.36301" fill="#29399B"/>
<rect x="129.881" y="42.904" width="5.41176" height="5.36301" fill="#29399B"/>
<rect x="140.705" y="42.904" width="5.41176" height="5.36301" fill="#29399B"/>
<rect y="53.63" width="5.41176" height="5.36301" fill="#29399B"/>
<rect x="10.8242" y="53.6299" width="5.41176" height="5.36301" fill="#29399B"/>
<rect x="21.6465" y="53.6299" width="5.41176" height="5.36301" fill="#29399B"/>
<rect x="32.4707" y="53.6299" width="5.41176" height="5.36301" fill="#29399B"/>
<rect x="43.293" y="53.6299" width="5.41176" height="5.36301" fill="#29399B"/>
<rect x="54.1172" y="53.6299" width="5.41176" height="5.36301" fill="#29399B"/>
<rect x="64.9414" y="53.6299" width="5.41176" height="5.36301" fill="#29399B"/>
<rect x="75.7637" y="53.6299" width="5.41176" height="5.36301" fill="#29399B"/>
<rect x="86.5879" y="53.6299" width="5.41176" height="5.36301" fill="#29399B"/>
<rect x="97.4121" y="53.6299" width="5.41176" height="5.36301" fill="#29399B"/>
<rect x="108.234" y="53.6299" width="5.41176" height="5.36301" fill="#29399B"/>
<rect x="119.059" y="53.6299" width="5.41176" height="5.36301" fill="#29399B"/>
<rect x="129.881" y="53.6299" width="5.41176" height="5.36301" fill="#29399B"/>
<rect x="140.705" y="53.6299" width="5.41176" height="5.36301" fill="#29399B"/>
<rect y="64.356" width="5.41176" height="5.36301" fill="#29399B"/>
<rect x="10.8242" y="64.356" width="5.41176" height="5.36301" fill="#F5E200"/>
<rect x="21.6465" y="64.356" width="5.41176" height="5.36301" fill="#29399B"/>
<rect x="32.4707" y="64.356" width="5.41176" height="5.36301" fill="#29399B"/>
<rect x="43.293" y="64.356" width="5.41176" height="5.36301" fill="#29399B"/>
<rect x="54.1172" y="64.356" width="5.41176" height="5.36301" fill="#29399B"/>
<rect x="64.9414" y="64.356" width="5.41176" height="5.36301" fill="#29399B"/>
<rect x="75.7637" y="64.356" width="5.41176" height="5.36301" fill="#29399B"/>
<rect x="86.5879" y="64.356" width="5.41176" height="5.36301" fill="#29399B"/>
<rect x="97.4121" y="64.356" width="5.41176" height="5.36301" fill="#29399B"/>
<rect x="108.234" y="64.356" width="5.41176" height="5.36301" fill="#29399B"/>
<rect x="119.059" y="64.356" width="5.41176" height="5.36301" fill="#29399B"/>
<rect x="129.881" y="64.356" width="5.41176" height="5.36301" fill="#29399B"/>
<rect x="140.705" y="64.356" width="5.41176" height="5.36301" fill="#29399B"/>
<rect y="75.082" width="5.41176" height="5.36301" fill="#29399B"/>
<rect x="10.8242" y="75.0822" width="5.41176" height="5.36301" fill="#29399B"/>
<rect x="21.6465" y="75.0822" width="5.41176" height="5.36301" fill="#29399B"/>
<rect x="32.4707" y="75.0822" width="5.41176" height="5.36301" fill="#29399B"/>
<rect x="43.293" y="75.0822" width="5.41176" height="5.36301" fill="#29399B"/>
<rect x="54.1172" y="75.0822" width="5.41176" height="5.36301" fill="#29399B"/>
<rect x="64.9414" y="75.0822" width="5.41176" height="5.36301" fill="#29399B"/>
<rect x="75.7637" y="75.0822" width="5.41176" height="5.36301" fill="#29399B"/>
<rect x="86.5879" y="75.0822" width="5.41176" height="5.36301" fill="#29399B"/>
<rect x="97.4121" y="75.0822" width="5.41176" height="5.36301" fill="#29399B"/>
<rect x="108.234" y="75.0822" width="5.41176" height="5.36301" fill="#29399B"/>
<rect x="119.059" y="75.0822" width="5.41176" height="5.36301" fill="#29399B"/>
<rect x="129.881" y="75.0822" width="5.41176" height="5.36301" fill="#29399B"/>
<rect x="140.705" y="75.0822" width="5.41176" height="5.36301" fill="#29399B"/>
<rect y="85.8081" width="5.41176" height="5.36301" fill="#29399B"/>
<rect x="10.8242" y="85.808" width="5.41176" height="5.36301" fill="#29399B"/>
<rect x="21.6465" y="85.808" width="5.41176" height="5.36301" fill="#29399B"/>
<rect x="32.4707" y="85.808" width="5.41176" height="5.36301" fill="#29399B"/>
<rect x="43.293" y="85.808" width="5.41176" height="5.36301" fill="#29399B"/>
<rect x="54.1172" y="85.808" width="5.41176" height="5.36301" fill="#29399B"/>
<rect x="64.9414" y="85.808" width="5.41176" height="5.36301" fill="#29399B"/>
<rect x="75.7637" y="85.808" width="5.41176" height="5.36301" fill="#29399B"/>
<rect x="86.5879" y="85.808" width="5.41176" height="5.36301" fill="#29399B"/>
<rect x="97.4121" y="85.808" width="5.41176" height="5.36301" fill="#F5E200"/>
<rect x="108.234" y="85.808" width="5.41176" height="5.36301" fill="#29399B"/>
<rect x="119.059" y="85.808" width="5.41176" height="5.36301" fill="#29399B"/>
<rect x="129.881" y="85.808" width="5.41176" height="5.36301" fill="#29399B"/>
<rect x="140.705" y="85.808" width="5.41176" height="5.36301" fill="#29399B"/>
<rect y="96.5341" width="5.41176" height="5.36301" fill="#29399B"/>
<rect x="10.8242" y="96.5341" width="5.41176" height="5.36301" fill="#29399B"/>
<rect x="21.6465" y="96.5341" width="5.41176" height="5.36301" fill="#29399B"/>
<rect x="32.4707" y="96.5341" width="5.41176" height="5.36301" fill="#29399B"/>
<rect x="43.293" y="96.5341" width="5.41176" height="5.36301" fill="#29399B"/>
<rect x="54.1172" y="96.5341" width="5.41176" height="5.36301" fill="#29399B"/>
<rect x="64.9414" y="96.5341" width="5.41176" height="5.36301" fill="#29399B"/>
<rect x="75.7637" y="96.5341" width="5.41176" height="5.36301" fill="#29399B"/>
<rect x="86.5879" y="96.5341" width="5.41176" height="5.36301" fill="#29399B"/>
<rect x="97.4121" y="96.5341" width="5.41176" height="5.36301" fill="#29399B"/>
<rect x="108.234" y="96.5341" width="5.41176" height="5.36301" fill="#29399B"/>
<rect x="119.059" y="96.5341" width="5.41176" height="5.36301" fill="#29399B"/>
<rect x="129.881" y="96.5341" width="5.41176" height="5.36301" fill="#29399B"/>
<rect x="140.705" y="96.5341" width="5.41176" height="5.36301" fill="#29399B"/>
<rect y="107.26" width="5.41176" height="5.36301" fill="#29399B"/>
<rect x="10.8242" y="107.26" width="5.41176" height="5.36301" fill="#29399B"/>
<rect x="21.6465" y="107.26" width="5.41176" height="5.36301" fill="#29399B"/>
<rect x="32.4707" y="107.26" width="5.41176" height="5.36301" fill="#29399B"/>
<rect x="43.293" y="107.26" width="5.41176" height="5.36301" fill="#29399B"/>
<rect x="54.1172" y="107.26" width="5.41176" height="5.36301" fill="#29399B"/>
<rect x="64.9414" y="107.26" width="5.41176" height="5.36301" fill="#29399B"/>
<rect x="75.7637" y="107.26" width="5.41176" height="5.36301" fill="#29399B"/>
<rect x="86.5879" y="107.26" width="5.41176" height="5.36301" fill="#29399B"/>
<rect x="97.4121" y="107.26" width="5.41176" height="5.36301" fill="#29399B"/>
<rect x="108.234" y="107.26" width="5.41176" height="5.36301" fill="#29399B"/>
<rect x="119.059" y="107.26" width="5.41176" height="5.36301" fill="#29399B"/>
<rect x="129.881" y="107.26" width="5.41176" height="5.36301" fill="#29399B"/>
<rect x="140.705" y="107.26" width="5.41176" height="5.36301" fill="#29399B"/>
</g>
</svg>
