<svg width="60" height="59" viewBox="0 0 60 59" fill="none" xmlns="http://www.w3.org/2000/svg">
<rect width="5.41176" height="5.36301" fill="#29399B" fill-opacity="0.3"/>
<rect x="10.8242" y="0.00012207" width="5.41176" height="5.36301" fill="#29399B" fill-opacity="0.3"/>
<rect x="21.6465" y="0.00012207" width="5.41176" height="5.36301" fill="#29399B" fill-opacity="0.3"/>
<rect x="32.4707" y="0.00012207" width="5.41176" height="5.36301" fill="#29399B" fill-opacity="0.3"/>
<rect x="43.293" y="0.00012207" width="5.41176" height="5.36301" fill="#29399B" fill-opacity="0.3"/>
<rect x="54.1172" y="0.00012207" width="5.41176" height="5.36301" fill="#29399B" fill-opacity="0.3"/>
<rect y="10.7258" width="5.41176" height="5.36301" fill="#29399B" fill-opacity="0.3"/>
<rect x="10.8242" y="10.7261" width="5.41176" height="5.36301" fill="#29399B" fill-opacity="0.3"/>
<rect x="21.6465" y="10.7261" width="5.41176" height="5.36301" fill="#29399B" fill-opacity="0.3"/>
<rect x="32.4707" y="10.7261" width="5.41176" height="5.36301" fill="#29399B" fill-opacity="0.3"/>
<rect x="43.293" y="10.7261" width="5.41176" height="5.36301" fill="#F5E200" fill-opacity="0.3"/>
<rect x="54.1172" y="10.7261" width="5.41176" height="5.36301" fill="#29399B" fill-opacity="0.3"/>
<rect y="21.452" width="5.41176" height="5.36301" fill="#29399B" fill-opacity="0.3"/>
<rect x="10.8242" y="21.4519" width="5.41176" height="5.36301" fill="#29399B" fill-opacity="0.3"/>
<rect x="21.6465" y="21.4519" width="5.41176" height="5.36301" fill="#29399B" fill-opacity="0.3"/>
<rect x="32.4707" y="21.4519" width="5.41176" height="5.36301" fill="#29399B" fill-opacity="0.3"/>
<rect x="43.293" y="21.4519" width="5.41176" height="5.36301" fill="#29399B" fill-opacity="0.3"/>
<rect x="54.1172" y="21.4519" width="5.41176" height="5.36301" fill="#29399B" fill-opacity="0.3"/>
<rect y="32.178" width="5.41176" height="5.36301" fill="#29399B" fill-opacity="0.3"/>
<rect x="10.8242" y="32.178" width="5.41176" height="5.36301" fill="#F5E200" fill-opacity="0.3"/>
<rect x="21.6465" y="32.178" width="5.41176" height="5.36301" fill="#29399B" fill-opacity="0.3"/>
<rect x="32.4707" y="32.178" width="5.41176" height="5.36301" fill="#29399B" fill-opacity="0.3"/>
<rect x="43.293" y="32.178" width="5.41176" height="5.36301" fill="#29399B" fill-opacity="0.3"/>
<rect x="54.1172" y="32.178" width="5.41176" height="5.36301" fill="#29399B" fill-opacity="0.3"/>
<rect y="42.9041" width="5.41176" height="5.36301" fill="#29399B" fill-opacity="0.3"/>
<rect x="10.8242" y="42.9042" width="5.41176" height="5.36301" fill="#29399B" fill-opacity="0.3"/>
<rect x="21.6465" y="42.9042" width="5.41176" height="5.36301" fill="#29399B" fill-opacity="0.3"/>
<rect x="32.4707" y="42.9042" width="5.41176" height="5.36301" fill="#29399B" fill-opacity="0.3"/>
<rect x="43.293" y="42.9042" width="5.41176" height="5.36301" fill="#29399B" fill-opacity="0.3"/>
<rect x="54.1172" y="42.9042" width="5.41176" height="5.36301" fill="#29399B" fill-opacity="0.3"/>
<rect y="53.6301" width="5.41176" height="5.36301" fill="#29399B" fill-opacity="0.3"/>
<rect x="10.8242" y="53.63" width="5.41176" height="5.36301" fill="#29399B" fill-opacity="0.3"/>
<rect x="21.6465" y="53.63" width="5.41176" height="5.36301" fill="#29399B" fill-opacity="0.3"/>
<rect x="32.4707" y="53.63" width="5.41176" height="5.36301" fill="#29399B" fill-opacity="0.3"/>
<rect x="43.293" y="53.63" width="5.41176" height="5.36301" fill="#29399B" fill-opacity="0.3"/>
<rect x="54.1172" y="53.63" width="5.41176" height="5.36301" fill="#29399B" fill-opacity="0.3"/>
</svg>
