<svg width="266" height="17" viewBox="0 0 266 17" fill="none" xmlns="http://www.w3.org/2000/svg">
<rect width="5.41176" height="5.36301" fill="#29399B" fill-opacity="0.3"/>
<rect x="10.8242" width="5.41176" height="5.36301" fill="#29399B" fill-opacity="0.3"/>
<rect x="21.6465" width="5.41176" height="5.36301" fill="#F5E200" fill-opacity="0.3"/>
<rect x="32.4707" width="5.41176" height="5.36301" fill="#29399B" fill-opacity="0.3"/>
<rect x="43.293" width="5.41176" height="5.36301" fill="#29399B" fill-opacity="0.3"/>
<rect x="54.1172" width="5.41176" height="5.36301" fill="#F5E200" fill-opacity="0.3"/>
<rect x="64.9414" width="5.41176" height="5.36301" fill="#29399B" fill-opacity="0.3"/>
<rect x="75.7637" width="5.41176" height="5.36301" fill="#29399B" fill-opacity="0.3"/>
<rect x="86.5879" width="5.41176" height="5.36301" fill="#29399B" fill-opacity="0.3"/>
<rect x="97.4121" width="5.41176" height="5.36301" fill="#29399B" fill-opacity="0.3"/>
<rect x="108.234" width="5.41176" height="5.36301" fill="#29399B" fill-opacity="0.3"/>
<rect x="119.059" width="5.41176" height="5.36301" fill="#29399B" fill-opacity="0.3"/>
<rect x="129.881" width="5.41176" height="5.36301" fill="#29399B" fill-opacity="0.3"/>
<rect x="140.707" width="5.41176" height="5.36301" fill="#29399B" fill-opacity="0.3"/>
<rect x="151.529" width="5.41176" height="5.36301" fill="#29399B" fill-opacity="0.3"/>
<rect x="162.354" width="5.41176" height="5.36301" fill="#F5E200" fill-opacity="0.3"/>
<rect x="173.176" width="5.41176" height="5.36301" fill="#29399B" fill-opacity="0.3"/>
<rect x="184" width="5.41176" height="5.36301" fill="#29399B" fill-opacity="0.3"/>
<rect x="194.824" width="5.41176" height="5.36301" fill="#29399B" fill-opacity="0.3"/>
<rect x="205.648" width="5.41176" height="5.36301" fill="#29399B" fill-opacity="0.3"/>
<rect x="216.473" width="5.41176" height="5.36301" fill="#F5E200" fill-opacity="0.3"/>
<rect x="227.297" width="5.41176" height="5.36301" fill="#29399B" fill-opacity="0.3"/>
<rect x="238.121" width="5.41176" height="5.36301" fill="#29399B" fill-opacity="0.3"/>
<rect x="248.945" width="5.41176" height="5.36301" fill="#29399B" fill-opacity="0.3"/>
<rect x="259.77" width="5.41176" height="5.36301" fill="#29399B" fill-opacity="0.3"/>
<rect y="10.7258" width="5.41176" height="5.36301" fill="#29399B" fill-opacity="0.3"/>
<rect x="10.8242" y="10.7261" width="5.41176" height="5.36301" fill="#29399B" fill-opacity="0.3"/>
<rect x="21.6465" y="10.7261" width="5.41176" height="5.36301" fill="#29399B" fill-opacity="0.3"/>
<rect x="32.4707" y="10.7261" width="5.41176" height="5.36301" fill="#29399B" fill-opacity="0.3"/>
<rect x="43.293" y="10.7261" width="5.41176" height="5.36301" fill="#29399B" fill-opacity="0.3"/>
<rect x="54.1172" y="10.7261" width="5.41176" height="5.36301" fill="#29399B" fill-opacity="0.3"/>
<rect x="64.9414" y="10.7261" width="5.41176" height="5.36301" fill="#29399B" fill-opacity="0.3"/>
<rect x="75.7637" y="10.7261" width="5.41176" height="5.36301" fill="#29399B" fill-opacity="0.3"/>
<rect x="86.5879" y="10.7261" width="5.41176" height="5.36301" fill="#29399B" fill-opacity="0.3"/>
<rect x="97.4121" y="10.7261" width="5.41176" height="5.36301" fill="#29399B" fill-opacity="0.3"/>
<rect x="108.234" y="10.7261" width="5.41176" height="5.36301" fill="#29399B" fill-opacity="0.3"/>
<rect x="119.059" y="10.7261" width="5.41176" height="5.36301" fill="#29399B" fill-opacity="0.3"/>
<rect x="129.881" y="10.7261" width="5.41176" height="5.36301" fill="#29399B" fill-opacity="0.3"/>
<rect x="140.707" y="10.7261" width="5.41176" height="5.36301" fill="#29399B" fill-opacity="0.3"/>
<rect x="151.529" y="10.7261" width="5.41176" height="5.36301" fill="#29399B" fill-opacity="0.3"/>
<rect x="162.354" y="10.7261" width="5.41176" height="5.36301" fill="#29399B" fill-opacity="0.3"/>
<rect x="173.176" y="10.7261" width="5.41176" height="5.36301" fill="#29399B" fill-opacity="0.3"/>
<rect x="184" y="10.7261" width="5.41176" height="5.36301" fill="#29399B" fill-opacity="0.3"/>
<rect x="194.824" y="10.7261" width="5.41176" height="5.36301" fill="#29399B" fill-opacity="0.3"/>
<rect x="205.648" y="10.7261" width="5.41176" height="5.36301" fill="#29399B" fill-opacity="0.3"/>
<rect x="216.473" y="10.7261" width="5.41176" height="5.36301" fill="#29399B" fill-opacity="0.3"/>
<rect x="227.297" y="10.7261" width="5.41176" height="5.36301" fill="#29399B" fill-opacity="0.3"/>
<rect x="238.121" y="10.7261" width="5.41176" height="5.36301" fill="#29399B" fill-opacity="0.3"/>
<rect x="248.945" y="10.7261" width="5.41176" height="5.36301" fill="#29399B" fill-opacity="0.3"/>
<rect x="259.77" y="10.7261" width="5.41176" height="5.36301" fill="#29399B" fill-opacity="0.3"/>
</svg>
