<svg width="25" height="28" viewBox="0 0 25 28" fill="none" xmlns="http://www.w3.org/2000/svg">
<path d="M12.8867 19.9609C13.5977 19.9609 14.1875 19.7539 14.6562 19.3398C15.125 18.9258 15.375 18.4141 15.4062 17.8047H18.0898C18.0586 18.5938 17.8125 19.332 17.3516 20.0195C16.8906 20.6992 16.2656 21.2383 15.4766 21.6367C14.6875 22.0352 13.8359 22.2344 12.9219 22.2344C11.1484 22.2344 9.74219 21.6602 8.70312 20.5117C7.66406 19.3633 7.14453 17.7773 7.14453 15.7539V15.4609C7.14453 13.5312 7.66016 11.9883 8.69141 10.832C9.72266 9.66797 11.1289 9.08594 12.9102 9.08594C14.418 9.08594 15.6445 9.52734 16.5898 10.4102C17.543 11.2852 18.043 12.4375 18.0898 13.8672H15.4062C15.375 13.1406 15.125 12.543 14.6562 12.0742C14.1953 11.6055 13.6055 11.3711 12.8867 11.3711C11.9648 11.3711 11.2539 11.707 10.7539 12.3789C10.2539 13.043 10 14.0547 9.99219 15.4141V15.8711C9.99219 17.2461 10.2383 18.2734 10.7305 18.9531C11.2305 19.625 11.9492 19.9609 12.8867 19.9609Z" fill="#3A3A3A"/>
<circle cx="13" cy="16" r="11" stroke="#3A3A3A" stroke-width="2"/>
</svg>
