<svg width="188" height="188" viewBox="0 0 188 188" fill="none" xmlns="http://www.w3.org/2000/svg">
<g filter="url(#filter0_d)">
<circle cx="94" cy="94" r="90" fill="white"/>
</g>
<path d="M131.809 53.2315H47.7148V144.782H131.809V53.2315Z" fill="#F2F2F2"/>
<path d="M140.286 44.4805H56.1914V136.031H140.286V44.4805Z" stroke="#3F3D56" stroke-width="2" stroke-miterlimit="10"/>
<path d="M64.3301 50.2025V120.212H132.487" stroke="#3F3D56" stroke-width="2" stroke-miterlimit="10"/>
<path d="M83.3196 95.6412H68.0605V119.876H83.3196V95.6412Z" fill="#575A89"/>
<path d="M105.361 79.1485H90.1016V119.875H105.361V79.1485Z" fill="#3F3D56"/>
<path d="M127.402 59.9637H112.143V119.876H127.402V59.9637Z" fill="#6C63FF"/>
<path d="M67.8466 125.703H63.3125V130.203H67.8466V125.703Z" fill="#6C63FF"/>
<path d="M74.3954 125.703H69.8613V130.203H74.3954V125.703Z" fill="#3F3D56"/>
<path d="M80.9462 125.703H76.4121V130.203H80.9462V125.703Z" fill="#575A89"/>
<path d="M131.808 127.658H114.176V128.367H131.808V127.658Z" fill="#3F3D56"/>
<path d="M131.808 129.787H114.176V130.496H131.808V129.787Z" fill="#3F3D56"/>
<path d="M131.808 131.915H114.176V132.624H131.808V131.915Z" fill="#3F3D56"/>
<defs>
<filter id="filter0_d" x="0" y="0" width="188" height="188" filterUnits="userSpaceOnUse" color-interpolation-filters="sRGB">
<feFlood flood-opacity="0" result="BackgroundImageFix"/>
<feColorMatrix in="SourceAlpha" type="matrix" values="0 0 0 0 0 0 0 0 0 0 0 0 0 0 0 0 0 0 127 0"/>
<feOffset/>
<feGaussianBlur stdDeviation="2"/>
<feColorMatrix type="matrix" values="0 0 0 0 0 0 0 0 0 0 0 0 0 0 0 0 0 0 0.16 0"/>
<feBlend mode="normal" in2="BackgroundImageFix" result="effect1_dropShadow"/>
<feBlend mode="normal" in="SourceGraphic" in2="effect1_dropShadow" result="shape"/>
</filter>
</defs>
</svg>
