<svg width="188" height="188" viewBox="0 0 188 188" fill="none" xmlns="http://www.w3.org/2000/svg">
<g filter="url(#filter0_d)">
<circle cx="94" cy="94" r="90" fill="white"/>
</g>
<path d="M131.934 52.8618H47.7148V144.863H131.934V52.8618Z" fill="#F2F2F2"/>
<path d="M140.287 44.561H56.7637V136.562H140.287V44.561Z" stroke="#3F3D56" stroke-width="2" stroke-miterlimit="10"/>
<path d="M65.1156 126.186H60.9395V130.337H65.1156V126.186Z" fill="#6C63FF"/>
<path d="M72.0753 126.186H67.2031V130.337H72.0753V126.186Z" fill="#3F3D56"/>
<path d="M78.3402 126.186H74.1641V130.337H78.3402V126.186Z" fill="#575A89"/>
<path d="M129.151 127.57H111.75V128.953H129.151V127.57Z" fill="#3F3D56"/>
<path d="M129.151 129.645H111.75V131.028H129.151V129.645Z" fill="#3F3D56"/>
<path d="M129.151 131.72H111.75V133.103H129.151V131.72Z" fill="#3F3D56"/>
<path d="M120.797 108.71C120.797 109.865 113.412 116.543 96.5992 116.543C79.7868 116.543 70.6836 110.098 70.6836 108.942C70.6836 107.787 80.0991 110.649 96.9114 110.649C113.724 110.649 120.797 107.552 120.797 108.71Z" fill="#F7F7FD"/>
<path opacity="0.1" d="M93.1692 125.494C95.1515 125.494 96.7584 125.316 96.7584 125.095C96.7584 124.875 95.1515 124.697 93.1692 124.697C91.187 124.697 89.5801 124.875 89.5801 125.095C89.5801 125.316 91.187 125.494 93.1692 125.494Z" fill="#6C63FF"/>
<g opacity="0.1">
<path opacity="0.1" d="M95.9342 83.5366C109.05 83.5366 119.683 78.8218 119.683 73.0058C119.683 67.1898 109.05 62.475 95.9342 62.475C82.8182 62.475 72.1855 67.1898 72.1855 73.0058C72.1855 78.8218 82.8182 83.5366 95.9342 83.5366Z" fill="black"/>
<path opacity="0.1" d="M120.095 76.7701C119.044 82.2612 108.662 86.5719 96.0073 86.5719C83.2415 86.5719 72.7878 82.1852 71.8917 76.6274H71.8027V85.576C75.9773 89.9099 85.2195 92.9238 95.9479 92.9238C106.676 92.9238 115.919 89.9099 120.095 85.576V76.7701Z" fill="black"/>
<path opacity="0.1" d="M120.095 87.6589C119.044 93.1484 108.662 97.4606 96.0073 97.4606C83.2415 97.4606 72.7878 93.074 71.8917 87.5146H71.8027V96.4648C75.9773 100.799 85.2195 103.811 95.9479 103.811C106.676 103.811 115.919 100.799 120.095 96.4648V87.6589Z" fill="black"/>
<path opacity="0.1" d="M120.095 99.6354C119.044 105.126 108.662 109.437 96.0073 109.437C83.2415 109.437 72.7878 105.052 71.8917 99.4927H71.8027V109.144C71.8023 109.35 71.8449 109.553 71.9276 109.742C72.0104 109.93 72.1316 110.099 72.2836 110.239C76.6549 114.227 85.6145 115.789 95.9479 115.789C106.281 115.789 115.236 114.227 119.614 110.239C119.766 110.099 119.887 109.93 119.97 109.742C120.053 109.553 120.095 109.35 120.095 109.144V99.6354Z" fill="black"/>
</g>
<path d="M118.683 72.3848C118.683 73.5126 118.172 74.6628 117.093 75.7936C116.009 76.9295 114.394 77.9979 112.322 78.917C108.179 80.7539 102.386 81.9155 95.9342 81.9155C89.4823 81.9155 83.6893 80.7539 79.5467 78.917C77.4741 77.9979 75.8589 76.9295 74.7754 75.7936C73.6968 74.6628 73.1855 73.5126 73.1855 72.3848C73.1855 71.2569 73.6968 70.1067 74.7754 68.9759C75.8589 67.84 77.4741 66.7716 79.5467 65.8525C83.6893 64.0156 89.4823 62.854 95.9342 62.854C102.386 62.854 108.179 64.0156 112.322 65.8525C114.394 66.7716 116.009 67.84 117.093 68.9759C118.172 70.1067 118.683 71.2569 118.683 72.3848Z" fill="#6C63FF" stroke="#575A89" stroke-width="2"/>
<path d="M96.0073 86.9515C102.437 86.9515 108.33 85.8579 112.781 84.0353C115.007 83.1241 116.906 82.0171 118.333 80.7443C118.603 80.5037 118.857 80.2557 119.095 80.0005V84.5421C117.146 86.428 114.074 88.0917 110.182 89.2995C106.114 90.5618 101.223 91.3032 95.9479 91.3032C90.6733 91.3032 85.7816 90.5618 81.714 89.2995C77.8221 88.0917 74.7512 86.4281 72.8027 84.5422V79.8753C73.0405 80.1392 73.2962 80.3956 73.5681 80.644C74.9836 81.9372 76.8829 83.0618 79.1154 83.9873C83.5816 85.8387 89.5212 86.9515 96.0073 86.9515Z" fill="#6C63FF" stroke="#575A89" stroke-width="2"/>
<path d="M96.0073 97.8405C102.437 97.8405 108.33 96.7465 112.781 94.9236C115.007 94.0124 116.906 92.9053 118.333 91.6325C118.603 91.392 118.857 91.144 119.095 90.8887V95.4311C117.146 97.3171 114.074 98.9804 110.182 100.188C106.114 101.45 101.223 102.191 95.9479 102.191C90.6732 102.191 85.7815 101.45 81.714 100.188C77.822 98.9804 74.7511 97.3171 72.8027 95.4313V90.7634C73.0404 91.0273 73.2962 91.2837 73.568 91.5321C74.9835 92.8256 76.8828 93.9504 79.1154 94.876C83.5816 96.7277 89.5212 97.8405 96.0073 97.8405Z" fill="#6C63FF" stroke="#575A89" stroke-width="2"/>
<path d="M72.8027 108.523V102.741C73.0405 103.005 73.2962 103.261 73.5681 103.509C74.9836 104.803 76.8829 105.927 79.1155 106.853C83.5816 108.704 89.5212 109.817 96.0073 109.817C102.437 109.817 108.33 108.723 112.781 106.9C115.007 105.989 116.906 104.882 118.333 103.609C118.603 103.369 118.857 103.121 119.095 102.865V108.523V108.525C119.095 108.592 119.081 108.658 119.054 108.719C119.027 108.78 118.988 108.835 118.938 108.881C116.937 110.703 113.803 112.039 109.801 112.912C105.817 113.781 101.071 114.168 95.9479 114.168C90.8249 114.168 86.0781 113.781 82.093 112.912C78.0904 112.039 74.9569 110.703 72.9591 108.881C72.9093 108.835 72.87 108.78 72.8433 108.719L71.9276 109.121L72.8433 108.719C72.8163 108.658 72.8026 108.592 72.8027 108.525V108.523Z" fill="#6C63FF" stroke="#575A89" stroke-width="2"/>
<defs>
<filter id="filter0_d" x="0" y="0" width="188" height="188" filterUnits="userSpaceOnUse" color-interpolation-filters="sRGB">
<feFlood flood-opacity="0" result="BackgroundImageFix"/>
<feColorMatrix in="SourceAlpha" type="matrix" values="0 0 0 0 0 0 0 0 0 0 0 0 0 0 0 0 0 0 127 0"/>
<feOffset/>
<feGaussianBlur stdDeviation="2"/>
<feColorMatrix type="matrix" values="0 0 0 0 0 0 0 0 0 0 0 0 0 0 0 0 0 0 0.16 0"/>
<feBlend mode="normal" in2="BackgroundImageFix" result="effect1_dropShadow"/>
<feBlend mode="normal" in="SourceGraphic" in2="effect1_dropShadow" result="shape"/>
</filter>
</defs>
</svg>
