<svg width="408" height="297" viewBox="0 0 408 297" fill="none" xmlns="http://www.w3.org/2000/svg">
<path d="M379.193 266.421H329.4V295.177H379.193V266.421Z" fill="#FC4732"/>
<path d="M276.945 288.524C276.499 290.046 276.291 291.82 277.219 293.106C277.732 293.75 278.408 294.245 279.176 294.54C281.151 295.314 283.278 295.627 285.392 295.454C285.797 295.472 286.202 295.407 286.58 295.261C286.959 295.116 287.303 294.894 287.592 294.608C292.498 290.542 295.816 284.876 296.964 278.605C297.056 278.281 297.039 277.936 296.914 277.623C296.752 277.381 296.526 277.189 296.261 277.069C295.169 276.384 293.993 275.846 292.761 275.469C286.02 273.727 278.615 282.836 276.945 288.524Z" fill="#2F2E41"/>
<path d="M347.634 267.198C348.539 268.251 349.656 269.102 350.91 269.696C351.54 269.988 352.227 270.133 352.92 270.121C353.614 270.109 354.296 269.941 354.915 269.628C356.769 268.571 357.294 266.116 357.146 263.985C356.873 260.044 354.992 256.493 352.831 253.273C352.147 252.255 350.633 249.223 349.305 249.186C348.674 249.168 346.314 251.458 345.672 251.894C343.329 253.487 341.707 254.626 342.194 257.684C342.738 261.094 345.341 264.743 347.634 267.198Z" fill="#2F2E41"/>
<path d="M327.091 104.2C317.117 103.426 307.59 103.713 297.598 103.199C296.758 103.156 297.163 112.778 296.293 118.002C295.846 120.688 280.805 277.994 282.672 278.313C287.466 279.317 292.315 280.036 297.193 280.466C299.172 280.64 317.619 178.143 316.735 169.813C319.15 173.359 327.657 189.731 331.959 208.562C337.634 233.41 339.305 261.514 342.832 259.938C345.103 256.816 348.185 254.377 351.743 252.884C357.573 250.713 348.124 131.19 338.141 125.695C338.018 122.197 337.89 118.613 336.573 115.37C334.715 110.797 331.05 107.145 327.091 104.2Z" fill="#3A3A3A"/>
<path d="M407.81 296.048H132.957V295.002H407.999L407.81 296.048Z" fill="#3F3D56"/>
<path d="M225.507 141.077H0V185.644H225.507V141.077Z" fill="#E6E6E6"/>
<path d="M225.507 70.6543H0V115.222H225.507V70.6543Z" fill="#E6E6E6"/>
<path d="M225.507 0H0V44.5681H225.507V0Z" fill="#E6E6E6"/>
<path d="M4.80664 39.7556H220.699V4.81226H4.80664V39.7556Z" fill="white"/>
<path d="M4.80664 110.565H220.699V75.6218H4.80664V110.565Z" fill="white"/>
<path d="M4.80664 180.832H220.699V145.889H4.80664V180.832Z" fill="white"/>
<path d="M23.7073 35.3069C31.0523 35.3069 37.0065 29.3467 37.0065 21.9945C37.0065 14.6423 31.0523 8.68213 23.7073 8.68213C16.3624 8.68213 10.4082 14.6423 10.4082 21.9945C10.4082 29.3467 16.3624 35.3069 23.7073 35.3069Z" fill="#F5E200"/>
<path d="M186.767 16.7852H55.5098V19.6787H186.767V16.7852Z" fill="#F5E200"/>
<path d="M186.767 24.3098H55.5098V27.2034H186.767V24.3098Z" fill="#F5E200"/>
<path d="M23.7073 106.54C31.0523 106.54 37.0065 100.58 37.0065 93.2275C37.0065 85.8752 31.0523 79.915 23.7073 79.915C16.3624 79.915 10.4082 85.8752 10.4082 93.2275C10.4082 100.58 16.3624 106.54 23.7073 106.54Z" fill="#CCCCCC"/>
<path d="M186.767 88.0181H55.5098V90.9116H186.767V88.0181Z" fill="#CCCCCC"/>
<path d="M186.767 95.543H55.5098V98.4365H186.767V95.543Z" fill="#CCCCCC"/>
<path d="M23.7074 176.962C31.0523 176.962 37.0065 171.002 37.0065 163.65C37.0065 156.297 31.0523 150.337 23.7074 150.337C16.3624 150.337 10.4082 156.297 10.4082 163.65C10.4082 171.002 16.3624 176.962 23.7074 176.962Z" fill="#CCCCCC"/>
<path d="M186.767 158.44H55.5098V161.334H186.767V158.44Z" fill="#CCCCCC"/>
<path d="M186.767 165.965H55.5098V168.859H186.767V165.965Z" fill="#CCCCCC"/>
<path d="M324.633 27.9C319.457 19.1442 309.215 18.7362 309.215 18.7362C309.215 18.7362 299.235 17.4586 292.833 30.7939C286.866 43.2234 278.63 55.2244 291.507 58.134L293.833 50.8873L295.273 58.6735C297.107 58.8055 298.946 58.837 300.783 58.7678C314.573 58.3221 327.706 58.8982 327.283 53.9447C326.721 47.3598 329.614 36.3249 324.633 27.9Z" fill="#3A3A3A"/>
<path d="M305.537 57.732C305.562 58.7175 305.555 59.7569 305.066 60.6126C304.096 62.3088 301.728 62.5626 300.304 63.8995C298.806 65.3054 298.637 67.5872 298.565 69.6412C298.491 71.7888 298.427 74.0067 299.21 76.0075C299.69 77.1096 300.296 78.1521 301.016 79.1138C301.886 80.3685 302.764 81.6176 303.649 82.8609C304.122 83.5612 304.649 84.2234 305.226 84.8412C306.812 86.4584 308.987 87.3536 311.159 87.9923C312.563 88.405 314.078 88.7264 315.471 88.2781C316.392 87.9182 317.241 87.3955 317.978 86.7349C319.054 85.9622 320.01 85.0343 320.816 83.9815C321.985 82.2836 322.309 80.1581 322.551 78.1102C323.267 72.0543 323.546 65.9545 323.385 59.8585C323.415 59.1942 323.296 58.5317 323.037 57.9192C322.316 56.5096 320.384 56.2087 319.367 54.9962C318.497 53.9595 318.461 52.48 318.468 51.126L318.487 47.679C318.518 47.3886 318.459 47.0958 318.32 46.8393C318.194 46.7011 318.042 46.5892 317.872 46.51C317.703 46.4309 317.519 46.386 317.332 46.3779C315.192 46.0224 313.022 45.8771 310.854 45.9441C309.096 45.9979 305.723 45.8506 304.202 46.8307C302.823 47.7204 304.55 50.1776 304.87 51.5579C305.3 53.5882 305.523 55.6567 305.537 57.732Z" fill="#FFB8B8"/>
<path d="M309.571 51.8127C317.258 51.8127 323.489 45.5751 323.489 37.8805C323.489 30.1859 317.258 23.9482 309.571 23.9482C301.884 23.9482 295.652 30.1859 295.652 37.8805C295.652 45.5751 301.884 51.8127 309.571 51.8127Z" fill="#FFB8B8"/>
<path d="M306.419 68.0113C299.236 45.2238 295.451 77.2308 290.922 85.9701C290.964 91.9956 291.127 108.661 292.535 114.978C298.004 139.517 325.086 137.59 333.23 116.895C337.569 105.871 327.945 78.5493 328.271 65.8012C316.345 53.7043 315.609 92.0816 306.419 68.0113Z" fill="#6C63FF"/>
<path d="M298.533 60.1953C282.968 67.7682 290.394 88.1142 284.752 101.43C280.246 119.698 268.786 125.443 294.988 125.868C300.633 109.17 295.119 91.0315 302.817 74.0287C303.347 67.3694 305.629 64.8651 305.426 59.2257C303.917 56.8851 300.007 59.4702 298.533 60.1953Z" fill="#29399B"/>
<path d="M322.345 27.0563L312.227 21.7505L298.254 23.921L295.363 36.7026L302.56 36.4251L304.57 31.7295V36.3475L307.89 36.22L309.818 28.7442L311.022 36.7026L322.828 36.4611L322.345 27.0563Z" fill="#3A3A3A"/>
<path d="M316.086 66.6088C324.097 65.6728 316.287 56.0419 322.646 56.2055C341.687 52.9997 347.383 64.805 340.142 81.282C333.504 94.4795 356.985 113.019 343.867 120.403C339.212 122.114 332.546 127.495 327.996 125.152C320.691 106.774 320.427 85.7755 316.086 66.6088Z" fill="#29399B"/>
<path d="M338.385 119.075C335.596 120.41 333.389 122.534 331.522 125.001C331.127 125.523 331.657 126.497 332.841 126.481C333.944 126.467 334.602 125.052 335.704 125.037C336.041 127.986 336.651 130.897 337.526 133.733C339.725 131.8 341.042 129.079 342.302 126.435L344.792 121.209C345.706 119.29 346.621 117.37 347.445 115.411C347.669 114.953 347.807 114.458 347.853 113.95C347.962 110.578 344.641 110.557 343.209 112.668C341.642 114.976 341.154 117.749 338.385 119.075Z" fill="#FFB8B8"/>
<path d="M338.958 61.1079C341.087 63.3225 343.231 65.5559 344.884 68.1462C346.537 70.7365 355.086 94.0328 355.433 94.5268C356.667 96.3502 355.226 101.064 355.153 101.334C355.01 102.18 353.226 110.633 352.779 112.499C352.467 113.806 352.471 115.166 352.266 116.493C352.061 117.82 351.601 119.185 350.579 120.056C350.449 120.181 350.289 120.271 350.115 120.317C349.548 120.427 349.162 119.771 348.964 119.228C348.347 117.539 347.723 115.816 346.634 114.385C345.546 112.953 343.896 111.832 342.098 111.838C341.95 111.482 341.888 111.096 341.919 110.711C341.949 110.327 342.071 109.955 342.274 109.627C342.634 108.947 343.162 108.371 343.559 107.712C344.063 106.814 344.405 105.835 344.571 104.819C345.458 100.152 344.565 95.3207 342.067 91.2805C341.486 90.3224 340.784 89.4437 339.978 88.6664C339.1 87.8432 338.073 87.1813 337.263 86.2916C336.014 84.8113 335.259 82.9768 335.103 81.0453C334.954 79.1266 335.005 77.1976 335.255 75.2895C335.62 71.5029 336.088 67.7108 336.628 63.9454C336.67 63.4549 336.797 62.9754 337.004 62.5286C337.428 61.7366 338.145 61.4901 338.958 61.1079Z" fill="#29399B"/>
<path d="M292.489 113.424C291.057 111.314 287.736 111.334 287.844 114.706C287.89 115.214 288.029 115.709 288.253 116.167C289.077 118.127 289.991 120.046 290.906 121.965L293.396 127.192C294.656 129.836 295.972 132.557 298.171 134.49C299.046 131.654 299.656 128.742 299.993 125.793C301.096 125.808 301.754 127.223 302.856 127.238C304.041 127.254 304.571 126.28 304.176 125.757C302.308 123.29 300.102 121.167 297.312 119.831C294.543 118.506 294.056 115.732 292.489 113.424Z" fill="#FFB8B8"/>
<path d="M298.693 63.2854C298.899 63.7322 299.026 64.2117 299.068 64.7022C299.608 68.4677 300.076 72.2597 300.441 76.0463C300.691 77.9543 300.743 79.8834 300.593 81.802C300.438 83.7336 299.682 85.568 298.433 87.0483C297.623 87.938 296.596 88.5999 295.718 89.4231C294.912 90.2005 294.21 91.0791 293.629 92.0372C291.131 96.0774 290.238 100.908 291.126 105.576C291.291 106.592 291.633 107.571 292.137 108.469C292.534 109.128 293.062 109.704 293.422 110.384C293.625 110.712 293.747 111.083 293.778 111.468C293.808 111.852 293.747 112.239 293.598 112.595C291.801 112.589 290.151 113.71 289.062 115.142C287.973 116.573 287.35 118.295 286.732 119.985C286.534 120.528 286.148 121.184 285.581 121.073C285.407 121.027 285.247 120.938 285.117 120.813C284.095 119.942 283.635 118.577 283.43 117.25C283.226 115.922 283.23 114.562 282.917 113.256C282.47 111.389 280.686 102.937 280.544 102.091C280.471 101.821 279.029 97.1068 280.263 95.2835C280.61 94.7895 289.16 71.4933 290.812 68.903C292.465 66.3127 294.609 64.0793 296.738 61.8647C297.551 62.2469 298.268 62.4935 298.693 63.2854Z" fill="#29399B"/>
</svg>
