<svg width="442" height="297" viewBox="0 0 442 297" fill="none" xmlns="http://www.w3.org/2000/svg">
<path d="M362.798 177.245C363.091 177.158 363.389 177.094 363.692 177.054L375.761 152.523L372.076 146.997L379.686 140.345L389.253 152.054L369.769 180.418C370.249 181.49 370.39 182.684 370.175 183.839C369.96 184.994 369.398 186.056 368.565 186.884C367.731 187.712 366.666 188.267 365.509 188.474C364.353 188.682 363.161 188.532 362.092 188.046C361.023 187.559 360.127 186.758 359.524 185.75C358.921 184.742 358.639 183.574 358.715 182.401C358.792 181.229 359.224 180.107 359.953 179.186C360.682 178.265 361.675 177.588 362.798 177.245V177.245Z" fill="#A0616A"/>
<path d="M383.4 143.734C383.236 143.907 383.047 144.056 382.84 144.175L370.491 151.336C370.194 151.508 369.865 151.617 369.524 151.655C369.183 151.693 368.838 151.661 368.51 151.559C368.183 151.457 367.88 151.288 367.621 151.063C367.362 150.838 367.152 150.561 367.006 150.251L360.999 137.559C360.744 137.025 360.689 136.417 360.845 135.845C361 135.274 361.356 134.778 361.847 134.447L369.502 129.238C369.98 128.913 370.556 128.765 371.132 128.82C371.707 128.875 372.245 129.129 372.653 129.538L383.353 140.278C383.808 140.735 384.068 141.351 384.076 141.996C384.085 142.641 383.843 143.264 383.4 143.734H383.4Z" fill="#F5E200"/>
<path d="M400.739 284.299L394.219 286.074L384.273 261.763L393.897 259.144L400.739 284.299Z" fill="#A0616A"/>
<path d="M389.056 285.478L401.63 282.055L403.784 289.975L383.293 295.552C383.01 294.512 382.935 293.426 383.071 292.357C383.208 291.288 383.553 290.256 384.088 289.321C384.624 288.385 385.338 287.564 386.19 286.905C387.042 286.246 388.016 285.761 389.056 285.478Z" fill="#2F2E41"/>
<path d="M345.001 289.276L338.244 289.275L335.029 263.205L345.002 263.206L345.001 289.276Z" fill="#A0616A"/>
<path d="M333.418 287.344H346.449V295.551H325.213C325.213 294.474 325.425 293.406 325.837 292.411C326.25 291.415 326.854 290.51 327.616 289.748C328.378 288.986 329.282 288.381 330.278 287.969C331.273 287.557 332.34 287.344 333.418 287.344Z" fill="#2F2E41"/>
<path d="M352.121 120.584C359.597 120.584 365.658 114.521 365.658 107.043C365.658 99.565 359.597 93.5027 352.121 93.5027C344.645 93.5027 338.584 99.565 338.584 107.043C338.584 114.521 344.645 120.584 352.121 120.584Z" fill="#A0616A"/>
<path d="M344.588 270.688H335.354C334.723 270.687 334.116 270.446 333.656 270.013C333.196 269.581 332.917 268.99 332.877 268.36C330.125 224.608 331.735 193.224 337.942 169.593C337.969 169.49 338.002 169.388 338.042 169.289L338.537 168.052C338.719 167.591 339.037 167.195 339.448 166.917C339.858 166.639 340.344 166.491 340.84 166.492H359.828C360.186 166.492 360.539 166.569 360.864 166.719C361.19 166.869 361.478 167.087 361.711 167.359L364.29 170.369C364.341 170.427 364.388 170.487 364.433 170.55C376.063 186.773 386.485 218.488 398.556 261.117C398.734 261.736 398.664 262.401 398.359 262.969C398.055 263.537 397.54 263.964 396.926 264.158L387.002 267.334C386.432 267.514 385.817 267.483 385.269 267.247C384.72 267.011 384.274 266.586 384.012 266.049L358.261 212.624C358.081 212.251 357.785 211.945 357.418 211.753C357.051 211.561 356.632 211.492 356.222 211.556C355.813 211.621 355.435 211.816 355.145 212.112C354.855 212.408 354.668 212.79 354.612 213.201L347.046 268.543C346.963 269.137 346.668 269.68 346.217 270.074C345.766 270.468 345.187 270.686 344.588 270.688Z" fill="#29399B"/>
<path d="M363.249 170.589C363.224 170.589 363.198 170.588 363.172 170.588L340.107 169.859C339.514 169.843 338.946 169.613 338.508 169.213C338.07 168.813 337.791 168.269 337.721 167.679C334.797 144.006 342.816 137.664 346.399 136.036C346.699 135.901 346.958 135.691 347.152 135.426C347.347 135.161 347.469 134.85 347.508 134.524L347.818 132.043C347.871 131.604 348.04 131.188 348.308 130.838C353.927 123.558 361.598 121.227 365.671 120.485C366.001 120.426 366.34 120.434 366.667 120.51C366.994 120.586 367.303 120.727 367.573 120.926C367.844 121.124 368.072 121.376 368.242 121.665C368.413 121.954 368.523 122.275 368.565 122.608L369.03 126.171C369.077 126.51 369.213 126.832 369.423 127.103C381.14 142.425 368.087 165.047 365.351 169.426C365.127 169.782 364.817 170.075 364.45 170.278C364.082 170.482 363.669 170.589 363.249 170.589Z" fill="#F5E200"/>
<path d="M379.431 108.568C376.412 104.315 372.79 100.522 368.681 97.31C365.265 94.6409 361.462 92.3605 357.267 91.2697C353.071 90.1789 348.438 90.3646 344.61 92.3994C340.783 94.4343 336.825 98.4773 336.801 102.813C336.793 104.206 337.148 106.091 338.519 105.85L338.916 105.902C342.224 105.234 345.532 104.566 348.84 103.897C350.249 108.788 351.658 113.679 353.067 118.571C353.364 119.601 353.763 120.754 354.741 121.194C355.662 121.608 356.728 121.218 357.66 120.828C357.813 120.764 359.13 117.806 359.13 117.806C359.163 117.714 359.221 117.632 359.296 117.569C359.371 117.506 359.462 117.464 359.559 117.448C359.655 117.432 359.755 117.442 359.846 117.477C359.938 117.512 360.019 117.571 360.08 117.647L360.863 118.626C361.012 118.813 361.218 118.946 361.45 119.005C361.682 119.065 361.927 119.047 362.148 118.954C367.543 116.702 372.938 114.449 378.333 112.196C379.078 111.885 379.912 111.478 380.128 110.7C380.335 109.954 379.879 109.199 379.431 108.568Z" fill="#29399B"/>
<path d="M441.449 296.047H275.551C275.405 296.047 275.265 295.989 275.161 295.886C275.058 295.783 275 295.642 275 295.496C275 295.35 275.058 295.21 275.161 295.107C275.265 295.003 275.405 294.945 275.551 294.945H441.449C441.595 294.945 441.735 295.003 441.838 295.107C441.942 295.21 442 295.35 442 295.496C442 295.642 441.942 295.783 441.838 295.886C441.735 295.989 441.595 296.047 441.449 296.047Z" fill="#3F3D56"/>
<path d="M351.51 210.135C351.136 210.134 350.771 210.013 350.469 209.791L347.96 207.967C347.752 207.815 347.501 207.733 347.243 207.733C346.986 207.733 346.735 207.815 346.526 207.967L344.018 209.791C343.715 210.011 343.351 210.129 342.977 210.129C342.603 210.129 342.238 210.011 341.936 209.791C341.633 209.571 341.408 209.261 341.292 208.905C341.177 208.549 341.177 208.166 341.292 207.81L342.25 204.86C342.331 204.615 342.331 204.351 342.251 204.106C342.172 203.861 342.016 203.647 341.807 203.496L339.298 201.673C338.996 201.453 338.771 201.143 338.655 200.787C338.539 200.431 338.539 200.048 338.655 199.692C338.771 199.336 338.996 199.026 339.298 198.806C339.601 198.586 339.965 198.468 340.339 198.468H343.44C343.698 198.468 343.949 198.387 344.158 198.235C344.366 198.084 344.522 197.87 344.601 197.625L345.559 194.675C345.675 194.319 345.9 194.009 346.202 193.789C346.505 193.569 346.869 193.45 347.243 193.45C347.617 193.45 347.982 193.569 348.284 193.789C348.587 194.009 348.812 194.319 348.928 194.675L349.886 197.625C349.965 197.87 350.12 198.084 350.329 198.235C350.537 198.387 350.789 198.468 351.046 198.468H354.147C354.521 198.468 354.886 198.586 355.188 198.806C355.491 199.026 355.716 199.336 355.832 199.692C355.947 200.048 355.947 200.431 355.832 200.787C355.716 201.143 355.491 201.453 355.188 201.673L352.68 203.496C352.471 203.647 352.315 203.861 352.236 204.106C352.156 204.351 352.156 204.615 352.236 204.86L353.195 207.81C353.315 208.166 353.317 208.55 353.201 208.907C353.085 209.264 352.857 209.574 352.551 209.791C352.25 210.013 351.885 210.134 351.51 210.135Z" fill="#6C63FF"/>
<path d="M361.098 204.238C361.807 203.74 362.398 203.094 362.83 202.344C363.261 201.593 363.524 200.757 363.597 199.895C363.671 199.032 363.555 198.164 363.257 197.351C362.959 196.538 362.487 195.8 361.873 195.189L366.157 143.438L353.401 145.194L353.159 195.474C352.202 196.574 351.681 197.986 351.696 199.444C351.71 200.901 352.259 202.303 353.237 203.383C354.216 204.463 355.556 205.147 357.005 205.305C358.454 205.462 359.91 205.082 361.098 204.238Z" fill="#A0616A"/>
<path d="M366.991 150.89C366.752 150.89 366.514 150.856 366.285 150.788L352.591 146.759C352.262 146.663 351.956 146.499 351.694 146.278C351.431 146.057 351.217 145.784 351.066 145.476C350.914 145.168 350.828 144.832 350.813 144.489C350.798 144.146 350.854 143.804 350.978 143.484L356.046 130.388C356.257 129.835 356.66 129.376 357.181 129.096C357.703 128.815 358.308 128.732 358.886 128.86L367.933 130.828C368.497 130.951 369.001 131.267 369.358 131.722C369.714 132.177 369.901 132.742 369.885 133.32L369.464 148.477C369.446 149.122 369.178 149.734 368.716 150.185C368.254 150.635 367.636 150.888 366.991 150.89H366.991Z" fill="#F5E200"/>
<path d="M238.099 215.558H3.85808C2.83521 215.557 1.85456 215.15 1.13127 214.426C0.407991 213.703 0.00114807 212.722 0 211.699V141.684C0.00114807 140.661 0.407991 139.68 1.13127 138.956C1.85456 138.233 2.83521 137.826 3.85808 137.825H238.099C239.122 137.826 240.102 138.233 240.826 138.956C241.549 139.68 241.956 140.661 241.957 141.684V211.699C241.956 212.722 241.549 213.703 240.826 214.426C240.102 215.15 239.122 215.557 238.099 215.558ZM3.85808 138.927C3.12747 138.928 2.42702 139.219 1.9104 139.736C1.39377 140.252 1.10316 140.953 1.10231 141.684V211.699C1.10316 212.43 1.39377 213.13 1.9104 213.647C2.42702 214.164 3.12747 214.454 3.85808 214.455H238.099C238.83 214.454 239.53 214.164 240.047 213.647C240.563 213.13 240.854 212.43 240.855 211.699V141.684C240.854 140.953 240.563 140.252 240.047 139.736C239.53 139.219 238.83 138.928 238.099 138.927H3.85808Z" fill="#6C63FF"/>
<path d="M106.359 245.039C105.899 245.037 105.453 244.889 105.083 244.616L102.01 242.383C101.755 242.197 101.447 242.096 101.131 242.096C100.816 242.096 100.508 242.197 100.253 242.383L97.1795 244.616C96.8088 244.886 96.3624 245.031 95.9043 245.031C95.4461 245.031 94.9997 244.886 94.629 244.616C94.2583 244.347 93.9824 243.967 93.8408 243.531C93.6991 243.096 93.6991 242.626 93.8406 242.19L95.0146 238.576C95.1128 238.276 95.1131 237.952 95.0155 237.652C94.918 237.352 94.7276 237.09 94.4718 236.905L91.3983 234.671C91.0276 234.402 90.7517 234.022 90.6101 233.586C90.4685 233.15 90.4685 232.681 90.6101 232.245C90.7517 231.809 91.0276 231.429 91.3983 231.16C91.7689 230.89 92.2153 230.745 92.6735 230.745H96.4726C96.7884 230.746 97.0961 230.646 97.3515 230.46C97.607 230.275 97.7969 230.013 97.8939 229.712L99.0677 226.098C99.2093 225.662 99.4852 225.283 99.8559 225.013C100.227 224.744 100.673 224.599 101.131 224.599C101.59 224.599 102.036 224.744 102.407 225.013C102.777 225.283 103.053 225.662 103.195 226.098L104.369 229.712C104.466 230.013 104.656 230.275 104.911 230.46C105.167 230.646 105.474 230.746 105.79 230.745H109.589C110.047 230.745 110.494 230.89 110.864 231.16C111.235 231.429 111.511 231.809 111.652 232.245C111.794 232.681 111.794 233.15 111.652 233.586C111.511 234.022 111.235 234.402 110.864 234.671L107.791 236.905C107.535 237.09 107.345 237.352 107.247 237.652C107.15 237.952 107.15 238.276 107.248 238.576L108.422 242.19C108.569 242.626 108.571 243.097 108.429 243.534C108.287 243.971 108.008 244.35 107.634 244.616C107.264 244.889 106.818 245.037 106.359 245.039Z" fill="#F5E200"/>
<path d="M137.505 245.039C137.046 245.037 136.599 244.889 136.229 244.616L133.156 242.383C132.901 242.197 132.593 242.096 132.278 242.096C131.962 242.096 131.654 242.197 131.399 242.383L128.326 244.616C127.955 244.886 127.509 245.031 127.051 245.031C126.592 245.031 126.146 244.886 125.775 244.616C125.405 244.347 125.129 243.967 124.987 243.531C124.845 243.096 124.845 242.626 124.987 242.19L126.161 238.576C126.259 238.276 126.259 237.952 126.162 237.652C126.064 237.352 125.874 237.09 125.618 236.905L122.545 234.671C122.174 234.402 121.898 234.022 121.757 233.586C121.615 233.15 121.615 232.681 121.757 232.245C121.898 231.809 122.174 231.429 122.545 231.16C122.915 230.89 123.362 230.745 123.82 230.745H127.619C127.935 230.746 128.242 230.646 128.498 230.46C128.753 230.275 128.943 230.013 129.04 229.712L130.214 226.098C130.356 225.663 130.632 225.283 131.002 225.013C131.373 224.744 131.819 224.599 132.278 224.599C132.736 224.599 133.182 224.744 133.553 225.013C133.924 225.283 134.2 225.663 134.341 226.098L135.515 229.712C135.612 230.013 135.802 230.275 136.057 230.46C136.313 230.646 136.621 230.746 136.936 230.745H140.735C141.194 230.745 141.64 230.89 142.011 231.16C142.381 231.429 142.657 231.809 142.799 232.245C142.94 232.681 142.94 233.15 142.799 233.586C142.657 234.022 142.381 234.402 142.011 234.671L138.937 236.905C138.681 237.09 138.491 237.352 138.393 237.652C138.296 237.952 138.296 238.276 138.394 238.576L139.568 242.19C139.715 242.626 139.718 243.097 139.576 243.534C139.434 243.971 139.155 244.35 138.78 244.616C138.411 244.889 137.964 245.037 137.505 245.039Z" fill="#F5E200"/>
<path d="M168.649 245.039C168.19 245.037 167.744 244.889 167.374 244.616L164.301 242.383C164.045 242.197 163.738 242.097 163.422 242.097C163.107 242.097 162.799 242.197 162.544 242.383L159.47 244.616C159.1 244.886 158.653 245.031 158.195 245.031C157.737 245.031 157.291 244.886 156.92 244.616C156.549 244.347 156.273 243.967 156.132 243.531C155.99 243.096 155.99 242.626 156.132 242.19L157.305 238.576C157.404 238.276 157.404 237.952 157.306 237.652C157.209 237.352 157.018 237.09 156.763 236.905L153.689 234.671C153.319 234.402 153.043 234.022 152.901 233.586C152.76 233.15 152.76 232.681 152.901 232.245C153.043 231.809 153.319 231.429 153.689 231.16C154.06 230.89 154.506 230.745 154.965 230.745H158.763C159.079 230.746 159.387 230.646 159.642 230.46C159.898 230.275 160.088 230.013 160.185 229.712L161.359 226.098C161.5 225.662 161.776 225.283 162.147 225.013C162.518 224.744 162.964 224.599 163.422 224.599C163.88 224.599 164.327 224.744 164.698 225.013C165.068 225.283 165.344 225.662 165.486 226.098L166.66 229.712C166.757 230.013 166.947 230.275 167.202 230.46C167.458 230.646 167.765 230.746 168.081 230.745H171.88C172.338 230.745 172.785 230.89 173.155 231.16C173.526 231.429 173.802 231.809 173.943 232.245C174.085 232.681 174.085 233.15 173.943 233.586C173.802 234.022 173.526 234.402 173.155 234.671L170.082 236.905C169.826 237.09 169.636 237.352 169.538 237.652C169.441 237.952 169.441 238.276 169.539 238.576L170.713 242.19C170.86 242.626 170.862 243.097 170.72 243.534C170.578 243.971 170.299 244.35 169.925 244.616C169.555 244.889 169.109 245.037 168.649 245.039Z" fill="#F5E200"/>
<path d="M199.794 245.039C199.335 245.037 198.888 244.889 198.519 244.616L195.445 242.383C195.19 242.197 194.883 242.096 194.567 242.096C194.251 242.096 193.944 242.197 193.689 242.383L190.615 244.616C190.244 244.886 189.798 245.031 189.34 245.031C188.882 245.031 188.435 244.886 188.065 244.617C187.694 244.347 187.418 243.967 187.276 243.531C187.135 243.096 187.135 242.626 187.276 242.19L188.45 238.576C188.548 238.276 188.549 237.952 188.451 237.652C188.353 237.352 188.163 237.09 187.907 236.905L184.834 234.671C184.463 234.402 184.187 234.022 184.046 233.586C183.904 233.15 183.904 232.681 184.046 232.245C184.187 231.809 184.463 231.429 184.834 231.16C185.204 230.89 185.651 230.745 186.109 230.745H189.908C190.224 230.746 190.532 230.646 190.787 230.46C191.042 230.275 191.232 230.013 191.329 229.712L192.503 226.098C192.645 225.663 192.921 225.283 193.291 225.013C193.662 224.744 194.109 224.599 194.567 224.599C195.025 224.599 195.471 224.744 195.842 225.013C196.213 225.283 196.489 225.663 196.63 226.098L197.804 229.712C197.901 230.013 198.091 230.275 198.347 230.46C198.602 230.646 198.91 230.746 199.226 230.745H203.024C203.483 230.745 203.929 230.89 204.3 231.16C204.67 231.429 204.946 231.809 205.088 232.245C205.229 232.681 205.229 233.15 205.088 233.586C204.946 234.022 204.67 234.402 204.3 234.671L201.226 236.905C200.971 237.09 200.78 237.352 200.683 237.652C200.585 237.952 200.585 238.276 200.684 238.576L201.858 242.19C202.004 242.626 202.007 243.097 201.865 243.534C201.723 243.971 201.444 244.35 201.069 244.616C200.7 244.889 200.253 245.037 199.794 245.039Z" fill="#F5E200"/>
<path d="M220.485 245.253C219.981 245.251 219.49 245.089 219.084 244.79C218.673 244.498 218.366 244.081 218.21 243.6C218.054 243.12 218.057 242.603 218.218 242.124L219.392 238.51C219.477 238.253 219.477 237.976 219.393 237.718C219.309 237.461 219.146 237.237 218.927 237.078L215.854 234.844C215.446 234.548 215.143 234.131 214.988 233.652C214.832 233.173 214.832 232.658 214.988 232.179C215.143 231.7 215.446 231.283 215.854 230.987C216.261 230.691 216.751 230.532 217.254 230.532H221.053C221.324 230.532 221.588 230.447 221.807 230.288C222.026 230.129 222.188 229.904 222.272 229.646L223.446 226.032C223.601 225.554 223.904 225.136 224.311 224.841C224.719 224.545 225.209 224.385 225.712 224.385C226.216 224.385 226.706 224.545 227.113 224.841C227.52 225.136 227.823 225.554 227.979 226.032L229.153 229.646C229.236 229.904 229.399 230.129 229.618 230.288C229.836 230.447 230.1 230.532 230.371 230.532H234.17C234.673 230.532 235.164 230.691 235.571 230.987C235.978 231.283 236.281 231.7 236.436 232.179C236.592 232.658 236.592 233.173 236.436 233.652C236.281 234.131 235.978 234.548 235.571 234.844L232.497 237.078C232.278 237.237 232.115 237.461 232.031 237.718C231.948 237.976 231.948 238.253 232.032 238.51L233.206 242.124C233.361 242.603 233.361 243.119 233.206 243.598C233.05 244.076 232.747 244.494 232.34 244.79C231.933 245.085 231.443 245.245 230.939 245.245C230.436 245.245 229.946 245.085 229.538 244.79L226.465 242.556C226.246 242.397 225.983 242.311 225.712 242.311C225.442 242.311 225.178 242.397 224.959 242.556L221.886 244.79C221.48 245.089 220.989 245.251 220.485 245.253ZM225.712 241.207C226.216 241.208 226.706 241.367 227.113 241.664L230.186 243.897C230.405 244.057 230.669 244.142 230.939 244.142C231.21 244.142 231.473 244.057 231.692 243.898C231.911 243.739 232.074 243.514 232.158 243.257C232.241 243 232.241 242.722 232.157 242.465L230.984 238.851C230.827 238.372 230.827 237.856 230.982 237.377C231.138 236.898 231.441 236.481 231.849 236.186L234.923 233.952C235.142 233.793 235.304 233.569 235.388 233.312C235.472 233.054 235.472 232.777 235.388 232.52C235.304 232.262 235.142 232.038 234.923 231.879C234.704 231.72 234.44 231.634 234.17 231.634H230.371C229.867 231.635 229.377 231.476 228.969 231.18C228.562 230.884 228.259 230.466 228.104 229.987L226.93 226.373C226.847 226.116 226.684 225.892 226.465 225.733C226.246 225.574 225.983 225.488 225.712 225.488C225.442 225.488 225.178 225.574 224.959 225.733C224.74 225.892 224.577 226.116 224.494 226.373L223.32 229.987C223.165 230.466 222.862 230.884 222.455 231.18C222.048 231.476 221.557 231.635 221.053 231.634H217.254C216.984 231.634 216.72 231.72 216.501 231.879C216.283 232.038 216.12 232.262 216.036 232.52C215.953 232.777 215.953 233.054 216.036 233.312C216.12 233.569 216.283 233.793 216.501 233.952L219.575 236.186C219.983 236.481 220.286 236.898 220.442 237.377C220.598 237.856 220.597 238.372 220.441 238.851L219.267 242.465C219.183 242.722 219.183 243 219.267 243.257C219.35 243.514 219.513 243.739 219.732 243.898C219.951 244.057 220.214 244.142 220.485 244.142C220.755 244.142 221.019 244.057 221.238 243.897L224.311 241.664C224.718 241.367 225.209 241.208 225.712 241.207Z" fill="#3F3D56"/>
<path d="M30.313 154.364C29.3628 154.364 28.4516 154.741 27.7798 155.413C27.1079 156.085 26.7305 156.997 26.7305 157.947C26.7305 158.898 27.1079 159.809 27.7798 160.481C28.4516 161.153 29.3628 161.531 30.313 161.531H211.643C212.593 161.531 213.504 161.153 214.176 160.481C214.848 159.809 215.225 158.898 215.225 157.947C215.225 156.997 214.848 156.085 214.176 155.413C213.504 154.741 212.593 154.364 211.643 154.364H30.313Z" fill="#CCCCCC"/>
<path d="M30.313 173.108C29.3628 173.108 28.4516 173.486 27.7798 174.158C27.1079 174.83 26.7305 175.741 26.7305 176.692C26.7305 177.642 27.1079 178.553 27.7798 179.225C28.4516 179.897 29.3628 180.275 30.313 180.275H211.643C212.593 180.275 213.504 179.897 214.176 179.225C214.848 178.553 215.225 177.642 215.225 176.692C215.225 175.741 214.848 174.83 214.176 174.158C213.504 173.486 212.593 173.108 211.643 173.108H30.313Z" fill="#CCCCCC"/>
<path d="M30.313 191.852C29.3628 191.852 28.4516 192.23 27.7798 192.902C27.1079 193.574 26.7305 194.485 26.7305 195.436C26.7305 196.386 27.1079 197.298 27.7798 197.97C28.4516 198.642 29.3628 199.019 30.313 199.019H211.643C212.593 199.019 213.504 198.642 214.176 197.97C214.848 197.298 215.225 196.386 215.225 195.436C215.225 194.485 214.848 193.574 214.176 192.902C213.504 192.23 212.593 191.852 211.643 191.852H30.313Z" fill="#CCCCCC"/>
<path d="M30.313 154.364C29.3628 154.364 28.4516 154.741 27.7798 155.413C27.1079 156.085 26.7305 156.997 26.7305 157.947C26.7305 158.898 27.1079 159.809 27.7798 160.481C28.4516 161.153 29.3628 161.531 30.313 161.531H211.643C212.593 161.531 213.504 161.153 214.176 160.481C214.848 159.809 215.225 158.898 215.225 157.947C215.225 156.997 214.848 156.085 214.176 155.413C213.504 154.741 212.593 154.364 211.643 154.364H30.313Z" fill="#CCCCCC"/>
<path d="M30.313 173.108C29.3628 173.108 28.4516 173.486 27.7798 174.158C27.1079 174.83 26.7305 175.741 26.7305 176.692C26.7305 177.642 27.1079 178.553 27.7798 179.225C28.4516 179.897 29.3628 180.275 30.313 180.275H211.643C212.593 180.275 213.504 179.897 214.176 179.225C214.848 178.553 215.225 177.642 215.225 176.692C215.225 175.741 214.848 174.83 214.176 174.158C213.504 173.486 212.593 173.108 211.643 173.108H30.313Z" fill="#CCCCCC"/>
<path d="M30.313 191.852C29.3628 191.852 28.4516 192.23 27.7798 192.902C27.1079 193.574 26.7305 194.485 26.7305 195.436C26.7305 196.386 27.1079 197.298 27.7798 197.97C28.4516 198.642 29.3628 199.019 30.313 199.019H211.643C212.593 199.019 213.504 198.642 214.176 197.97C214.848 197.298 215.225 196.386 215.225 195.436C215.225 194.485 214.848 193.574 214.176 192.902C213.504 192.23 212.593 191.852 211.643 191.852H30.313Z" fill="#CCCCCC"/>
<path d="M238.099 77.7332H3.85808C2.83521 77.732 1.85456 77.3251 1.13127 76.6016C0.407991 75.8781 0.00114807 74.8972 0 73.8741V3.85909C0.00114807 2.83595 0.407991 1.85504 1.13127 1.13157C1.85456 0.408098 2.83521 0.00114837 3.85808 0H238.099C239.122 0.00114691 240.102 0.408098 240.826 1.13157C241.549 1.85504 241.956 2.83595 241.957 3.85909V73.8741C241.956 74.8972 241.549 75.8781 240.826 76.6016C240.102 77.3251 239.122 77.732 238.099 77.7332ZM3.85808 1.1026C3.12747 1.10344 2.42702 1.39413 1.9104 1.91089C1.39377 2.42765 1.10316 3.12828 1.10231 3.85909V73.8741C1.10316 74.6049 1.39377 75.3055 1.9104 75.8223C2.42702 76.339 3.12747 76.6297 3.85808 76.6306H238.099C238.83 76.6297 239.53 76.339 240.047 75.8223C240.563 75.3055 240.854 74.6049 240.855 73.8741V3.85909C240.854 3.12828 240.563 2.42764 240.047 1.91088C239.53 1.39412 238.83 1.10343 238.099 1.1026H3.85808Z" fill="#6C63FF"/>
<path d="M106.359 107.214C105.899 107.212 105.453 107.064 105.083 106.792L102.01 104.558C101.755 104.372 101.447 104.271 101.131 104.271C100.816 104.271 100.508 104.372 100.253 104.558L97.1795 106.792C96.8088 107.061 96.3624 107.206 95.9043 107.206C95.4461 107.206 94.9997 107.061 94.629 106.792C94.2583 106.522 93.9824 106.143 93.8408 105.707C93.6991 105.271 93.6991 104.801 93.8406 104.366L95.0146 100.752C95.1128 100.451 95.1131 100.128 95.0155 99.8273C94.918 99.5269 94.7276 99.2652 94.4718 99.08L91.3983 96.8465C91.0276 96.5771 90.7517 96.1972 90.6101 95.7614C90.4685 95.3255 90.4685 94.856 90.6101 94.4201C90.7517 93.9842 91.0276 93.6044 91.3983 93.335C91.7689 93.0656 92.2153 92.9205 92.6735 92.9205H96.4726C96.7884 92.9211 97.0961 92.8214 97.3515 92.6358C97.607 92.4501 97.7969 92.1882 97.8939 91.8877L99.0677 88.2737C99.2093 87.8378 99.4852 87.4579 99.8559 87.1885C100.227 86.9191 100.673 86.7739 101.131 86.7739C101.59 86.7739 102.036 86.9191 102.407 87.1885C102.777 87.4579 103.053 87.8378 103.195 88.2737L104.369 91.8877C104.466 92.1882 104.656 92.4501 104.911 92.6358C105.167 92.8214 105.474 92.9211 105.79 92.9205H109.589C110.047 92.9205 110.494 93.0656 110.864 93.335C111.235 93.6044 111.511 93.9843 111.652 94.4201C111.794 94.856 111.794 95.3255 111.652 95.7614C111.511 96.1972 111.235 96.5771 110.864 96.8465L107.791 99.08C107.535 99.2652 107.345 99.5269 107.247 99.8273C107.15 100.128 107.15 100.451 107.248 100.752L108.422 104.366C108.569 104.801 108.571 105.272 108.429 105.709C108.287 106.146 108.008 106.526 107.634 106.792C107.264 107.064 106.818 107.212 106.359 107.214Z" fill="#F5E200"/>
<path d="M137.505 107.214C137.046 107.212 136.599 107.064 136.229 106.792L133.156 104.558C132.901 104.372 132.593 104.271 132.278 104.271C131.962 104.271 131.654 104.372 131.399 104.558L128.326 106.792C127.955 107.061 127.509 107.206 127.051 107.206C126.592 107.206 126.146 107.061 125.775 106.792C125.405 106.522 125.129 106.143 124.987 105.707C124.845 105.271 124.845 104.801 124.987 104.366L126.161 100.752C126.259 100.451 126.259 100.128 126.162 99.8273C126.064 99.5269 125.874 99.2652 125.618 99.08L122.545 96.8465C122.174 96.577 121.898 96.1972 121.757 95.7613C121.615 95.3254 121.615 94.8559 121.757 94.4201C121.898 93.9842 122.174 93.6044 122.545 93.335C122.915 93.0656 123.362 92.9205 123.82 92.9205H127.619C127.935 92.9211 128.242 92.8214 128.498 92.6358C128.753 92.4501 128.943 92.1882 129.04 91.8877L130.214 88.2737C130.356 87.8378 130.632 87.4579 131.002 87.1885C131.373 86.919 131.819 86.7739 132.278 86.7739C132.736 86.7739 133.182 86.919 133.553 87.1885C133.924 87.4579 134.2 87.8378 134.341 88.2737L135.515 91.8877C135.612 92.1882 135.802 92.4502 136.057 92.6358C136.313 92.8214 136.621 92.9211 136.936 92.9205H140.735C141.194 92.9205 141.64 93.0656 142.011 93.335C142.381 93.6044 142.657 93.9842 142.799 94.4201C142.94 94.8559 142.94 95.3254 142.799 95.7613C142.657 96.1972 142.381 96.577 142.011 96.8465L138.937 99.08C138.681 99.2652 138.491 99.5268 138.393 99.8273C138.296 100.128 138.296 100.451 138.394 100.752L139.568 104.366C139.715 104.801 139.718 105.272 139.576 105.709C139.434 106.146 139.155 106.526 138.78 106.792C138.411 107.064 137.964 107.212 137.505 107.214Z" fill="#F5E200"/>
<path d="M168.649 107.214C168.19 107.212 167.744 107.064 167.374 106.792L164.301 104.558C164.045 104.372 163.738 104.272 163.422 104.272C163.107 104.272 162.799 104.372 162.544 104.558L159.47 106.792C159.1 107.061 158.653 107.206 158.195 107.206C157.737 107.206 157.291 107.061 156.92 106.792C156.549 106.522 156.273 106.143 156.132 105.707C155.99 105.271 155.99 104.801 156.132 104.366L157.305 100.752C157.404 100.451 157.404 100.128 157.306 99.8273C157.209 99.5269 157.018 99.2652 156.763 99.08L153.689 96.8465C153.319 96.577 153.043 96.1972 152.901 95.7613C152.76 95.3254 152.76 94.8559 152.901 94.4201C153.043 93.9842 153.319 93.6044 153.689 93.335C154.06 93.0656 154.506 92.9205 154.965 92.9205H158.763C159.079 92.9211 159.387 92.8214 159.642 92.6358C159.898 92.4501 160.088 92.1882 160.185 91.8877L161.359 88.2737C161.5 87.8378 161.776 87.4579 162.147 87.1885C162.518 86.919 162.964 86.7739 163.422 86.7739C163.88 86.7739 164.327 86.919 164.698 87.1885C165.068 87.4579 165.344 87.8378 165.486 88.2737L166.66 91.8877C166.757 92.1882 166.947 92.4501 167.202 92.6358C167.458 92.8214 167.765 92.9211 168.081 92.9205H171.88C172.338 92.9205 172.785 93.0656 173.155 93.335C173.526 93.6044 173.802 93.9842 173.943 94.4201C174.085 94.8559 174.085 95.3254 173.943 95.7613C173.802 96.1972 173.526 96.577 173.155 96.8465L170.082 99.08C169.826 99.2652 169.636 99.5269 169.538 99.8273C169.441 100.128 169.441 100.451 169.539 100.752L170.713 104.366C170.86 104.801 170.862 105.272 170.72 105.709C170.578 106.146 170.299 106.526 169.925 106.792C169.555 107.064 169.109 107.212 168.649 107.214Z" fill="#F5E200"/>
<path d="M220.485 107.428C219.981 107.426 219.49 107.264 219.084 106.965C218.673 106.672 218.366 106.255 218.21 105.775C218.054 105.295 218.057 104.778 218.218 104.299L219.392 100.685C219.477 100.428 219.477 100.151 219.393 99.8933C219.309 99.6359 219.146 99.4117 218.927 99.253L215.854 97.0193C215.446 96.7234 215.143 96.3062 214.988 95.8274C214.832 95.3486 214.832 94.8328 214.988 94.354C215.143 93.8753 215.446 93.458 215.854 93.1621C216.261 92.8662 216.751 92.7069 217.254 92.7069H221.053C221.324 92.7074 221.588 92.6219 221.807 92.4628C222.026 92.3037 222.188 92.0791 222.272 91.8215L223.446 88.2077C223.601 87.7289 223.904 87.3117 224.311 87.0158C224.719 86.7199 225.209 86.5605 225.712 86.5605C226.216 86.5605 226.706 86.7199 227.113 87.0158C227.52 87.3117 227.823 87.7289 227.979 88.2077L229.153 91.8215C229.236 92.0791 229.399 92.3037 229.618 92.4628C229.836 92.6219 230.1 92.7074 230.371 92.7069H234.17C234.673 92.7069 235.164 92.8663 235.571 93.1622C235.978 93.4581 236.281 93.8753 236.436 94.3541C236.592 94.8329 236.592 95.3486 236.436 95.8274C236.281 96.3061 235.978 96.7234 235.571 97.0193L232.497 99.253C232.278 99.4116 232.115 99.6359 232.031 99.8933C231.948 100.151 231.948 100.428 232.032 100.685L233.206 104.299C233.361 104.778 233.361 105.294 233.206 105.772C233.05 106.251 232.747 106.668 232.34 106.964C231.933 107.26 231.443 107.42 230.939 107.42C230.436 107.42 229.946 107.26 229.538 106.964L226.465 104.731C226.246 104.571 225.983 104.485 225.712 104.485C225.442 104.485 225.178 104.571 224.959 104.731L221.886 106.964C221.48 107.264 220.989 107.426 220.485 107.428ZM225.712 103.382C226.216 103.382 226.706 103.542 227.113 103.839L230.186 106.072C230.405 106.231 230.669 106.317 230.939 106.317C231.21 106.317 231.473 106.232 231.692 106.073C231.911 105.914 232.074 105.689 232.158 105.432C232.241 105.175 232.241 104.897 232.157 104.64L230.984 101.026C230.827 100.547 230.827 100.031 230.982 99.5524C231.138 99.0734 231.441 98.6562 231.849 98.3609L234.923 96.1272C235.142 95.9682 235.304 95.7439 235.388 95.4866C235.472 95.2293 235.472 94.9521 235.388 94.6948C235.304 94.4375 235.142 94.2133 234.923 94.0542C234.704 93.8952 234.44 93.8095 234.17 93.8095H230.371C229.867 93.8105 229.377 93.6515 228.969 93.3554C228.562 93.0594 228.259 92.6416 228.104 92.1624L226.93 88.5485C226.847 88.2912 226.684 88.0669 226.465 87.9079C226.246 87.7488 225.983 87.6631 225.712 87.6631C225.442 87.6631 225.178 87.7488 224.959 87.9079C224.74 88.0669 224.577 88.2912 224.494 88.5485L223.32 92.1624C223.165 92.6416 222.862 93.0594 222.455 93.3554C222.048 93.6515 221.557 93.8105 221.053 93.8095H217.254C216.984 93.8095 216.72 93.8951 216.501 94.0542C216.283 94.2132 216.12 94.4374 216.036 94.6948C215.953 94.9521 215.953 95.2293 216.036 95.4866C216.12 95.7439 216.283 95.9682 216.501 96.1272L219.575 98.3609C219.983 98.6562 220.286 99.0735 220.442 99.5524C220.598 100.031 220.597 100.547 220.441 101.026L219.267 104.64C219.183 104.897 219.183 105.174 219.267 105.432C219.35 105.689 219.513 105.913 219.732 106.072C219.951 106.231 220.214 106.317 220.485 106.317C220.755 106.317 221.019 106.231 221.238 106.072L224.311 103.839C224.718 103.542 225.209 103.382 225.712 103.382Z" fill="#3F3D56"/>
<path d="M189.069 107.34C188.565 107.338 188.074 107.175 187.668 106.876C187.257 106.584 186.95 106.167 186.794 105.687C186.638 105.207 186.641 104.689 186.802 104.211L187.976 100.597C188.06 100.34 188.061 100.062 187.977 99.8049C187.893 99.5475 187.73 99.3232 187.511 99.1645L184.437 96.9308C184.03 96.6349 183.727 96.2176 183.572 95.7388C183.416 95.26 183.416 94.7443 183.572 94.2655C183.727 93.7867 184.03 93.3695 184.438 93.0736C184.845 92.7777 185.335 92.6183 185.838 92.6184H189.637C189.908 92.6189 190.172 92.5334 190.391 92.3743C190.61 92.2151 190.772 91.9906 190.855 91.733L192.03 88.1191C192.185 87.6403 192.488 87.2231 192.895 86.9272C193.303 86.6313 193.793 86.4719 194.296 86.4719C194.8 86.4719 195.29 86.6313 195.697 86.9272C196.104 87.2231 196.407 87.6403 196.563 88.1191L197.737 91.733C197.82 91.9906 197.983 92.2151 198.202 92.3742C198.42 92.5334 198.684 92.6188 198.955 92.6184H202.754C203.257 92.6184 203.748 92.7778 204.155 93.0737C204.562 93.3696 204.865 93.7868 205.02 94.2656C205.176 94.7443 205.176 95.2601 205.02 95.7388C204.865 96.2176 204.562 96.6349 204.155 96.9308L201.081 99.1645C200.862 99.3232 200.699 99.5474 200.615 99.8048C200.532 100.062 200.532 100.34 200.616 100.597L201.79 104.211C201.945 104.69 201.945 105.205 201.79 105.684C201.634 106.163 201.331 106.58 200.924 106.876C200.517 107.172 200.026 107.331 199.523 107.331C199.02 107.331 198.53 107.172 198.122 106.876L195.049 104.643C194.83 104.483 194.567 104.397 194.296 104.397C194.025 104.397 193.762 104.483 193.543 104.643L190.47 106.876C190.064 107.175 189.573 107.338 189.069 107.34ZM194.296 103.294C194.8 103.294 195.29 103.454 195.697 103.75L198.77 105.984C198.989 106.143 199.253 106.229 199.523 106.229C199.794 106.229 200.057 106.143 200.276 105.984C200.495 105.825 200.658 105.601 200.741 105.343C200.825 105.086 200.825 104.809 200.741 104.552L199.568 100.938C199.411 100.459 199.411 99.9429 199.566 99.4639C199.722 98.9849 200.025 98.5677 200.433 98.2724L203.507 96.0387C203.726 95.8797 203.888 95.6554 203.972 95.3981C204.056 95.1408 204.056 94.8636 203.972 94.6063C203.888 94.3489 203.725 94.1247 203.507 93.9657C203.288 93.8066 203.024 93.721 202.754 93.721H198.955C198.451 93.7219 197.961 93.5629 197.553 93.2669C197.146 92.9708 196.843 92.5531 196.688 92.0738L195.514 88.4599C195.431 88.2026 195.268 87.9783 195.049 87.8192C194.83 87.6602 194.567 87.5745 194.296 87.5745C194.026 87.5745 193.762 87.6602 193.543 87.8192C193.324 87.9783 193.161 88.2026 193.078 88.4599L191.904 92.0738C191.749 92.5531 191.446 92.9708 191.039 93.2669C190.632 93.5629 190.141 93.7219 189.637 93.721H185.838C185.568 93.721 185.304 93.8066 185.086 93.9656C184.867 94.1247 184.704 94.3489 184.62 94.6062C184.537 94.8635 184.537 95.1407 184.62 95.3981C184.704 95.6554 184.867 95.8797 185.085 96.0387L188.159 98.2724C188.567 98.5678 188.87 98.985 189.026 99.464C189.182 99.9429 189.181 100.459 189.025 100.938L187.851 104.552C187.767 104.809 187.767 105.086 187.851 105.343C187.934 105.601 188.097 105.825 188.316 105.984C188.535 106.143 188.798 106.229 189.069 106.229C189.339 106.229 189.603 106.143 189.822 105.984L192.895 103.75C193.302 103.454 193.793 103.294 194.296 103.294Z" fill="#3F3D56"/>
<path d="M30.313 16.5391C29.3628 16.5391 28.4516 16.9166 27.7798 17.5886C27.1079 18.2607 26.7305 19.1722 26.7305 20.1226C26.7305 21.073 27.1079 21.9844 27.7798 22.6565C28.4516 23.3285 29.3628 23.7061 30.313 23.7061H211.643C212.593 23.7061 213.504 23.3285 214.176 22.6565C214.848 21.9844 215.225 21.073 215.225 20.1226C215.225 19.1722 214.848 18.2607 214.176 17.5886C213.504 16.9166 212.593 16.5391 211.643 16.5391H30.313Z" fill="#CCCCCC"/>
<path d="M30.313 35.2832C29.3628 35.2832 28.4516 35.6607 27.7798 36.3328C27.1079 37.0048 26.7305 37.9162 26.7305 38.8666C26.7305 39.8169 27.1079 40.7284 27.7798 41.4004C28.4516 42.0724 29.3628 42.45 30.313 42.45H211.643C212.593 42.45 213.504 42.0724 214.176 41.4004C214.848 40.7284 215.225 39.8169 215.225 38.8666C215.225 37.9162 214.848 37.0048 214.176 36.3328C213.504 35.6607 212.593 35.2832 211.643 35.2832H30.313Z" fill="#CCCCCC"/>
<path d="M30.313 54.0273C29.3628 54.0273 28.4516 54.4049 27.7798 55.0769C27.1079 55.7489 26.7305 56.6603 26.7305 57.6107C26.7305 58.5611 27.1079 59.4725 27.7798 60.1445C28.4516 60.8166 29.3628 61.1941 30.313 61.1941H211.643C212.593 61.1941 213.504 60.8166 214.176 60.1445C214.848 59.4725 215.225 58.5611 215.225 57.6107C215.225 56.6603 214.848 55.7489 214.176 55.0769C213.504 54.4049 212.593 54.0273 211.643 54.0273H30.313Z" fill="#CCCCCC"/>
<path d="M30.313 16.5391C29.3628 16.5391 28.4516 16.9166 27.7798 17.5886C27.1079 18.2607 26.7305 19.1722 26.7305 20.1226C26.7305 21.073 27.1079 21.9844 27.7798 22.6565C28.4516 23.3285 29.3628 23.7061 30.313 23.7061H211.643C212.593 23.7061 213.504 23.3285 214.176 22.6565C214.848 21.9844 215.225 21.073 215.225 20.1226C215.225 19.1722 214.848 18.2607 214.176 17.5886C213.504 16.9166 212.593 16.5391 211.643 16.5391H30.313Z" fill="#CCCCCC"/>
<path d="M30.313 35.2832C29.3628 35.2832 28.4516 35.6607 27.7798 36.3328C27.1079 37.0048 26.7305 37.9162 26.7305 38.8666C26.7305 39.8169 27.1079 40.7284 27.7798 41.4004C28.4516 42.0724 29.3628 42.45 30.313 42.45H211.643C212.593 42.45 213.504 42.0724 214.176 41.4004C214.848 40.7284 215.225 39.8169 215.225 38.8666C215.225 37.9162 214.848 37.0048 214.176 36.3328C213.504 35.6607 212.593 35.2832 211.643 35.2832H30.313Z" fill="#CCCCCC"/>
<path d="M30.313 54.0273C29.3628 54.0273 28.4516 54.4049 27.7798 55.0769C27.1079 55.7489 26.7305 56.6603 26.7305 57.6107C26.7305 58.5611 27.1079 59.4725 27.7798 60.1445C28.4516 60.8166 29.3628 61.1941 30.313 61.1941H211.643C212.593 61.1941 213.504 60.8166 214.176 60.1445C214.848 59.4725 215.225 58.5611 215.225 57.6107C215.225 56.6603 214.848 55.7489 214.176 55.0769C213.504 54.4049 212.593 54.0273 211.643 54.0273H30.313Z" fill="#CCCCCC"/>
</svg>
