<svg width="588" height="376" viewBox="0 0 588 376" fill="none" xmlns="http://www.w3.org/2000/svg">
<path d="M104.732 372.111C110.344 367.359 113.752 359.853 112.858 352.546C111.964 345.238 106.428 338.521 99.246 336.969C92.0642 335.417 83.8775 339.713 81.6962 346.743C80.4957 333.189 79.1123 319.068 71.9212 307.526C65.4099 297.075 54.1321 289.597 41.9095 288.259C29.687 286.921 16.8182 291.974 9.19541 301.641C1.57264 311.308 -0.293778 325.362 5.04501 336.46C8.97791 344.636 16.2237 350.721 23.8155 355.671C48.3473 371.532 77.7699 377.982 106.67 373.834L104.732 372.111Z" fill="#F5E200"/>
<path d="M21.9939 292.325C31.9389 300.533 41.0624 309.713 49.2324 319.732C57.4037 329.741 64.5976 340.53 70.7131 351.946C74.1315 358.35 77.2022 364.939 79.9117 371.682C80.4641 373.054 78.2659 373.651 77.7196 372.295C72.9204 360.406 66.983 349.023 59.9924 338.308C53.0357 327.632 45.0734 317.665 36.2173 308.547C31.2083 303.392 25.9234 298.52 20.3865 293.954C19.2516 293.017 20.8684 291.396 21.9939 292.325Z" fill="white"/>
<path d="M439.627 0H135.373C134.214 0.00128724 133.102 0.462707 132.282 1.28303C131.462 2.10336 131.001 3.21559 131 4.37571V210.659C131.001 211.819 131.462 212.931 132.282 213.752C133.102 214.572 134.214 215.033 135.373 215.035H439.627C440.786 215.033 441.898 214.572 442.718 213.752C443.538 212.931 443.999 211.819 444 210.659V4.37571C443.999 3.21559 443.538 2.10336 442.718 1.28303C441.898 0.462707 440.786 0.00128724 439.627 0ZM442.75 210.659C442.75 211.488 442.421 212.283 441.835 212.869C441.249 213.455 440.455 213.784 439.627 213.785H135.373C134.545 213.784 133.751 213.455 133.165 212.869C132.579 212.283 132.25 211.488 132.25 210.659V4.37571C132.25 3.54687 132.579 2.75208 133.165 2.16601C133.751 1.57994 134.545 1.25053 135.373 1.2502H439.627C440.455 1.25053 441.249 1.57994 441.835 2.16601C442.421 2.75208 442.75 3.54687 442.75 4.37571V210.659Z" fill="#29399B"/>
<path d="M443 17.0027H132V18.0027H443V17.0027Z" fill="#29399B"/>
<path d="M142.5 13.0021C144.433 13.0021 146 11.4349 146 9.50156C146 7.56824 144.433 6.00098 142.5 6.00098C140.567 6.00098 139 7.56824 139 9.50156C139 11.4349 140.567 13.0021 142.5 13.0021Z" fill="#FC4732"/>
<path d="M153.5 13.0021C155.433 13.0021 157 11.4349 157 9.50156C157 7.56824 155.433 6.00098 153.5 6.00098C151.567 6.00098 150 7.56824 150 9.50156C150 11.4349 151.567 13.0021 153.5 13.0021Z" fill="#F5E200"/>
<path d="M164.5 13.0021C166.433 13.0021 168 11.4349 168 9.50156C168 7.56824 166.433 6.00098 164.5 6.00098C162.567 6.00098 161 7.56824 161 9.50156C161 11.4349 162.567 13.0021 164.5 13.0021Z" fill="#00E132"/>
<path d="M313.643 47.0076H261.357C260.202 47.0076 259.093 46.5334 258.276 45.6893C257.459 44.8453 257 43.7005 257 42.5068C257 41.3132 257.459 40.1684 258.276 39.3243C259.093 38.4803 260.202 38.0061 261.357 38.0061H313.643C314.798 38.0061 315.907 38.4803 316.724 39.3243C317.541 40.1684 318 41.3132 318 42.5068C318 43.7005 317.541 44.8453 316.724 45.6893C315.907 46.5334 314.798 47.0076 313.643 47.0076Z" fill="#6C63FF" fill-opacity="0.3"/>
<path d="M349.629 68.011H225.371C224.212 68.011 223.1 67.5368 222.28 66.6928C221.461 65.8487 221 64.7039 221 63.5103C221 62.3166 221.461 61.1718 222.28 60.3278C223.1 59.4837 224.212 59.0095 225.371 59.0095H349.629C350.788 59.0095 351.9 59.4837 352.72 60.3278C353.54 61.1718 354 62.3166 354 63.5103C354 64.7039 353.54 65.8487 352.72 66.6928C351.9 67.5368 350.788 68.011 349.629 68.011Z" fill="#6C63FF" fill-opacity="0.3"/>
<path d="M386.5 198.032C381.852 198.032 377.309 196.624 373.444 193.987C369.58 191.349 366.567 187.6 364.789 183.214C363.01 178.828 362.545 174.002 363.452 169.345C364.358 164.689 366.596 160.412 369.883 157.055C373.17 153.698 377.357 151.412 381.915 150.486C386.474 149.559 391.199 150.035 395.493 151.851C399.787 153.668 403.457 156.745 406.04 160.692C408.622 164.64 410 169.281 410 174.028C409.993 180.392 407.515 186.493 403.109 190.994C398.704 195.494 392.73 198.025 386.5 198.032ZM386.5 151.68C382.173 151.68 377.943 152.99 374.344 155.446C370.746 157.902 367.942 161.392 366.286 165.476C364.63 169.559 364.197 174.053 365.041 178.388C365.885 182.723 367.969 186.705 371.029 189.831C374.089 192.956 377.987 195.085 382.232 195.947C386.476 196.81 390.875 196.367 394.873 194.675C398.871 192.984 402.288 190.119 404.692 186.444C407.096 182.769 408.379 178.448 408.379 174.028C408.373 168.103 406.065 162.423 401.964 158.233C397.862 154.043 392.301 151.686 386.5 151.68Z" fill="#29399B"/>
<path d="M187 134.022C182.253 134.022 177.613 132.614 173.666 129.976C169.72 127.339 166.643 123.59 164.827 119.204C163.01 114.818 162.535 109.991 163.461 105.335C164.387 100.679 166.673 96.4015 170.029 93.0445C173.386 89.6875 177.662 87.4014 182.318 86.4752C186.973 85.549 191.799 86.0243 196.184 87.8411C200.57 89.6579 204.318 92.7346 206.955 96.682C209.592 100.629 211 105.27 211 110.018C210.993 116.382 208.462 122.483 203.963 126.983C199.463 131.483 193.363 134.015 187 134.022ZM187 87.6694C182.581 87.6694 178.26 88.9801 174.586 91.4358C170.911 93.8914 168.047 97.3818 166.356 101.465C164.665 105.549 164.222 110.043 165.085 114.378C165.947 118.713 168.075 122.695 171.2 125.821C174.325 128.946 178.306 131.075 182.641 131.937C186.975 132.799 191.468 132.357 195.551 130.665C199.634 128.974 203.124 126.109 205.579 122.434C208.034 118.759 209.345 114.438 209.345 110.018C209.338 104.093 206.982 98.4122 202.793 94.2225C198.604 90.0328 192.924 87.6761 187 87.6694Z" fill="#29399B"/>
<path d="M196.57 123.02C195.924 123.02 195.306 122.775 194.849 122.339C194.393 121.902 194.136 121.311 194.135 120.693V107.461C194.135 106.844 194.392 106.252 194.847 105.816C195.303 105.38 195.921 105.135 196.565 105.134H196.57C197.214 105.135 197.832 105.38 198.287 105.816C198.743 106.252 198.999 106.844 199 107.461V120.693C198.999 121.31 198.743 121.901 198.287 122.337C197.832 122.774 197.214 123.019 196.57 123.02ZM190.223 123.02C189.902 123.023 189.582 122.965 189.284 122.85C188.986 122.734 188.714 122.563 188.485 122.347C188.256 122.131 188.074 121.873 187.949 121.59C187.824 121.306 187.759 121.001 187.758 120.693V113.565C187.759 112.948 188.015 112.357 188.471 111.921C188.926 111.484 189.544 111.239 190.188 111.239H190.223C190.868 111.239 191.486 111.484 191.941 111.921C192.397 112.357 192.653 112.948 192.654 113.565V120.693C192.653 121.31 192.397 121.901 191.941 122.337C191.486 122.774 190.868 123.019 190.223 123.02ZM183.816 123.02C183.171 123.02 182.552 122.775 182.096 122.339C181.639 121.902 181.382 121.311 181.381 120.693V100.343C181.382 99.7258 181.638 99.1344 182.094 98.6982C182.55 98.262 183.167 98.0166 183.812 98.0159H183.816C184.46 98.0166 185.078 98.262 185.534 98.6982C185.989 99.1344 186.246 99.7258 186.246 100.343V120.693C186.246 121.31 185.989 121.901 185.534 122.337C185.078 122.774 184.46 123.019 183.816 123.02ZM177.433 123.02C177.113 123.02 176.797 122.96 176.502 122.843C176.206 122.726 175.938 122.555 175.712 122.339C175.486 122.122 175.307 121.865 175.185 121.583C175.063 121.3 175 120.997 175 120.691L175.003 117.635C175.003 117.018 175.259 116.426 175.715 115.99C176.171 115.554 176.79 115.309 177.434 115.309C178.079 115.309 178.697 115.555 179.152 115.991C179.608 116.428 179.864 117.02 179.863 117.637V120.693C179.863 121.31 179.606 121.901 179.151 122.337C178.695 122.774 178.077 123.019 177.433 123.02Z" fill="#6C63FF"/>
<path d="M547.5 373.06C542.852 373.06 538.309 371.682 534.444 369.099C530.58 366.516 527.568 362.846 525.789 358.551C524.01 354.256 523.545 349.53 524.452 344.971C525.358 340.412 527.596 336.224 530.883 332.937C534.17 329.65 538.357 327.411 542.915 326.504C547.474 325.597 552.199 326.063 556.493 327.842C560.787 329.621 564.457 332.633 567.039 336.498C569.622 340.364 571 344.908 571 349.556C570.993 355.788 568.515 361.762 564.109 366.168C559.704 370.575 553.73 373.053 547.5 373.06ZM547.5 327.674C543.173 327.674 538.943 328.957 535.345 331.361C531.746 333.766 528.942 337.184 527.286 341.182C525.63 345.181 525.197 349.581 526.041 353.826C526.885 358.07 528.969 361.97 532.029 365.03C535.089 368.09 538.987 370.174 543.232 371.019C547.476 371.863 551.875 371.43 555.873 369.774C559.871 368.117 563.288 365.313 565.692 361.714C568.096 358.115 569.379 353.884 569.379 349.556C569.373 343.755 567.065 338.193 562.964 334.09C558.862 329.988 553.301 327.68 547.5 327.674Z" fill="#29399B"/>
<path d="M554.607 345.488L549.934 352.298C550.309 352.733 550.514 353.278 550.511 353.841C550.51 354.49 550.239 355.112 549.757 355.571C549.275 356.03 548.622 356.287 547.941 356.287C547.26 356.287 546.606 356.03 546.124 355.571C545.642 355.112 545.371 354.49 545.37 353.841C545.371 353.683 545.386 353.526 545.414 353.371L542.331 351.659C541.932 352.026 541.42 352.26 540.87 352.327C540.32 352.393 539.763 352.287 539.281 352.025L536 354.955V357.876C536.001 358.454 536.242 359.007 536.67 359.416C537.098 359.825 537.679 360.056 538.285 360.058H557.71C558.317 360.056 558.898 359.825 559.327 359.416C559.755 359.008 559.997 358.454 560 357.876V347.045L556.862 345.056C556.547 345.289 556.179 345.45 555.788 345.525C555.396 345.6 554.992 345.587 554.607 345.488H554.607Z" fill="#6C63FF"/>
<path d="M540.549 347.362C541.231 347.362 541.885 347.641 542.367 348.137C542.849 348.634 543.12 349.307 543.12 350.009V350.349L546.337 352.203C546.796 351.816 547.372 351.604 547.965 351.604C548.153 351.605 548.34 351.626 548.523 351.665L553.206 344.202C552.972 343.864 552.819 343.473 552.759 343.062C552.7 342.652 552.735 342.232 552.863 341.838C552.99 341.444 553.207 341.087 553.494 340.795C553.781 340.504 554.131 340.286 554.515 340.16C554.899 340.034 555.307 340.003 555.705 340.07C556.103 340.137 556.48 340.3 556.806 340.545C557.131 340.791 557.396 341.112 557.578 341.482C557.76 341.853 557.854 342.263 557.854 342.678C557.853 342.888 557.83 343.098 557.785 343.303L560 344.827V340.412C559.997 339.788 559.755 339.19 559.327 338.748C558.898 338.307 558.317 338.057 557.711 338.055H538.285C537.679 338.057 537.098 338.307 536.67 338.748C536.242 339.19 536.001 339.788 536 340.412V353.057L538.141 350.944C537.998 350.544 537.951 350.115 538.004 349.693C538.056 349.27 538.207 348.868 538.444 348.518C538.68 348.169 538.995 347.884 539.362 347.687C539.728 347.49 540.136 347.387 540.549 347.387V347.362Z" fill="#6C63FF"/>
<path d="M288 134.022C283.253 134.022 278.613 132.614 274.666 129.976C270.72 127.339 267.643 123.59 265.827 119.204C264.01 114.818 263.535 109.991 264.461 105.335C265.387 100.679 267.673 96.4015 271.029 93.0445C274.386 89.6875 278.662 87.4014 283.318 86.4752C287.973 85.549 292.799 86.0243 297.184 87.8411C301.57 89.6579 305.318 92.7346 307.955 96.682C310.592 100.629 312 105.27 312 110.018C311.993 116.382 309.462 122.483 304.963 126.983C300.463 131.483 294.363 134.015 288 134.022ZM288 87.6694C283.581 87.6694 279.26 88.9801 275.586 91.4358C271.911 93.8914 269.047 97.3818 267.356 101.465C265.665 105.549 265.222 110.043 266.085 114.378C266.947 118.713 269.075 122.695 272.2 125.821C275.325 128.946 279.306 131.075 283.641 131.937C287.975 132.799 292.468 132.357 296.551 130.665C300.634 128.974 304.124 126.109 306.579 122.434C309.034 118.759 310.345 114.438 310.345 110.018C310.338 104.093 307.982 98.4122 303.793 94.2225C299.604 90.0328 293.924 87.6761 288 87.6694Z" fill="#29399B"/>
<path d="M275.745 119.019C275.4 119.019 275.063 118.919 274.776 118.732C274.489 118.545 274.266 118.279 274.133 117.967C274.001 117.656 273.966 117.313 274.033 116.983C274.1 116.652 274.266 116.348 274.509 116.11L283.38 107.42C283.518 107.284 283.683 107.176 283.864 107.103C284.045 107.029 284.239 106.992 284.435 106.992H284.436C284.632 106.991 284.826 107.029 285.007 107.102C285.188 107.175 285.352 107.283 285.49 107.418L289.604 111.437C289.687 111.519 289.786 111.583 289.894 111.627C290.003 111.671 290.119 111.694 290.237 111.693H290.237C290.355 111.694 290.471 111.671 290.58 111.627C290.688 111.583 290.787 111.519 290.87 111.437L296.678 105.753C296.706 105.726 296.728 105.694 296.743 105.659C296.758 105.624 296.765 105.586 296.765 105.547C296.765 105.509 296.758 105.471 296.743 105.436C296.727 105.401 296.705 105.369 296.678 105.342L294.798 103.509C294.673 103.387 294.588 103.231 294.553 103.061C294.518 102.892 294.536 102.716 294.604 102.556C294.671 102.396 294.786 102.26 294.933 102.164C295.08 102.068 295.253 102.016 295.43 102.016H302.105C302.343 102.017 302.57 102.109 302.738 102.273C302.905 102.437 303 102.659 303 102.89V109.407C303 109.58 302.948 109.749 302.849 109.892C302.751 110.036 302.611 110.148 302.448 110.214C302.284 110.281 302.105 110.298 301.931 110.264C301.757 110.23 301.598 110.147 301.473 110.025L299.591 108.186C299.563 108.159 299.53 108.138 299.494 108.123C299.458 108.108 299.419 108.101 299.38 108.101C299.341 108.101 299.302 108.108 299.266 108.123C299.23 108.138 299.197 108.159 299.169 108.186L291.304 115.864C291.166 116 291.001 116.108 290.82 116.181C290.639 116.254 290.445 116.291 290.25 116.291H290.249C290.054 116.291 289.86 116.254 289.679 116.181C289.498 116.107 289.333 116 289.195 115.864L285.079 111.843C284.909 111.684 284.682 111.596 284.447 111.596C284.211 111.596 283.984 111.684 283.814 111.843L276.98 118.519C276.818 118.678 276.626 118.804 276.414 118.89C276.202 118.976 275.975 119.02 275.745 119.019Z" fill="#F5E200"/>
<path d="M288 196.032C283.253 196.032 278.613 194.653 274.666 192.071C270.72 189.488 267.643 185.817 265.827 181.522C264.01 177.228 263.535 172.502 264.461 167.942C265.387 163.383 267.673 159.195 271.029 155.908C274.386 152.621 278.662 150.383 283.318 149.476C287.973 148.569 292.799 149.034 297.184 150.813C301.57 152.592 305.318 155.605 307.955 159.47C310.592 163.335 312 167.879 312 172.528C311.993 178.759 309.462 184.733 304.963 189.14C300.463 193.546 294.363 196.025 288 196.032Z" fill="#6C63FF" fill-opacity="0.3"/>
<path d="M387 132.021C382.253 132.021 377.613 130.613 373.666 127.976C369.72 125.338 366.643 121.589 364.827 117.203C363.01 112.817 362.535 107.991 363.461 103.335C364.387 98.6782 366.673 94.4011 370.029 91.0441C373.386 87.6871 377.662 85.401 382.318 84.4748C386.973 83.5486 391.799 84.0239 396.184 85.8407C400.57 87.6575 404.318 90.7342 406.955 94.6816C409.592 98.629 411 103.27 411 108.017C410.993 114.381 408.462 120.483 403.963 124.983C399.463 129.483 393.363 132.014 387 132.021Z" fill="#6C63FF" fill-opacity="0.3"/>
<path d="M186.839 149.024C182.693 149.029 178.616 150.069 175 152.044C180.226 152.493 185.126 154.705 188.853 158.297C192.58 161.888 194.9 166.634 195.411 171.714C195.922 176.793 194.592 181.887 191.652 186.113C188.711 190.34 184.345 193.434 179.308 194.861C180.251 195.165 181.214 195.41 182.19 195.594C183.721 195.887 185.279 196.034 186.839 196.032C193.247 196.032 199.393 193.555 203.924 189.148C208.455 184.74 211 178.761 211 172.528C211 166.294 208.455 160.316 203.924 155.908C199.393 151.5 193.247 149.024 186.839 149.024Z" fill="#6C63FF" fill-opacity="0.3"/>
<path d="M178.042 150.477C176.555 150.173 175.041 150.021 173.524 150.024C167.488 150.018 161.682 152.384 157.307 156.632C152.933 160.88 150.327 166.685 150.029 172.843C149.731 179 151.764 185.039 155.706 189.708C159.649 194.376 165.199 197.315 171.206 197.917C177.213 198.519 183.216 196.737 187.972 192.94C192.727 189.144 195.87 183.623 196.749 177.524C197.628 171.424 196.176 165.213 192.693 160.178C189.21 155.142 183.964 151.669 178.042 150.477ZM179.63 195.442C176.624 196.335 173.465 196.558 170.367 196.096C167.269 195.634 164.304 194.497 161.674 192.763C159.043 191.029 156.808 188.738 155.119 186.045C153.431 183.352 152.328 180.32 151.886 177.154C151.445 173.988 151.674 170.762 152.559 167.694C153.444 164.627 154.963 161.789 157.015 159.374C159.067 156.958 161.603 155.021 164.451 153.693C167.299 152.365 170.393 151.678 173.524 151.678C174.171 151.678 174.811 151.709 175.445 151.76C180.523 152.218 185.284 154.474 188.905 158.139C192.527 161.803 194.781 166.645 195.277 171.827C195.774 177.009 194.482 182.206 191.625 186.518C188.767 190.83 184.525 193.987 179.63 195.442Z" fill="#29399B"/>
<path d="M187.801 170C187.021 166.687 184.918 163.809 181.953 161.998C178.987 160.188 175.402 159.592 171.984 160.343C171.65 160.416 171.305 160.507 171 160.598L174.152 174.028L188 170.977C187.941 170.665 187.877 170.324 187.801 170Z" fill="#F5E200"/>
<path d="M185.873 173.206L172.25 176.492L169.157 162.026C166.782 162.807 164.668 164.295 163.065 166.313C161.461 168.332 160.436 170.796 160.111 173.415C159.787 176.033 160.175 178.696 161.231 181.087C162.288 183.478 163.967 185.497 166.071 186.905C168.174 188.313 170.613 189.05 173.099 189.03C175.585 189.01 178.014 188.233 180.097 186.791C182.18 185.349 183.83 183.303 184.852 180.895C185.873 178.487 186.224 175.819 185.861 173.206H185.873Z" fill="#6C63FF"/>
<path d="M431.5 285.046C426.852 285.046 422.309 283.638 418.444 281.001C414.58 278.363 411.568 274.614 409.789 270.228C408.01 265.842 407.545 261.016 408.452 256.359C409.358 251.703 411.596 247.426 414.883 244.069C418.17 240.712 422.357 238.426 426.915 237.5C431.474 236.573 436.199 237.049 440.493 238.866C444.787 240.682 448.457 243.759 451.04 247.706C453.622 251.654 455 256.295 455 261.042C454.993 267.406 452.515 273.508 448.109 278.008C443.704 282.508 437.73 285.039 431.5 285.046ZM431.5 238.694C427.173 238.694 422.943 240.005 419.345 242.46C415.746 244.916 412.942 248.406 411.286 252.49C409.63 256.573 409.197 261.067 410.041 265.402C410.885 269.737 412.969 273.719 416.029 276.845C419.089 279.97 422.987 282.099 427.232 282.961C431.476 283.824 435.875 283.381 439.873 281.689C443.871 279.998 447.288 277.134 449.692 273.458C452.096 269.783 453.379 265.462 453.379 261.042C453.373 255.117 451.066 249.437 446.964 245.247C442.862 241.057 437.301 238.701 431.5 238.694Z" fill="#29399B"/>
<path d="M441.65 270.044C440.789 270.044 439.947 269.801 439.231 269.344C438.514 268.888 437.956 268.239 437.626 267.479C437.296 266.719 437.209 265.883 437.377 265.076C437.544 264.27 437.958 263.528 438.567 262.946C439.175 262.364 439.95 261.968 440.795 261.807C441.639 261.646 442.514 261.728 443.31 262.042C444.106 262.356 444.786 262.889 445.265 263.572C445.744 264.256 445.999 265.06 446 265.882C446 266.985 445.542 268.043 444.726 268.823C443.911 269.603 442.804 270.042 441.65 270.044ZM431.5 270.044C430.347 270.042 429.241 269.604 428.425 268.825C427.61 268.046 427.151 266.99 427.15 265.888V256.192C427.151 255.09 427.61 254.035 428.426 253.256C429.241 252.478 430.347 252.041 431.5 252.041C432.653 252.041 433.759 252.478 434.574 253.256C435.39 254.035 435.849 255.09 435.85 256.192V265.888C435.849 266.99 435.39 268.046 434.575 268.825C433.759 269.604 432.653 270.042 431.5 270.044ZM421.353 270.044C420.199 270.042 419.093 269.604 418.276 268.824C417.46 268.045 417.001 266.987 417 265.885V262.011C417 260.908 417.459 259.85 418.275 259.07C419.091 258.29 420.199 257.852 421.353 257.852C422.508 257.852 423.615 258.29 424.431 259.07C425.248 259.85 425.706 260.908 425.706 262.011V265.885C425.705 266.987 425.246 268.045 424.43 268.824C423.614 269.604 422.507 270.042 421.353 270.044Z" fill="#6C63FF"/>
<path d="M130.262 368.06L137.715 367.242L138 339.055L127 340.262L130.262 368.06Z" fill="#A0616A"/>
<path d="M152.281 372.322L129.514 374.906L128.515 366.108L142.486 364.522C144.819 364.258 147.162 364.931 148.999 366.393C150.836 367.856 152.017 369.989 152.281 372.322L152.281 372.322Z" fill="#2F2E41"/>
<path d="M56.0012 368.06L62.7769 368.059L66 339.055L56 339.055L56.0012 368.06Z" fill="#A0616A"/>
<path d="M77.1523 374.32L54.2386 374.321L54.2382 365.466L68.2989 365.466C70.6469 365.465 72.8987 366.398 74.5591 368.059C76.2194 369.719 77.1522 371.971 77.1523 374.32L77.1523 374.32Z" fill="#2F2E41"/>
<path d="M108.226 241.53L112.397 255.067L135.041 303.956L141 350.329L127.295 350.924L118.952 308.118L90.3493 277.202L65.3219 358.058L54 356.869C54 356.869 63.5343 252.232 76.6439 241.53C76.6438 241.53 98.0959 231.423 108.226 241.53Z" fill="#3A3A3A"/>
<path d="M89.5 183.03C97.5081 183.03 104 176.537 104 168.527C104 160.518 97.5081 154.025 89.5 154.025C81.4919 154.025 75 160.518 75 168.527C75 176.537 81.4919 183.03 89.5 183.03Z" fill="#A0616A"/>
<path d="M108.973 244.43C108.973 244.43 110.715 184.093 86.3262 188.234C61.9377 192.375 72.0996 250.641 72.0996 250.641C72.0996 250.641 77.3257 261.289 90.1007 249.458C102.876 237.627 108.973 244.43 108.973 244.43Z" fill="#29399B"/>
<path d="M162 193.505C161.511 194.26 160.859 194.9 160.09 195.38C159.321 195.861 158.454 196.17 157.55 196.287C156.646 196.404 155.726 196.325 154.857 196.056C153.987 195.787 153.188 195.334 152.516 194.73L133 205.033L134.022 193.789L152.398 185.729C153.509 184.69 154.97 184.087 156.504 184.034C158.039 183.98 159.54 184.48 160.724 185.438C161.907 186.397 162.691 187.747 162.926 189.234C163.161 190.721 162.832 192.241 162 193.505L162 193.505Z" fill="#A0616A"/>
<path d="M89.679 195.455L120.346 200.395L147.828 188.03L152 196.534L121.915 214.797C121.915 214.797 90.0647 216.858 82.7008 208.853C79.9394 205.851 79.6237 203.118 80.3078 200.876C80.9071 199.038 82.1905 197.473 83.9165 196.474C85.6425 195.476 87.692 195.113 89.679 195.455Z" fill="#29399B"/>
<path d="M88.4054 184.077C88.4754 184.015 88.5298 183.937 88.5643 183.85C88.5988 183.763 88.6124 183.669 88.6041 183.576C88.5959 183.482 88.5659 183.392 88.5165 183.313C88.4672 183.233 88.3999 183.166 88.32 183.116C87.0188 182.313 85.9587 181.176 85.251 179.824C84.5433 178.472 84.2141 176.954 84.2981 175.432C84.3821 173.909 84.8761 172.437 85.7283 171.17C86.5805 169.903 87.7593 168.888 89.141 168.232C93.449 166.185 99.2866 167.778 102.471 163.845C103.119 163.003 103.577 162.032 103.814 160.999C104.051 159.965 104.062 158.892 103.845 157.854C103.158 154.139 100.355 151.38 97.2167 149.49C93.3612 147.167 88.93 145.967 84.4251 146.026C79.9202 146.084 75.5218 147.398 71.7282 149.82C67.9346 152.242 64.8975 155.674 62.961 159.727C61.0245 163.781 60.266 168.293 60.7715 172.754C61.1766 176.33 62.2837 180.339 60.1503 183.242C58.2726 185.796 54.7284 186.275 51.615 186.91C44.9373 188.272 38.4949 191.413 33.9633 196.486C29.4317 201.56 27.0142 208.678 28.3805 215.332C29.7468 221.986 35.2282 227.834 41.9652 228.865C47.4489 229.705 53.1112 227.384 57.1381 223.582C61.165 219.779 63.7104 214.643 65.3159 209.352C67.2215 203.071 67.9732 196.302 71.4135 190.707C74.7802 185.232 82.0352 181.308 87.7213 184.159C87.8303 184.216 87.954 184.238 88.0761 184.224C88.1981 184.209 88.3129 184.158 88.4054 184.077Z" fill="#3A3A3A"/>
<path d="M511.445 291.399C512.202 291.009 512.868 290.451 513.395 289.766C513.921 289.081 514.297 288.284 514.494 287.432C514.691 286.581 514.706 285.695 514.537 284.837C514.367 283.978 514.018 283.169 513.514 282.466L527 205.205L514.415 205.033L505.05 281.434C503.965 282.389 503.256 283.723 503.057 285.183C502.858 286.643 503.184 288.128 503.972 289.357C504.76 290.585 505.956 291.471 507.333 291.848C508.711 292.224 510.174 292.064 511.445 291.399H511.445Z" fill="#FFB8B8"/>
<path d="M469.941 289.047L465 312.53L465.618 365.059H474.882L479.206 313.766L486 292.137L469.941 289.047Z" fill="#FFB8B8"/>
<path d="M500.941 291.047L496 314.53L496.618 367.059H505.882L510.206 315.766L517 294.137L500.941 291.047Z" fill="#FFB8B8"/>
<path d="M462.799 364.579L477.533 364.542L477.557 373.821L453.545 373.881C453.542 372.662 453.779 371.455 454.242 370.328C454.705 369.201 455.386 368.177 456.246 367.313C457.105 366.449 458.126 365.763 459.25 365.294C460.375 364.825 461.581 364.582 462.799 364.579Z" fill="#2F2E41"/>
<path d="M493.922 365.581L508.656 365.544L508.68 374.822L484.668 374.883C484.665 373.664 484.902 372.457 485.365 371.33C485.828 370.203 486.509 369.179 487.369 368.315C488.228 367.451 489.249 366.765 490.373 366.296C491.498 365.827 492.704 365.584 493.922 365.581Z" fill="#2F2E41"/>
<path d="M493 172.028C501.284 172.028 508 165.311 508 157.025C508 148.74 501.284 142.023 493 142.023C484.716 142.023 478 148.74 478 157.025C478 165.311 484.716 172.028 493 172.028Z" fill="#FFB8B8"/>
<path d="M526.742 194.678C522.135 187.389 507.667 170.103 486.14 180.025C484.444 180.816 483.028 182.111 482.084 183.737C481.139 185.363 480.711 187.241 480.857 189.119C481.899 202.981 483.213 238.298 472 259.432C472 259.432 504.681 269.378 522.563 260.054C522.563 260.054 516.397 218.405 522.563 210.323C524.619 207.741 526.284 204.866 527.504 201.791C527.932 200.627 528.086 199.378 527.954 198.144C527.822 196.91 527.407 195.723 526.742 194.678Z" fill="#F5E200"/>
<path d="M521.318 194.031L527.117 196.711C527.503 196.889 527.835 197.186 528.074 197.566C528.314 197.947 528.45 198.395 528.467 198.859L529 213.034L516 211.724L521.318 194.031Z" fill="#F5E200"/>
<path d="M473.564 259.042C473.564 259.042 459.802 284.313 462.304 307.736L481.696 310.818L495.459 278.15L492.331 311.434L512.349 312.05C512.349 312.05 525.485 263.973 521.106 259.658L473.564 259.042Z" fill="#3A3A3A"/>
<path d="M454.915 260.966C455.773 260.831 456.592 260.506 457.315 260.013C458.037 259.519 458.645 258.87 459.096 258.11C459.546 257.351 459.828 256.499 459.922 255.616C460.017 254.732 459.92 253.839 459.64 252.997L487 200.229L474.749 196.032L451.677 249.289C450.327 249.864 449.231 250.926 448.595 252.273C447.959 253.62 447.828 255.159 448.227 256.598C448.626 258.038 449.527 259.277 450.76 260.082C451.992 260.887 453.47 261.201 454.915 260.966H454.915Z" fill="#FFB8B8"/>
<path d="M491 185.99L485.955 183.652C485.955 183.652 481.678 180.906 477.887 186.949C474.096 192.993 470 206.237 470 206.237L486.459 211.034L491 185.99Z" fill="#F5E200"/>
<path d="M495.779 163.986C496.34 162.147 496.177 159.659 494.289 158.963C493.306 158.601 492.208 158.887 491.157 158.988C489.102 159.179 487.044 158.644 485.381 157.487C483.428 156.117 482.222 154.021 481.076 151.994L479.344 148.928C478.958 148.289 478.629 147.621 478.36 146.93C477.396 144.223 478.443 141.089 480.586 139.074C482.826 137.107 485.773 136.016 488.832 136.022C491.866 136.043 494.865 136.649 497.642 137.804C502.579 139.704 507.05 142.54 510.779 146.136C513.217 148.491 515.436 151.557 514.927 154.814C514.53 157.349 512.573 159.379 510.706 161.24L503.935 167.988C502.736 169.183 501.455 170.427 499.78 170.886C498.106 171.346 495.949 170.671 495.493 169.082C495.493 169.082 495.218 165.824 495.779 163.986Z" fill="#2F2E41"/>
<path d="M587.376 375.06H0.623542C0.458168 375.06 0.299567 375.008 0.182631 374.914C0.0656939 374.82 0 374.693 0 374.56C0 374.428 0.0656939 374.301 0.182631 374.207C0.299567 374.113 0.458168 374.06 0.623542 374.06H587.376C587.542 374.06 587.7 374.113 587.817 374.207C587.934 374.301 588 374.428 588 374.56C588 374.693 587.934 374.82 587.817 374.914C587.7 375.008 587.542 375.06 587.376 375.06Z" fill="#FC4732"/>
<path d="M395.147 184.029H377.853C377.362 184.029 376.89 183.871 376.543 183.59C376.195 183.309 376 182.927 376 182.529C376 182.131 376.195 181.75 376.543 181.469C376.89 181.187 377.362 181.029 377.853 181.029H395.147C395.638 181.029 396.11 181.187 396.457 181.469C396.805 181.75 397 182.131 397 182.529C397 182.927 396.805 183.309 396.457 183.59C396.11 183.871 395.638 184.029 395.147 184.029Z" fill="#6C63FF"/>
<path d="M395.147 176.028H377.853C377.362 176.028 376.89 175.817 376.543 175.442C376.195 175.067 376 174.558 376 174.028C376 173.497 376.195 172.989 376.543 172.614C376.89 172.239 377.362 172.028 377.853 172.028H395.147C395.638 172.028 396.11 172.239 396.457 172.614C396.805 172.989 397 173.497 397 174.028C397 174.558 396.805 175.067 396.457 175.442C396.11 175.817 395.638 176.028 395.147 176.028Z" fill="#6C63FF"/>
<path d="M395.147 168.026H377.853C377.362 168.026 376.89 167.816 376.543 167.441C376.195 167.066 376 166.557 376 166.026C376 165.496 376.195 164.987 376.543 164.612C376.89 164.237 377.362 164.026 377.853 164.026H395.147C395.638 164.026 396.11 164.237 396.457 164.612C396.805 164.987 397 165.496 397 166.026C397 166.557 396.805 167.066 396.457 167.441C396.11 167.816 395.638 168.026 395.147 168.026Z" fill="#6C63FF"/>
</svg>
