<svg width="366" height="297" viewBox="0 0 366 297" fill="none" xmlns="http://www.w3.org/2000/svg">
<path d="M58.1215 0L33.9201 47.1332H38.8055V85.5686H14.1844L0 113.193L175.755 203.166L233.877 89.9736L58.1215 0Z" fill="#F2F2F2"/>
<path d="M322.466 30.6606H53.0117V165.642H322.466V30.6606Z" fill="#29399B"/>
<path opacity="0.3" d="M289.701 79.1626H90.8184V79.6201H289.701V79.1626Z" fill="#6C63FF"/>
<path opacity="0.3" d="M289.93 90.6016H91.0469V91.0591H289.93V90.6016Z" fill="#6C63FF"/>
<path opacity="0.3" d="M289.93 113.48H91.0469V113.937H289.93V113.48Z" fill="#6C63FF"/>
<path opacity="0.3" d="M289.93 123.546H91.0469V124.004H289.93V123.546Z" fill="#6C63FF"/>
<path opacity="0.3" d="M289.93 102.041H91.0469V102.498H289.93V102.041Z" fill="#6C63FF"/>
<path d="M259.685 296.048C306.759 296.048 344.92 292.565 344.92 288.269C344.92 283.973 306.759 280.491 259.685 280.491C212.61 280.491 174.449 283.973 174.449 288.269C174.449 292.565 212.61 296.048 259.685 296.048Z" fill="#3A3A3A"/>
<path d="M96.564 123.878L95.9316 123.215L125.535 95.0416L151.631 113.784L172.734 90.4229L181.988 98.2765L207.159 83.1962L235.119 101.96L279.002 77.0374L279.455 77.8326L235.079 103.036L207.132 84.2801L181.895 99.3989L172.819 91.6954L151.762 115.006L125.617 96.228L96.564 123.878Z" fill="#F5E200"/>
<path d="M181.816 272.638C183.97 280.588 191.347 285.511 191.347 285.511C191.347 285.511 195.233 277.545 193.079 269.596C190.925 261.646 183.548 256.723 183.548 256.723C183.548 256.723 179.663 264.688 181.816 272.638Z" fill="#3A3A3A"/>
<path d="M184.981 270.929C190.891 276.674 191.613 285.505 191.613 285.505C191.613 285.505 182.753 285.022 176.843 279.277C170.933 273.533 170.211 264.702 170.211 264.702C170.211 264.702 179.071 265.185 184.981 270.929Z" fill="#F5E200"/>
<path opacity="0.4" d="M350.648 39.812C359.127 39.812 366 32.9493 366 24.4836C366 16.018 359.127 9.15527 350.648 9.15527C342.17 9.15527 335.297 16.018 335.297 24.4836C335.297 32.9493 342.17 39.812 350.648 39.812Z" fill="#F5E200"/>
<path opacity="0.4" d="M322.236 42.5574C328.183 42.5574 333.005 37.7432 333.005 31.8046C333.005 25.866 328.183 21.0518 322.236 21.0518C316.288 21.0518 311.467 25.866 311.467 31.8046C311.467 37.7432 316.288 42.5574 322.236 42.5574Z" fill="#F5E200"/>
<path opacity="0.4" d="M308.947 234.734C312.111 234.734 314.675 232.173 314.675 229.015C314.675 225.856 312.111 223.295 308.947 223.295C305.783 223.295 303.219 225.856 303.219 229.015C303.219 232.173 305.783 234.734 308.947 234.734Z" fill="#6C63FF"/>
<path opacity="0.4" d="M211.338 263.104C213.742 263.104 215.691 261.157 215.691 258.756C215.691 256.356 213.742 254.409 211.338 254.409C208.933 254.409 206.984 256.356 206.984 258.756C206.984 261.157 208.933 263.104 211.338 263.104Z" fill="#6C63FF"/>
<path opacity="0.4" d="M196.675 206.823C199.839 206.823 202.404 204.262 202.404 201.103C202.404 197.944 199.839 195.384 196.675 195.384C193.512 195.384 190.947 197.944 190.947 201.103C190.947 204.262 193.512 206.823 196.675 206.823Z" fill="#6C63FF"/>
<path d="M278.701 85.3394C281.992 85.3394 284.659 82.6762 284.659 79.3911C284.659 76.106 281.992 73.4429 278.701 73.4429C275.411 73.4429 272.744 76.106 272.744 79.3911C272.744 82.6762 275.411 85.3394 278.701 85.3394Z" fill="#6C63FF"/>
<path d="M239.995 187.132L234.945 187.692C234.945 187.692 232.7 197.777 234.945 211.224C237.189 224.671 239.995 238.118 239.995 238.118C239.995 238.118 242.24 281.82 243.362 282.381C244.484 282.941 254.585 286.303 255.146 282.941C255.707 279.579 255.707 202.82 255.707 202.82L263.563 239.799C263.563 239.799 264.685 286.303 266.93 286.303C269.174 286.303 276.469 285.742 276.469 281.82C276.469 277.898 278.152 226.352 278.152 226.352C278.152 226.352 277.591 188.252 275.347 187.132C273.102 186.011 239.995 187.132 239.995 187.132Z" fill="#3A3A3A"/>
<path d="M244.483 280.7C244.483 280.7 239.433 280.14 238.311 280.7C237.189 281.26 235.505 285.182 238.311 287.423C241.116 289.665 248.411 293.026 250.656 293.026C252.212 292.957 253.739 292.576 255.145 291.906L254.023 282.381L244.483 280.7Z" fill="#2F2E41"/>
<path d="M266.93 283.501L267.491 291.345C267.491 291.345 274.786 292.466 275.347 291.345C275.908 290.225 281.519 287.423 282.08 286.863C282.641 286.303 283.203 280.14 279.836 279.579C276.469 279.019 275.347 280.7 275.347 280.7L266.93 283.501Z" fill="#2F2E41"/>
<path d="M219.795 140.068C219.795 140.068 206.327 152.954 208.011 159.678C209.694 166.401 223.161 186.011 223.161 186.011C223.161 186.011 236.068 192.735 237.751 186.011C239.434 179.288 228.773 180.969 228.773 180.969L220.356 160.798L229.895 147.352L219.795 140.068Z" fill="#FFB8B8"/>
<path d="M279.968 120.462C279.968 120.462 292.237 112.585 291.953 107.173C291.669 101.762 284.273 84.698 284.273 84.698C284.273 84.698 278.487 72.6873 276.187 77.5958C273.887 82.5044 279.21 87.7293 279.21 87.7293L282.646 104.468L273.309 113.362L279.968 120.462Z" fill="#FFB8B8"/>
<path d="M249.534 109.252C255.112 109.252 259.634 104.737 259.634 99.1667C259.634 93.5968 255.112 89.0815 249.534 89.0815C243.956 89.0815 239.434 93.5968 239.434 99.1667C239.434 104.737 243.956 109.252 249.534 109.252Z" fill="#FFB8B8"/>
<path d="M244.484 105.33L246.168 115.976L258.513 113.734C258.513 113.734 257.952 103.089 257.952 101.968C257.952 100.848 244.484 105.33 244.484 105.33Z" fill="#FFB8B8"/>
<path d="M243.922 115.975C243.922 115.975 257.95 112.614 259.634 113.734C261.317 114.855 269.734 115.975 269.734 115.975L279.274 130.543L276.468 149.032C276.468 149.032 275.907 178.728 277.029 183.77C278.151 188.813 284.324 189.373 271.418 190.494C258.512 191.614 256.267 189.934 247.289 192.175C238.311 194.416 231.016 191.054 233.261 188.813C235.505 186.572 239.433 150.713 234.944 147.352C230.455 143.99 228.771 126.621 228.771 126.621C228.771 126.621 243.922 118.777 243.922 115.975Z" fill="#D0CDE1"/>
<path d="M268.051 117.656L269.734 115.976L273.101 112.614C273.101 112.614 284.043 117.376 283.482 119.057C282.921 120.738 279.273 130.543 279.273 130.543L274.223 132.224L268.051 117.656Z" fill="#D0CDE1"/>
<path d="M235.506 127.742L228.772 126.621C228.772 126.621 223.722 132.224 222.038 134.465C220.355 136.706 216.988 142.309 216.988 142.309L228.772 150.713L237.75 141.189L235.506 127.742Z" fill="#D0CDE1"/>
<path d="M253.059 86.9485L252.955 86.1406C252.269 86.1367 251.586 86.2438 250.934 86.4578C250.867 85.9706 250.91 85.4747 251.058 85.006C250.396 85.1761 249.764 85.4503 249.187 85.8182L248.779 84.3438L243.17 87.1042C241.156 88.095 239.033 89.1839 237.882 91.1083C236.599 93.2537 236.822 96.0109 237.699 98.3513C238.577 100.692 240.034 102.763 241.203 104.973C241.646 105.923 242.18 106.829 242.795 107.678C244.912 110.314 249.034 110.846 252.019 109.256C253.155 108.709 254.061 107.779 254.575 106.629C254.793 105.916 254.964 105.19 255.086 104.454C255.455 102.948 255.884 99.8394 257.109 98.8866C257.648 98.4674 258.717 99.8573 259.164 99.341C260.312 98.0142 260.071 95.968 259.358 94.3656C258.674 92.7563 257.874 91.1984 256.964 89.7041C256.579 89.1034 253.046 86.8516 253.059 86.9485Z" fill="#3A3A3A"/>
<path d="M35.1389 52.624H5.81055V81.908H35.1389V52.624Z" fill="#3A3A3A"/>
</svg>
