<svg width="420" height="297" viewBox="0 0 420 297" fill="none" xmlns="http://www.w3.org/2000/svg">
<path opacity="0.1" d="M363.95 296.048C377.281 296.048 388.088 293.176 388.088 289.633C388.088 286.09 377.281 283.218 363.95 283.218C350.619 283.218 339.812 286.09 339.812 289.633C339.812 293.176 350.619 296.048 363.95 296.048Z" fill="#6C63FF"/>
<path opacity="0.1" d="M403.76 262.247C394.576 269.874 381.508 273.03 368.869 275.024L366.742 275.349C353.542 277.32 340.194 278.369 326.802 279.007C319.636 279.355 312.47 279.6 305.304 279.819L299.688 279.985C292.397 280.202 285.091 280.414 277.772 280.623C270.606 280.827 263.44 281.019 256.274 281.197C247.097 281.421 237.919 281.608 228.742 281.756C221.576 281.869 214.41 281.947 207.244 281.99C198.064 282.043 188.887 282.026 179.712 281.937C172.541 281.864 165.375 281.739 158.214 281.56C149.032 281.323 139.855 280.977 130.682 280.521C124.457 280.217 118.235 279.851 112.017 279.423L109.185 279.223C82.4935 277.297 55.3234 273.842 31.9664 262.922L31.3365 262.624C31.0235 262.477 30.7105 262.33 30.3974 262.175C26.1089 260.122 22.001 257.711 18.1173 254.967C11.2117 250.036 5.50913 244.017 2.49568 236.877C-2.22627 225.678 0.270481 213.089 5.66376 202.139C11.057 191.19 19.1545 181.305 26.1582 170.993C28.2099 167.972 30.156 164.838 31.9664 161.625C43.281 141.474 48.893 118.154 37.0315 98.7352C35.4659 96.2593 33.7753 93.8649 31.9664 91.5612C29.0736 87.7854 26.1318 84.0096 24.1442 79.8297C19.509 70.1032 20.5047 59.1647 22.1944 48.7737C24.4573 34.958 28.606 20.0776 41.5725 11.4461C55.0255 2.4823 74.1207 2.93539 90.8173 6.15993C116.777 11.1402 140.737 21.5652 164.924 30.967C189.111 40.3688 214.448 48.9663 241.041 49.8913C246.754 50.0871 252.473 49.8789 258.156 49.2683C265.733 48.4889 273.206 46.9132 280.453 44.5675C290.919 41.1164 300.442 35.9246 307.503 28.7091C322.645 13.2849 351.102 12.1182 371.619 21.4331C391.197 30.3213 403.858 49.1324 402.922 67.9208C401.859 88.835 386.214 106.03 371.879 123.667C370.14 125.804 368.424 127.949 366.753 130.108C365.821 131.314 364.905 132.522 364.008 133.733C362.435 135.87 360.915 138.019 359.482 140.194C352.158 151.344 346.979 164.736 352.022 176.774C354.85 183.513 360.248 188.656 366.753 193.145C381.33 203.2 401.451 209.967 410.503 224.043C418.303 236.175 415.414 252.55 403.76 262.247Z" fill="#6C63FF"/>
<g opacity="0.1">
<path opacity="0.1" d="M209.507 207.294C209.522 207.649 209.548 207.996 209.586 208.336C212.52 207.165 215.401 205.907 218.227 204.56C219.735 204.36 221.137 203.673 222.221 202.604C223.047 202.189 223.869 201.754 224.684 201.32C224.499 200.93 224.29 200.551 224.058 200.188C222.47 197.677 220.056 196.106 217.397 196.193C214.738 196.279 212.437 198.005 211.016 200.607C209.925 202.661 209.404 204.97 209.507 207.294Z" fill="#3F3D56"/>
<path opacity="0.1" d="M209.073 194.09C209.129 196.403 209.8 198.66 211.015 200.629C212.607 203.133 215.02 204.703 217.679 204.617C217.864 204.617 218.056 204.59 218.226 204.575C219.734 204.375 221.136 203.688 222.22 202.619C222.956 201.918 223.576 201.105 224.057 200.21C225.121 198.155 225.64 195.86 225.565 193.546C225.49 191.232 224.822 188.977 223.627 186.995C222.035 184.484 219.622 182.913 216.963 183C214.304 183.087 212.007 184.812 210.585 187.414C209.495 189.464 208.973 191.769 209.073 194.09Z" fill="#3F3D56"/>
<path opacity="0.1" d="M217.245 191.413C221.798 191.264 225.331 186.305 225.135 180.338C224.939 174.371 221.09 169.655 216.537 169.805C211.984 169.954 208.452 174.913 208.647 180.88C208.843 186.847 212.692 191.563 217.245 191.413Z" fill="#3F3D56"/>
<path opacity="0.1" d="M216.812 178.212C221.365 178.062 224.897 173.104 224.701 167.137C224.506 161.169 220.656 156.454 216.103 156.603C211.55 156.753 208.018 161.711 208.214 167.678C208.409 173.645 212.259 178.361 216.812 178.212Z" fill="#3F3D56"/>
<path opacity="0.1" d="M216.38 165.006C220.933 164.857 224.465 159.898 224.27 153.931C224.074 147.964 220.225 143.248 215.672 143.398C211.119 143.547 207.586 148.506 207.782 154.473C207.978 160.44 211.827 165.156 216.38 165.006Z" fill="#3F3D56"/>
<path opacity="0.1" d="M243.937 62.8387C245.016 61.3667 245.991 59.8212 246.856 58.2134L225.079 55.3664L248.508 54.7698C250.595 49.8024 251.647 44.4609 251.6 39.0722C251.554 33.6835 250.409 28.361 248.236 23.4306L217.344 40.7805L245.63 18.5032C242.75 13.9166 238.96 9.97112 234.494 6.91152C230.029 3.85193 224.983 1.74342 219.669 0.716739C214.356 -0.309939 208.889 -0.232893 203.607 0.943101C198.324 2.11909 193.34 4.36896 188.962 7.55318C184.584 10.7374 180.906 14.7881 178.156 19.454C175.407 24.12 173.644 29.3017 172.977 34.6779C172.31 40.0541 172.754 45.5101 174.28 50.7076C175.806 55.9052 178.383 60.7333 181.85 64.8928C180.169 67.1846 178.739 69.6505 177.584 72.2481L206.176 85.9467L175.868 76.8621C173.968 83.1604 173.666 89.8338 174.991 96.2782C176.315 102.723 179.223 108.735 183.453 113.771C179.065 119.753 176.447 126.85 175.899 134.252C175.35 141.653 176.893 149.06 180.351 155.625C183.809 162.19 189.042 167.648 195.452 171.376C201.863 175.103 209.192 176.95 216.601 176.704C224.01 176.459 231.201 174.131 237.351 169.986C243.501 165.842 248.362 160.049 251.378 153.27C254.395 146.49 255.445 138.997 254.408 131.649C253.372 124.3 250.291 117.391 245.517 111.713C250.764 104.568 253.46 95.8653 253.173 87.0021C252.887 78.1388 249.634 69.6291 243.937 62.8387Z" fill="#6C63FF"/>
<path opacity="0.1" d="M174.201 89.5941C174.477 98.4628 177.737 106.978 183.453 113.759C179.064 119.741 176.445 126.838 175.895 134.239C175.345 141.64 176.886 149.047 180.343 155.613C183.8 162.179 189.032 167.638 195.442 171.367C201.852 175.096 209.18 176.944 216.589 176.699C223.999 176.455 231.19 174.128 237.341 169.985C243.491 165.842 248.354 160.05 251.371 153.271C254.389 146.492 255.44 138.999 254.405 131.65C253.37 124.301 250.29 117.392 245.517 111.713C250.59 104.818 174.058 85.1576 174.201 89.5941Z" fill="black"/>
</g>
<g opacity="0.1">
<path opacity="0.1" d="M123.018 276.848C123.018 277.097 122.992 277.346 122.962 277.603C120.875 276.772 118.824 275.882 116.81 274.933C115.737 274.793 114.739 274.307 113.967 273.548C113.378 273.248 112.794 272.944 112.213 272.634C112.344 272.358 112.493 272.09 112.658 271.833C113.789 270.044 115.502 268.926 117.395 268.986C119.288 269.047 120.925 270.27 121.921 272.12C122.7 273.57 123.079 275.202 123.018 276.848Z" fill="#3F3D56"/>
<path opacity="0.1" d="M123.313 267.45C123.276 269.096 122.802 270.703 121.94 272.105C120.809 273.888 119.093 275.009 117.203 274.949L116.826 274.918C115.753 274.778 114.755 274.292 113.982 273.533C113.458 273.035 113.016 272.456 112.674 271.818C111.917 270.357 111.547 268.726 111.598 267.081C111.65 265.436 112.121 263.831 112.968 262.42C114.099 260.631 115.815 259.513 117.705 259.573C119.594 259.634 121.235 260.857 122.249 262.707C123.02 264.165 123.387 265.802 123.313 267.45Z" fill="#3F3D56"/>
<path opacity="0.1" d="M123.618 258.069C123.752 253.823 121.235 250.299 117.995 250.196C114.756 250.094 112.021 253.452 111.887 257.698C111.753 261.944 114.271 265.469 117.51 265.571C120.75 265.674 123.484 262.315 123.618 258.069Z" fill="#3F3D56"/>
<path opacity="0.1" d="M123.911 248.673C124.045 244.427 121.528 240.902 118.288 240.8C115.049 240.697 112.314 244.056 112.18 248.302C112.046 252.547 114.564 256.072 117.803 256.175C121.043 256.277 123.777 252.918 123.911 248.673Z" fill="#3F3D56"/>
<path opacity="0.1" d="M124.208 239.273C124.342 235.027 121.825 231.502 118.585 231.4C115.346 231.297 112.611 234.656 112.477 238.902C112.343 243.147 114.86 246.672 118.1 246.775C121.339 246.877 124.074 243.518 124.208 239.273Z" fill="#3F3D56"/>
<path opacity="0.1" d="M98.4017 174.078C97.6327 173.03 96.9359 171.931 96.3161 170.789L111.81 168.727L95.1356 168.35C93.6454 164.816 92.8915 161.015 92.92 157.179C92.9485 153.343 93.7589 149.554 95.3015 146.042L117.301 158.363L97.1534 142.523C99.1923 139.244 101.884 136.42 105.06 134.228C108.236 132.035 111.829 130.52 115.615 129.777C119.401 129.035 123.299 129.08 127.067 129.911C130.835 130.742 134.392 132.34 137.516 134.607C140.64 136.873 143.265 139.759 145.227 143.085C147.189 146.411 148.446 150.105 148.92 153.938C149.394 157.772 149.075 161.662 147.982 165.366C146.89 169.071 145.048 172.51 142.57 175.471C143.77 177.101 144.79 178.855 145.614 180.704L125.278 190.476L146.839 183.982C148.197 188.463 148.417 193.213 147.48 197.801C146.544 202.389 144.481 206.672 141.476 210.261C144.605 214.514 146.476 219.562 146.874 224.829C147.273 230.095 146.183 235.368 143.729 240.044C141.275 244.719 137.557 248.61 132.999 251.269C128.441 253.929 123.227 255.251 117.954 255.084C112.681 254.918 107.561 253.269 103.18 250.326C98.7984 247.384 95.3326 243.266 93.1785 238.445C91.0245 233.624 90.2691 228.293 90.9986 223.062C91.7282 217.831 93.9133 212.911 97.3042 208.864C93.5652 203.783 91.6406 197.591 91.8397 191.283C92.0387 184.975 94.3498 178.917 98.4017 174.082V174.078Z" fill="#6C63FF"/>
<path opacity="0.1" d="M148.035 193.055C147.846 199.366 145.535 205.429 141.476 210.261C144.605 214.514 146.476 219.562 146.874 224.829C147.273 230.096 146.182 235.368 143.729 240.044C141.275 244.72 137.557 248.61 132.999 251.27C128.441 253.929 123.227 255.251 117.954 255.085C112.681 254.918 107.561 253.269 103.18 250.326C98.7984 247.384 95.3326 243.267 93.1785 238.445C91.0245 233.624 90.2691 228.293 90.9986 223.062C91.7282 217.831 93.9133 212.911 97.3042 208.864C93.6873 203.956 148.141 189.895 148.035 193.055Z" fill="black"/>
</g>
<g opacity="0.1">
<path opacity="0.1" d="M319.428 227.743C319.428 227.996 319.402 228.242 319.376 228.499C317.286 227.668 315.236 226.778 313.224 225.829C312.15 225.688 311.151 225.202 310.377 224.443C309.792 224.145 309.204 223.839 308.623 223.53C308.756 223.254 308.904 222.987 309.068 222.729C310.2 220.939 311.912 219.822 313.805 219.882C315.698 219.943 317.335 221.166 318.331 223.016C319.111 224.466 319.489 226.098 319.428 227.743Z" fill="#3F3D56"/>
<path opacity="0.1" d="M319.746 218.345C319.708 219.992 319.233 221.599 318.37 223.001C317.238 224.783 315.526 225.905 313.633 225.844L313.255 225.814C312.181 225.673 311.182 225.187 310.408 224.428C309.885 223.929 309.443 223.35 309.099 222.714C308.343 221.253 307.973 219.622 308.024 217.977C308.076 216.332 308.547 214.727 309.393 213.316C310.525 211.53 312.241 210.409 314.13 210.469C316.02 210.53 317.664 211.753 318.675 213.603C319.448 215.06 319.818 216.697 319.746 218.345Z" fill="#3F3D56"/>
<path opacity="0.1" d="M320.04 208.962C320.174 204.716 317.657 201.191 314.417 201.089C311.178 200.986 308.443 204.345 308.309 208.591C308.175 212.836 310.693 216.361 313.932 216.464C317.171 216.566 319.906 213.207 320.04 208.962Z" fill="#3F3D56"/>
<path opacity="0.1" d="M320.337 199.565C320.471 195.32 317.954 191.795 314.714 191.692C311.475 191.59 308.74 194.949 308.606 199.194C308.472 203.44 310.989 206.965 314.229 207.067C317.468 207.17 320.203 203.811 320.337 199.565Z" fill="#3F3D56"/>
<path opacity="0.1" d="M320.634 190.169C320.768 185.923 318.25 182.398 315.011 182.296C311.772 182.193 309.037 185.552 308.903 189.798C308.769 194.044 311.286 197.568 314.526 197.671C317.765 197.773 320.5 194.415 320.634 190.169Z" fill="#3F3D56"/>
<path opacity="0.1" d="M294.812 124.973C294.042 123.927 293.347 122.828 292.73 121.685L308.224 119.642L291.55 119.238C290.06 115.704 289.307 111.903 289.334 108.067C289.362 104.232 290.171 100.442 291.712 96.9305L313.711 109.251L293.564 93.419C295.599 90.1318 298.289 87.2998 301.466 85.0997C304.644 82.8996 308.239 81.3785 312.03 80.6313C315.82 79.8842 319.724 79.927 323.497 80.7572C327.27 81.5873 330.831 83.1869 333.96 85.4563C337.088 87.7256 339.715 90.616 341.678 93.947C343.641 97.278 344.897 100.978 345.368 104.817C345.839 108.656 345.515 112.55 344.416 116.258C343.317 119.966 341.467 123.407 338.981 126.367C340.179 127.996 341.198 129.751 342.02 131.6L321.684 141.372L343.246 134.877C344.605 139.358 344.827 144.108 343.89 148.696C342.954 153.284 340.889 157.565 337.883 161.153C341.012 165.405 342.884 170.453 343.282 175.719C343.681 180.985 342.592 186.258 340.139 190.933C337.685 195.609 333.967 199.499 329.41 202.159C324.852 204.818 319.639 206.14 314.366 205.974C309.093 205.807 303.974 204.158 299.593 201.215C295.212 198.273 291.747 194.156 289.593 189.334C287.44 184.513 286.685 179.182 287.415 173.952C288.145 168.721 290.331 163.802 293.722 159.756C289.983 154.675 288.059 148.483 288.258 142.175C288.457 135.866 290.768 129.808 294.82 124.973H294.812Z" fill="#6C63FF"/>
<path opacity="0.1" d="M344.449 143.951C344.26 150.261 341.948 156.323 337.887 161.153C341.016 165.405 342.886 170.453 343.285 175.719C343.683 180.985 342.593 186.257 340.14 190.932C337.687 195.607 333.969 199.497 329.411 202.157C324.854 204.816 319.641 206.138 314.368 205.971C309.095 205.805 303.976 204.156 299.596 201.214C295.215 198.271 291.75 194.154 289.596 189.333C287.442 184.512 286.687 179.182 287.417 173.952C288.146 168.721 290.332 163.802 293.722 159.756C290.102 154.851 344.547 140.787 344.449 143.951Z" fill="black"/>
</g>
<path d="M72.9781 287.53C84.853 287.53 94.4796 285.677 94.4796 283.391C94.4796 281.106 84.853 279.253 72.9781 279.253C61.1031 279.253 51.4766 281.106 51.4766 283.391C51.4766 285.677 61.1031 287.53 72.9781 287.53Z" fill="#29399B"/>
<path d="M72.6195 284.913C74.0026 284.913 75.1238 283.444 75.1238 281.632C75.1238 279.82 74.0026 278.35 72.6195 278.35C71.2364 278.35 70.1152 279.82 70.1152 281.632C70.1152 283.444 71.2364 284.913 72.6195 284.913Z" fill="#3F3D56"/>
<path d="M72.6195 280.902C74.0026 280.902 75.1238 279.433 75.1238 277.621C75.1238 275.809 74.0026 274.341 72.6195 274.341C71.2364 274.341 70.1152 275.809 70.1152 277.621C70.1152 279.433 71.2364 280.902 72.6195 280.902Z" fill="#3F3D56"/>
<path d="M72.6195 276.893C74.0026 276.893 75.1238 275.424 75.1238 273.612C75.1238 271.8 74.0026 270.331 72.6195 270.331C71.2364 270.331 70.1152 271.8 70.1152 273.612C70.1152 275.424 71.2364 276.893 72.6195 276.893Z" fill="#3F3D56"/>
<path d="M72.6195 272.882C74.0026 272.882 75.1238 271.413 75.1238 269.601C75.1238 267.79 74.0026 266.321 72.6195 266.321C71.2364 266.321 70.1152 267.79 70.1152 269.601C70.1152 271.413 71.2364 272.882 72.6195 272.882Z" fill="#3F3D56"/>
<path d="M72.6195 268.873C74.0026 268.873 75.1238 267.404 75.1238 265.592C75.1238 263.78 74.0026 262.311 72.6195 262.311C71.2364 262.311 70.1152 263.78 70.1152 265.592C70.1152 267.404 71.2364 268.873 72.6195 268.873Z" fill="#3F3D56"/>
<path d="M72.6195 264.862C74.0026 264.862 75.1238 263.394 75.1238 261.582C75.1238 259.77 74.0026 258.301 72.6195 258.301C71.2364 258.301 70.1152 259.77 70.1152 261.582C70.1152 263.394 71.2364 264.862 72.6195 264.862Z" fill="#3F3D56"/>
<path d="M72.6195 260.853C74.0026 260.853 75.1238 259.384 75.1238 257.572C75.1238 255.76 74.0026 254.291 72.6195 254.291C71.2364 254.291 70.1152 255.76 70.1152 257.572C70.1152 259.384 71.2364 260.853 72.6195 260.853Z" fill="#3F3D56"/>
<path d="M81.9927 230.13C82.3341 229.693 82.6453 229.234 82.9243 228.755L76.3467 227.672L83.4598 227.728C84.142 226.241 84.5142 224.63 84.5538 222.994C84.5934 221.359 84.2994 219.732 83.6899 218.213L74.1442 223.171L82.9469 216.68C82.1216 215.255 81.0119 214.014 79.687 213.036C78.3621 212.059 76.8504 211.364 75.2459 210.997C73.6414 210.629 71.9785 210.596 70.3607 210.899C68.7429 211.203 67.2048 211.837 65.8422 212.761C64.4796 213.686 63.3217 214.881 62.4404 216.273C61.5592 217.665 60.9736 219.223 60.72 220.851C60.4664 222.479 60.5503 224.142 60.9664 225.737C61.3826 227.331 62.1221 228.823 63.1389 230.118C62.6069 230.797 62.1492 231.532 61.7736 232.308L70.3123 236.749L61.2078 233.69C60.5683 235.582 60.4099 237.604 60.7471 239.572C61.0842 241.541 61.9063 243.394 63.1389 244.965C61.748 246.736 60.883 248.863 60.6428 251.104C60.4025 253.344 60.7967 255.606 61.7802 257.633C62.7637 259.659 64.2969 261.368 66.2045 262.563C68.1121 263.759 70.3172 264.393 72.5677 264.393C74.8182 264.393 77.0232 263.759 78.9309 262.563C80.8385 261.368 82.3717 259.659 83.3552 257.633C84.3387 255.606 84.7328 253.344 84.4926 251.104C84.2523 248.863 83.3873 246.736 81.9965 244.965C83.658 242.848 84.5612 240.234 84.5612 237.542C84.5612 234.849 83.658 232.235 81.9965 230.118L81.9927 230.13Z" fill="#6C63FF"/>
<path opacity="0.1" d="M60.5742 237.553C60.5698 240.246 61.4735 242.861 63.1389 244.976C61.748 246.747 60.883 248.875 60.6428 251.115C60.4025 253.355 60.7967 255.618 61.7802 257.644C62.7637 259.671 64.2969 261.379 66.2045 262.575C68.1121 263.77 70.3172 264.404 72.5677 264.404C74.8182 264.404 77.0232 263.77 78.9309 262.575C80.8385 261.379 82.3717 259.671 83.3552 257.644C84.3387 255.618 84.7329 253.355 84.4926 251.115C84.2523 248.875 83.3873 246.747 81.9965 244.976C83.5994 242.933 60.5742 236.205 60.5742 237.553Z" fill="#29399B"/>
<path d="M130.681 195.158V280.491C124.456 280.187 118.234 279.821 112.016 279.393L109.184 279.193V195.158C109.184 194.721 109.27 194.288 109.437 193.884C109.604 193.48 109.849 193.113 110.158 192.803C110.467 192.494 110.833 192.249 111.237 192.081C111.641 191.914 112.073 191.828 112.51 191.828H127.355C127.792 191.828 128.224 191.914 128.628 192.081C129.031 192.249 129.398 192.494 129.707 192.803C130.016 193.113 130.261 193.48 130.428 193.884C130.595 194.288 130.681 194.721 130.681 195.158Z" fill="#29399B"/>
<path d="M158.215 281.552V138.143C158.215 137.26 158.565 136.413 159.189 135.789C159.813 135.164 160.659 134.813 161.541 134.813H176.386C176.823 134.813 177.256 134.899 177.659 135.067C178.063 135.234 178.429 135.479 178.738 135.789C179.047 136.098 179.292 136.465 179.459 136.869C179.627 137.273 179.713 137.706 179.713 138.143V281.926L158.215 281.552Z" fill="#29399B"/>
<path d="M207.244 282.002V167.972C207.244 167.089 207.595 166.242 208.218 165.617C208.842 164.993 209.688 164.642 210.571 164.642H225.415C226.298 164.642 227.144 164.993 227.768 165.617C228.391 166.242 228.742 167.089 228.742 167.972V281.756L207.244 282.002Z" fill="#29399B"/>
<path d="M277.771 83.3942V280.624C270.605 280.827 263.439 281.019 256.273 281.198V83.3942C256.273 82.511 256.624 81.6639 257.248 81.0394C257.872 80.4148 258.718 80.064 259.6 80.064H274.445C275.327 80.064 276.173 80.4148 276.797 81.0394C277.421 81.6639 277.771 82.511 277.771 83.3942Z" fill="#29399B"/>
<path d="M326.802 123.04V278.981C319.636 279.329 312.471 279.574 305.305 279.793V123.04C305.305 122.157 305.655 121.31 306.279 120.685C306.903 120.061 307.749 119.71 308.631 119.71H323.476C324.358 119.71 325.204 120.061 325.828 120.685C326.452 121.31 326.802 122.157 326.802 123.04Z" fill="#29399B"/>
<path d="M120.121 145.393L169.151 90.6438L218.181 118.207L267.211 33.6292L316.24 74.0303" stroke="#3F3D56" stroke-width="7" stroke-miterlimit="10" stroke-linecap="round"/>
<path d="M119.933 155.965C125.766 155.965 130.494 151.232 130.494 145.393C130.494 139.554 125.766 134.821 119.933 134.821C114.101 134.821 109.373 139.554 109.373 145.393C109.373 151.232 114.101 155.965 119.933 155.965Z" fill="#F5E200"/>
<path d="M168.963 101.216C174.795 101.216 179.523 96.4827 179.523 90.6438C179.523 84.8049 174.795 80.0715 168.963 80.0715C163.13 80.0715 158.402 84.8049 158.402 90.6438C158.402 96.4827 163.13 101.216 168.963 101.216Z" fill="#6C63FF"/>
<path d="M217.994 128.78C223.826 128.78 228.554 124.046 228.554 118.207C228.554 112.368 223.826 107.635 217.994 107.635C212.162 107.635 207.434 112.368 207.434 118.207C207.434 124.046 212.162 128.78 217.994 128.78Z" fill="#6C63FF"/>
<path d="M267.023 44.2014C272.855 44.2014 277.583 39.4681 277.583 33.6292C277.583 27.7903 272.855 23.0569 267.023 23.0569C261.191 23.0569 256.463 27.7903 256.463 33.6292C256.463 39.4681 261.191 44.2014 267.023 44.2014Z" fill="#F5E200"/>
<path d="M361.31 134.066C367.143 134.066 371.87 129.332 371.87 123.493C371.87 117.654 367.143 112.921 361.31 112.921C355.478 112.921 350.75 117.654 350.75 123.493C350.75 129.332 355.478 134.066 361.31 134.066Z" fill="#6C63FF"/>
<path opacity="0.1" d="M88.1311 273.906C92.0221 273.906 95.1764 273.372 95.1764 272.713C95.1764 272.054 92.0221 271.52 88.1311 271.52C84.2402 271.52 81.0859 272.054 81.0859 272.713C81.0859 273.372 84.2402 273.906 88.1311 273.906Z" fill="#6C63FF"/>
<path d="M83.4023 267.174C83.4023 267.174 87.419 267.05 88.6297 266.185C89.8403 265.32 94.8112 264.297 95.1129 265.675C95.4146 267.053 101.147 272.562 96.6215 272.6C92.0957 272.638 86.0801 271.89 84.8732 271.154C83.6663 270.418 83.4023 267.174 83.4023 267.174Z" fill="#A8A8A8"/>
<path opacity="0.2" d="M96.6932 272.116C92.1674 272.154 86.1556 271.41 84.9449 270.674C84.0246 270.111 83.6588 268.099 83.5343 267.17H83.4023C83.4023 267.17 83.655 270.413 84.8657 271.149C86.0764 271.886 92.0769 272.633 96.614 272.595C97.9227 272.595 98.3753 272.12 98.3489 271.429C98.1679 271.848 97.67 272.108 96.6932 272.116Z" fill="black"/>
<path opacity="0.1" d="M401.214 285.022C408.36 285.022 414.154 284.041 414.154 282.832C414.154 281.623 408.36 280.642 401.214 280.642C394.067 280.642 388.273 281.623 388.273 282.832C388.273 284.041 394.067 285.022 401.214 285.022Z" fill="#6C63FF"/>
<path d="M392.535 272.657C392.535 272.657 399.916 272.43 402.141 270.844C404.366 269.258 413.494 267.367 414.044 269.908C414.595 272.449 425.14 282.557 416.805 282.625C408.47 282.693 397.442 281.326 395.22 279.982C392.999 278.638 392.535 272.657 392.535 272.657Z" fill="#A8A8A8"/>
<path opacity="0.2" d="M416.944 281.741C408.609 281.809 397.581 280.442 395.36 279.098C393.67 278.067 392.995 274.367 392.769 272.679H392.523C392.523 272.679 392.991 278.641 395.209 279.993C397.426 281.345 408.462 282.715 416.793 282.636C419.199 282.636 420.029 281.76 419.984 280.491C419.648 281.247 418.732 281.726 416.944 281.741Z" fill="black"/>
<path d="M320.427 129.976C320.497 130.638 320.759 131.264 321.182 131.777C321.728 132.397 322.547 132.68 323.282 133.05C325.186 134.025 326.639 135.698 327.34 137.72C328.596 141.391 328.759 145.272 330.358 148.814C331.957 152.356 333.835 155.758 335.215 159.386C336 161.444 336.626 163.585 337.776 165.458C338.333 166.379 339.044 167.197 339.877 167.878C339.79 169.207 339.756 170.521 339.764 171.85C340.019 171.845 340.271 171.905 340.496 172.024C340.722 172.142 340.914 172.317 341.054 172.53C341.333 172.96 341.525 173.441 341.619 173.946C342.136 176.087 341.499 178.367 341.963 180.519C343.237 186.506 342.846 192.728 340.831 198.507C340.314 199.972 339.666 204.82 340.216 206.274C342.268 206.066 344.086 207.328 346.006 208.162C346.161 209.301 346.068 210.46 345.734 211.56C345.044 213.55 345.048 215.714 345.059 217.817L345.153 233.396C345.153 235.371 345.18 237.372 345.674 239.286C346.236 241.442 347.416 243.64 347.379 245.867C347.277 250.663 349.54 255.231 349.359 259.989C349.325 260.903 349.2 261.809 349.113 262.715C348.891 265.129 348.951 267.561 349.295 269.961C349.981 274.741 351.795 279.442 351.342 284.248C351.312 284.573 351.203 285.004 350.897 285.128C351.275 285.555 351.674 285.978 352.082 286.382C351.999 286.519 351.887 286.637 351.754 286.725C351.308 286.958 350.815 287.087 350.313 287.103C349.723 287.118 349.151 287.305 348.665 287.639C348.311 287.978 348.072 288.419 347.978 288.9C347.844 289.376 347.815 289.875 347.893 290.362C347.971 290.85 348.155 291.315 348.431 291.725C348.768 292.149 349.208 292.479 349.709 292.684C351.452 293.439 353.451 292.891 355.269 292.34L362.389 290.18C362.824 290.09 363.224 289.881 363.547 289.576C363.695 289.401 363.793 289.19 363.83 288.964C365.403 289.342 367.13 288.878 368.733 288.398L375.854 286.234C376.289 286.146 376.69 285.937 377.011 285.63C377.14 285.474 377.232 285.292 377.282 285.096C377.332 284.901 377.339 284.696 377.302 284.498C377.355 284.475 377.407 284.46 377.46 284.433C378.003 284.188 378.592 283.708 378.46 283.131C378.365 282.753 377.988 282.534 377.826 282.187C377.75 281.961 377.734 281.719 377.78 281.485C377.827 281.251 377.934 281.034 378.09 280.854C378.369 280.476 378.746 280.163 379.003 279.767C379.825 278.505 379.267 276.848 378.958 275.371C378.29 272.219 378.909 268.926 378.486 265.732C378.343 264.656 378.083 263.598 377.875 262.53C377.436 260.004 377.145 257.455 377.004 254.895C376.732 251.24 375.718 247.638 376.299 244.013C376.581 241.886 376.7 239.74 376.657 237.594C376.698 236.228 376.639 234.86 376.48 233.501C376.333 232.49 376.072 231.497 375.959 230.481C375.867 229.339 375.847 228.193 375.899 227.049C375.951 224.498 375.716 221.95 375.197 219.452C374.443 216.02 373.025 212.735 372.422 209.295C372.625 209.34 372.829 209.385 373.025 209.438C373.048 206.795 370.736 201.048 369.88 198.541C369.754 198.234 369.678 197.909 369.653 197.578C369.705 197.142 369.784 196.71 369.891 196.283C370 195.37 369.514 194.501 369.382 193.587C369.33 192.945 369.377 192.298 369.521 191.669C370.128 188.29 370.883 184.937 371.637 181.588C371.966 180.375 372.08 179.113 371.973 177.861C371.885 177.197 371.941 176.523 372.136 175.882C372.331 175.242 372.661 174.651 373.104 174.15C373.436 173.843 373.718 173.488 373.941 173.096C374.067 172.76 374.123 172.401 374.107 172.043C374.092 170.489 373.864 168.946 373.429 167.455C374.092 166.251 374.337 164.77 374.53 163.373C374.952 160.289 375.375 157.189 375.36 154.074C375.393 152.412 375.164 150.755 374.681 149.165C374.328 148.183 373.896 147.231 373.391 146.318C371.407 142.493 369.51 138.468 367.006 134.964C366.251 133.899 366.727 132.431 366.779 131.117C366.836 129.531 366.21 128.009 365.595 126.552C365.281 125.655 364.8 124.826 364.177 124.109C363.966 123.876 363.71 123.69 363.425 123.56C363.14 123.43 362.831 123.36 362.517 123.354C362.162 123.397 361.821 123.516 361.516 123.703C361.21 123.89 360.949 124.14 360.749 124.437C360.293 125.059 359.964 125.765 359.782 126.515C359.6 127.265 359.569 128.044 359.689 128.806C359.939 130.331 360.603 131.759 361.609 132.933C362.094 133.523 362.65 134.052 363.264 134.507C363.888 136.491 364.516 138.473 365.15 140.454C366.146 143.607 367.141 146.775 368.544 149.758C368.956 150.622 369.408 151.502 369.457 152.457C369.51 153.488 369.08 154.47 368.737 155.44C368.014 157.463 367.604 159.584 367.522 161.731C367.412 161.78 367.306 161.838 367.206 161.905C366.017 162.682 365.644 164.378 364.407 165.072C363.687 165.476 362.812 165.45 362.005 165.635C361.933 165.635 361.861 165.673 361.786 165.695C361.756 165.544 361.725 165.397 361.707 165.242C361.695 165.146 361.695 165.048 361.707 164.952C363.63 163.893 365.245 162.353 366.395 160.481C366.637 160.134 366.824 159.752 366.949 159.348C367.051 158.864 367.07 158.366 367.006 157.876C366.943 156.239 366.709 154.612 366.308 153.024C365.906 151.428 365.025 149.993 363.785 148.912C363.166 148.414 362.453 148.04 361.839 147.538C360.639 146.567 359.817 145.132 358.444 144.411C357.571 143.985 356.574 143.885 355.633 144.129C354.692 144.372 353.869 144.944 353.311 145.74C353.129 146.109 352.872 146.435 352.557 146.699C352.317 146.813 352.083 146.939 351.855 147.077C351.441 147.409 351.418 148.047 351.554 148.565C351.811 149.628 351.955 150.715 351.984 151.808C350.766 153.238 350.096 155.054 350.092 156.933C350.088 158.812 350.75 160.631 351.961 162.067C351.961 162.769 351.961 163.472 351.935 164.174C351.935 164.306 351.935 164.442 351.908 164.574C351.473 164.422 351.084 164.162 350.777 163.819C350.354 163.29 350.279 162.512 349.762 162.078C349.391 161.833 348.967 161.678 348.525 161.625C347.427 161.375 346.397 160.887 345.508 160.194C344.81 159.654 344.086 158.963 343.271 158.805C341.866 156.165 340.225 153.658 338.368 151.313C337.898 150.758 337.469 150.169 337.086 149.55C336.275 148.134 336.034 146.469 335.521 144.917C334.088 140.567 330.512 137.079 329.641 132.578C329.324 130.947 328.291 129.527 327.582 128.024C327.103 127.009 326.575 125.936 325.617 125.355C324.384 124.6 322.679 124.947 321.653 125.963C321.156 126.494 320.788 127.132 320.575 127.827C320.363 128.523 320.312 129.258 320.427 129.976ZM365.207 282.78C364.761 283.013 364.268 283.142 363.766 283.157C363.512 283.184 363.261 283.224 363.012 283.278C362.917 282.485 362.864 281.681 362.804 280.899C362.604 278.335 362.204 275.791 361.808 273.249C361.394 270.606 361.197 267.714 360.3 265.177C358.855 261.046 357.392 256.791 357.577 252.415C357.618 251.422 357.743 250.436 357.796 249.447C357.916 246.996 357.573 244.493 358.173 242.11C358.44 241.027 358.897 239.992 359.07 238.89C359.181 237.894 359.194 236.89 359.108 235.892C358.943 232.427 359.231 228.955 359.964 225.565C360.666 226.482 360.896 227.668 361.096 228.804L362.51 236.484C363.351 241.042 364.094 245.875 366.323 249.93C366.01 251.391 365.701 252.951 366.217 254.348C366.44 254.952 366.806 255.48 367.032 256.092C367.409 257.108 367.356 258.226 367.47 259.302C367.715 261.567 368.65 263.795 367.964 265.981C367.258 268.235 366.798 270.56 366.595 272.913C366.557 273.568 366.481 274.22 366.368 274.866C366.248 275.447 366.051 275.998 365.942 276.595C365.791 277.432 365.829 278.292 366.051 279.113C366.221 279.568 366.325 280.045 366.361 280.529C366.361 281.013 365.769 281.36 365.293 281.435C365.433 281.617 365.584 281.79 365.738 281.96C365.648 282.281 365.462 282.566 365.207 282.78Z" fill="url(#paint0_linear)"/>
<path d="M350.313 287.137C349.724 287.152 349.151 287.339 348.665 287.673C348.311 288.008 348.071 288.447 347.979 288.927C347.845 289.398 347.816 289.894 347.895 290.378C347.973 290.862 348.156 291.323 348.431 291.728C348.768 292.151 349.209 292.481 349.71 292.684C351.452 293.439 353.451 292.887 355.269 292.34L362.39 290.195C362.824 290.106 363.225 289.899 363.548 289.595C363.744 289.331 363.852 289.011 363.857 288.682C363.863 288.353 363.765 288.03 363.578 287.76C363.195 287.227 362.673 286.81 362.069 286.555C359.855 285.475 357.359 285.23 354.926 285.185C354.021 285.185 353.127 284.966 352.512 285.664C352.188 286.042 352.248 286.446 351.758 286.767C351.31 286.996 350.816 287.122 350.313 287.137Z" fill="#3F3D56"/>
<path d="M363.766 283.218C363.177 283.235 362.605 283.421 362.118 283.754C361.764 284.09 361.524 284.528 361.432 285.007C361.298 285.48 361.269 285.976 361.348 286.46C361.426 286.945 361.609 287.407 361.884 287.813C362.223 288.234 362.663 288.561 363.163 288.764C364.909 289.52 366.904 288.972 368.722 288.425L375.843 286.276C376.277 286.187 376.678 285.979 377.001 285.676C377.196 285.412 377.305 285.093 377.31 284.765C377.315 284.436 377.218 284.114 377.031 283.844C376.648 283.312 376.126 282.895 375.522 282.64C373.305 281.56 370.808 281.311 368.375 281.266C367.47 281.266 366.58 281.05 365.961 281.749C365.637 282.126 365.697 282.527 365.207 282.848C364.761 283.08 364.269 283.206 363.766 283.218Z" fill="#3F3D56"/>
<path d="M357.577 205.851C361.773 205.429 365.994 205.31 370.208 205.496C370.486 205.493 370.762 205.537 371.026 205.625C371.954 206.002 372.097 207.218 372.184 208.211C372.561 212.244 374.319 216 375.201 219.95C375.72 222.433 375.955 224.966 375.903 227.502C375.852 228.635 375.872 229.769 375.963 230.9C376.076 231.908 376.34 232.897 376.484 233.902C376.643 235.251 376.702 236.61 376.661 237.968C376.704 240.097 376.584 242.227 376.303 244.338C375.722 247.936 376.736 251.512 377.008 255.152C377.143 257.698 377.429 260.233 377.864 262.745C378.071 263.806 378.332 264.856 378.475 265.924C378.897 269.1 378.279 272.37 378.946 275.504C379.256 276.969 379.814 278.615 378.992 279.868C378.735 280.246 378.358 280.567 378.079 280.948C377.922 281.126 377.815 281.343 377.769 281.575C377.723 281.808 377.739 282.049 377.815 282.274C377.977 282.617 378.354 282.844 378.449 283.21C378.596 283.788 377.992 284.26 377.449 284.505C373.357 286.355 368.081 285.053 365.32 281.507C365.795 281.432 366.376 281.088 366.387 280.605C366.351 280.124 366.247 279.651 366.078 279.2C365.856 278.385 365.818 277.531 365.969 276.7C366.078 276.119 366.274 275.568 366.395 274.982C366.508 274.34 366.584 273.692 366.621 273.042C366.825 270.703 367.284 268.393 367.99 266.155C368.677 263.984 367.741 261.786 367.496 259.521C367.383 258.448 367.432 257.342 367.059 256.33C366.832 255.733 366.466 255.197 366.244 254.601C365.727 253.207 366.036 251.659 366.35 250.209C364.121 246.181 363.378 241.378 362.537 236.851L361.122 229.223C360.911 228.091 360.681 226.916 359.991 226.003C359.258 229.37 358.97 232.819 359.135 236.262C359.22 237.253 359.208 238.251 359.097 239.241C358.923 240.336 358.467 241.366 358.199 242.439C357.615 244.806 357.958 247.291 357.822 249.726C357.769 250.712 357.645 251.689 357.603 252.675C357.419 257.025 358.882 261.254 360.326 265.358C361.213 267.876 361.409 270.738 361.835 273.374C362.212 275.9 362.631 278.426 362.831 280.975C363.015 283.316 363.098 285.849 364.554 287.688C363.223 288.553 361.85 289.432 360.292 289.731C358.477 290.015 356.62 289.654 355.043 288.711C353.474 287.772 352.072 286.579 350.894 285.181C351.199 285.075 351.309 284.63 351.339 284.309C351.791 279.529 349.977 274.869 349.291 270.112C348.948 267.728 348.887 265.313 349.11 262.915C349.197 262.013 349.321 261.11 349.355 260.204C349.536 255.48 347.262 250.931 347.345 246.203C347.383 243.987 346.213 241.804 345.64 239.664C345.146 237.776 345.131 235.774 345.12 233.811L345.025 218.33C345.025 216.238 345.025 214.094 345.7 212.119C346.53 209.74 345.58 207.01 345.436 204.496C349.356 205.739 353.481 206.2 357.577 205.851Z" fill="#3A3A3A"/>
<path d="M344.132 161.372C342.547 158.128 340.611 155.067 338.358 152.246C337.887 151.695 337.459 151.109 337.076 150.494C336.265 149.086 336.023 147.432 335.511 145.891C334.077 141.572 330.502 138.102 329.631 133.635C329.314 132.012 328.281 130.614 327.571 129.104C327.092 128.096 326.564 127.031 325.606 126.461C324.373 125.706 322.668 126.053 321.643 127.065C321.149 127.592 320.783 128.225 320.572 128.915C320.362 129.606 320.312 130.336 320.428 131.049C320.499 131.706 320.761 132.329 321.183 132.838C321.729 133.454 322.548 133.733 323.283 134.103C325.184 135.068 326.638 136.73 327.341 138.744C328.597 142.387 328.76 146.246 330.359 149.765C331.958 153.284 333.836 156.66 335.216 160.258C336.001 162.301 336.627 164.412 337.777 166.3C338.928 168.187 340.723 169.77 342.891 170.053C342.877 168.684 343.084 167.322 343.506 166.02C343.978 164.533 344.815 162.781 344.132 161.372Z" fill="#A0616A"/>
<path d="M367.482 164.197C367.385 161.527 367.801 158.863 368.707 156.35C369.054 155.388 369.462 154.41 369.428 153.386C369.379 152.435 368.926 151.563 368.515 150.702C367.097 147.738 366.101 144.596 365.121 141.462L363.235 135.553C362.62 135.102 362.064 134.575 361.579 133.986C360.574 132.823 359.91 131.404 359.659 129.886C359.539 129.129 359.571 128.356 359.753 127.611C359.935 126.867 360.263 126.167 360.719 125.551C360.92 125.255 361.182 125.006 361.487 124.82C361.792 124.633 362.133 124.515 362.488 124.471C362.801 124.478 363.11 124.549 363.395 124.678C363.68 124.808 363.936 124.995 364.148 125.226C364.77 125.937 365.251 126.76 365.566 127.65C366.18 129.1 366.806 130.611 366.75 132.181C366.697 133.488 366.211 134.945 366.976 136.006C369.48 139.488 371.378 143.486 373.361 147.288C373.867 148.194 374.299 149.14 374.651 150.117C375.136 151.699 375.365 153.348 375.33 155.002C375.33 158.095 374.923 161.176 374.5 164.242C374.233 166.164 373.882 168.256 372.43 169.528C370.921 167.595 369.405 165.707 367.482 164.197Z" fill="#F5E200"/>
<path d="M357.886 165.669C362.209 165.669 365.712 162.161 365.712 157.834C365.712 153.507 362.209 150 357.886 150C353.564 150 350.061 153.507 350.061 157.834C350.061 162.161 353.564 165.669 357.886 165.669Z" fill="#A0616A"/>
<path d="M361.677 166.084C361.866 167.5 362.624 168.769 363.363 169.992C363.808 170.748 364.377 171.552 365.249 171.635C362.981 172.826 360.599 173.785 358.139 174.497C357.303 174.778 356.427 174.92 355.545 174.916C354.797 174.86 354.065 174.672 353.383 174.361C351.892 173.711 350.567 172.73 349.51 171.492C348.452 170.255 347.689 168.793 347.277 167.217C348.252 167.243 349.226 167.169 350.185 166.994C350.733 166.952 351.243 166.701 351.611 166.292C351.829 165.909 351.932 165.471 351.905 165.031C351.943 163.725 351.946 162.414 351.905 161.108C353.828 160.985 355.757 161.223 357.592 161.81C358.347 162.056 359.101 162.35 359.855 162.543C360.331 162.664 361.639 162.543 361.99 162.818C362.567 163.207 361.545 165.122 361.677 166.084Z" fill="#A0616A"/>
<path d="M358.238 170.846C358.324 169.813 358.732 168.834 359.405 168.048C360.078 167.261 360.981 166.706 361.987 166.462C362.794 166.281 363.669 166.303 364.389 165.903C365.626 165.212 366 163.528 367.188 162.754C368.376 161.98 370.061 162.411 371.095 163.388C372.128 164.366 372.653 165.76 373.075 167.123C373.706 168.966 374.048 170.895 374.089 172.843C374.105 173.199 374.049 173.555 373.924 173.889C373.7 174.279 373.417 174.632 373.086 174.935C372.644 175.432 372.314 176.019 372.118 176.656C371.923 177.292 371.867 177.964 371.955 178.624C372.062 179.867 371.948 181.12 371.619 182.324C370.865 185.654 370.111 188.981 369.503 192.341C369.361 192.96 369.314 193.597 369.364 194.229C369.481 195.139 369.982 196 369.873 196.91C369.766 197.334 369.687 197.764 369.635 198.198C369.66 198.526 369.736 198.848 369.862 199.153C370.718 201.641 373.03 207.343 373.007 209.978C368.99 208.947 363.069 208.717 358.92 208.698C357.779 208.686 356.639 208.737 355.503 208.849C352.777 209.144 349.986 209.94 347.342 209.204C344.887 208.521 342.714 206.561 340.176 206.806C339.625 205.364 340.274 200.55 340.791 199.092C342.805 193.354 343.197 187.169 341.922 181.222C341.458 179.085 342.096 176.815 341.579 174.693C341.484 174.191 341.292 173.713 341.013 173.285C340.873 173.072 340.681 172.899 340.455 172.781C340.23 172.663 339.978 172.604 339.723 172.609C339.676 169.196 339.992 165.787 340.666 162.441C340.915 161.251 341.421 159.847 342.639 159.643C343.717 159.458 344.623 160.372 345.49 161.04C346.379 161.729 347.41 162.214 348.507 162.46C348.949 162.512 349.373 162.667 349.744 162.913C350.261 163.343 350.336 164.117 350.759 164.642C351.513 165.582 353.199 165.503 353.735 166.587C353.852 166.909 353.946 167.24 354.017 167.576C354.271 168.22 354.703 168.778 355.262 169.184C356.102 169.975 357.124 170.546 358.238 170.846Z" fill="#FC4732"/>
<path d="M351.527 149.505C351.392 148.987 351.414 148.372 351.829 148.025C352.037 147.862 352.308 147.802 352.531 147.647C352.844 147.383 353.101 147.058 353.285 146.692C353.848 145.903 354.671 145.34 355.61 145.101C356.548 144.863 357.54 144.965 358.41 145.389C359.772 146.103 360.594 147.53 361.805 148.493C362.42 148.991 363.132 149.361 363.751 149.86C364.99 150.931 365.87 152.357 366.274 153.945C366.675 155.522 366.909 157.137 366.972 158.763C367.036 159.251 367.017 159.746 366.915 160.228C366.79 160.632 366.603 161.014 366.361 161.361C365.116 163.249 363.476 164.963 361.42 165.937C359.365 166.911 356.864 167.07 354.835 166.05C354.631 165.968 354.455 165.827 354.33 165.646C354.214 165.371 354.187 165.066 354.251 164.774C354.36 163.62 354.132 162.459 353.594 161.433C353.217 160.677 352.651 160.028 352.35 159.246C352.069 158.371 351.949 157.453 351.995 156.535C351.961 154.16 352.123 151.793 351.527 149.505Z" fill="#2D293D"/>
<defs>
<linearGradient id="paint0_linear" x1="379.421" y1="208.204" x2="320.378" y2="208.204" gradientUnits="userSpaceOnUse">
<stop stop-color="#808080" stop-opacity="0.25"/>
<stop offset="0.54" stop-color="#808080" stop-opacity="0.12"/>
<stop offset="1" stop-color="#808080" stop-opacity="0.1"/>
</linearGradient>
</defs>
</svg>
