<svg width="146" height="146" viewBox="0 0 146 146" fill="none" xmlns="http://www.w3.org/2000/svg">
<circle cx="73" cy="73" r="70" stroke="#00E425" stroke-width="6"/>
<path d="M49.0355 68.9645C47.0829 67.0118 43.9171 67.0118 41.9645 68.9645C40.0118 70.9171 40.0118 74.0829 41.9645 76.0355L49.0355 68.9645ZM63 90L66.7249 86.6646L66.633 86.5619L66.5355 86.4645L63 90ZM65 90L61.4645 86.4645L61.367 86.5619L61.2751 86.6646L65 90ZM106.036 56.0355C107.988 54.0829 107.988 50.9171 106.036 48.9645C104.083 47.0118 100.917 47.0118 98.9645 48.9645L106.036 56.0355ZM41.9645 76.0355L59.4645 93.5355L66.5355 86.4645L49.0355 68.9645L41.9645 76.0355ZM63 90C59.2751 93.3354 59.2761 93.3365 59.2771 93.3376C59.2774 93.338 59.2784 93.3391 59.2791 93.3399C59.2805 93.3414 59.2818 93.3429 59.2832 93.3445C59.286 93.3475 59.2888 93.3506 59.2916 93.3538C59.2973 93.3601 59.3032 93.3665 59.3092 93.3732C59.3214 93.3865 59.3343 93.4005 59.3479 93.4151C59.3752 93.4443 59.4056 93.4763 59.4391 93.5107C59.5058 93.5792 59.5866 93.659 59.6807 93.7462C59.8641 93.916 60.1231 94.1373 60.4512 94.364C61.0122 94.7515 62.2687 95.5 64 95.5V85.5C65.179 85.5 65.9355 85.9985 66.1346 86.136C66.2817 86.2377 66.3943 86.334 66.4764 86.4101C66.52 86.4504 66.5615 86.4911 66.6015 86.5322C66.6217 86.5529 66.642 86.5742 66.6624 86.5961C66.6726 86.6071 66.683 86.6183 66.6934 86.6297C66.6986 86.6354 66.7038 86.6411 66.709 86.6469C66.7117 86.6499 66.7143 86.6528 66.717 86.6557C66.7183 86.6572 66.7196 86.6587 66.7209 86.6601C66.7216 86.6609 66.7226 86.662 66.7229 86.6624C66.7239 86.6635 66.7249 86.6646 63 90ZM64 95.5C65.7313 95.5 66.9878 94.7515 67.5488 94.364C67.8769 94.1373 68.1359 93.916 68.3193 93.7462C68.4134 93.659 68.4942 93.5792 68.5609 93.5107C68.5944 93.4763 68.6248 93.4443 68.6521 93.4151C68.6657 93.4005 68.6786 93.3865 68.6908 93.3732C68.6968 93.3665 68.7027 93.3601 68.7084 93.3538C68.7112 93.3506 68.714 93.3475 68.7168 93.3445C68.7182 93.3429 68.7195 93.3414 68.7209 93.3399C68.7216 93.3391 68.7226 93.338 68.7229 93.3376C68.7239 93.3365 68.7249 93.3354 65 90C61.2751 86.6646 61.2761 86.6635 61.2771 86.6624C61.2774 86.662 61.2784 86.6609 61.2791 86.6601C61.2804 86.6587 61.2817 86.6572 61.283 86.6557C61.2857 86.6528 61.2883 86.6499 61.291 86.6469C61.2962 86.6411 61.3014 86.6354 61.3066 86.6297C61.317 86.6183 61.3274 86.6071 61.3376 86.5961C61.358 86.5742 61.3783 86.5529 61.3985 86.5322C61.4385 86.4911 61.48 86.4504 61.5236 86.4101C61.6057 86.334 61.7183 86.2377 61.8654 86.136C62.0645 85.9985 62.821 85.5 64 85.5V95.5ZM68.5355 93.5355L106.036 56.0355L98.9645 48.9645L61.4645 86.4645L68.5355 93.5355Z" fill="#00E425"/>
</svg>
