<svg width="74" height="40" viewBox="0 0 74 40" fill="none" xmlns="http://www.w3.org/2000/svg">
<path d="M18.7961 17.2549L29.2486 31.6666H8.34357L18.7961 17.2549Z" fill="#3C5DB2"/>
<path d="M18.7968 10.7844L21.0244 14.0197H16.5692L18.7968 10.7844Z" fill="#29399B"/>
<path d="M36.0104 6.66675L54.1737 31.6667H17.847L36.0104 6.66675Z" fill="#29399B" fill-opacity="0.8"/>
<mask id="mask0" mask-type="alpha" maskUnits="userSpaceOnUse" x="28" y="6" width="40" height="26">
<rect x="28.0957" y="6.66675" width="1.18717" height="1.17647" fill="#29399B"/>
<rect x="30.4707" y="6.66675" width="1.18717" height="1.17647" fill="#29399B"/>
<rect x="32.8438" y="6.66675" width="1.18717" height="1.17647" fill="#29399B"/>
<rect x="35.2188" y="6.66675" width="1.18717" height="1.17647" fill="#29399B"/>
<rect x="37.5938" y="6.66675" width="1.18717" height="1.17647" fill="#29399B"/>
<rect x="39.9668" y="6.66675" width="1.18717" height="1.17647" fill="#29399B"/>
<rect x="42.3418" y="6.66675" width="1.18717" height="1.17647" fill="#29399B"/>
<rect x="44.7168" y="6.66675" width="1.18717" height="1.17647" fill="#29399B"/>
<rect x="47.0898" y="6.66675" width="1.18717" height="1.17647" fill="#29399B"/>
<rect x="49.4648" y="6.66675" width="1.18717" height="1.17647" fill="#29399B"/>
<rect x="51.8398" y="6.66675" width="1.18717" height="1.17647" fill="#29399B"/>
<rect x="54.2129" y="6.66675" width="1.18717" height="1.17647" fill="#29399B"/>
<rect x="56.5879" y="6.66675" width="1.18717" height="1.17647" fill="#29399B"/>
<rect x="58.9629" y="6.66675" width="1.18717" height="1.17647" fill="#29399B"/>
<rect x="61.3359" y="6.66675" width="1.18717" height="1.17647" fill="#29399B"/>
<rect x="63.7109" y="6.66675" width="1.18717" height="1.17647" fill="#29399B"/>
<rect x="66.084" y="6.66675" width="1.18717" height="1.17647" fill="#29399B"/>
<rect x="28.0957" y="9.01978" width="1.18717" height="1.17647" fill="#29399B"/>
<rect x="30.4707" y="9.01953" width="1.18717" height="1.17647" fill="#29399B"/>
<rect x="32.8438" y="9.01953" width="1.18717" height="1.17647" fill="#29399B"/>
<rect x="35.2188" y="9.01953" width="1.18717" height="1.17647" fill="#29399B"/>
<rect x="37.5938" y="9.01953" width="1.18717" height="1.17647" fill="#29399B"/>
<rect x="39.9668" y="9.01953" width="1.18717" height="1.17647" fill="#29399B"/>
<rect x="42.3418" y="9.01953" width="1.18717" height="1.17647" fill="#29399B"/>
<rect x="44.7168" y="9.01953" width="1.18717" height="1.17647" fill="#29399B"/>
<rect x="47.0898" y="9.01953" width="1.18717" height="1.17647" fill="#29399B"/>
<rect x="49.4648" y="9.01953" width="1.18717" height="1.17647" fill="#29399B"/>
<rect x="51.8398" y="9.01953" width="1.18717" height="1.17647" fill="#29399B"/>
<rect x="54.2129" y="9.01953" width="1.18717" height="1.17647" fill="#29399B"/>
<rect x="56.5879" y="9.01953" width="1.18717" height="1.17647" fill="#29399B"/>
<rect x="58.9629" y="9.01953" width="1.18717" height="1.17647" fill="#29399B"/>
<rect x="61.3359" y="9.01953" width="1.18717" height="1.17647" fill="#29399B"/>
<rect x="63.7109" y="9.01953" width="1.18717" height="1.17647" fill="#29399B"/>
<rect x="66.084" y="9.01953" width="1.18717" height="1.17647" fill="#29399B"/>
<rect x="28.0957" y="11.3726" width="1.18717" height="1.17647" fill="#29399B"/>
<rect x="30.4707" y="11.3726" width="1.18717" height="1.17647" fill="#29399B"/>
<rect x="32.8438" y="11.3726" width="1.18717" height="1.17647" fill="#29399B"/>
<rect x="35.2188" y="11.3726" width="1.18717" height="1.17647" fill="#29399B"/>
<rect x="37.5938" y="11.3726" width="1.18717" height="1.17647" fill="#29399B"/>
<rect x="39.9668" y="11.3726" width="1.18717" height="1.17647" fill="#29399B"/>
<rect x="42.3418" y="11.3726" width="1.18717" height="1.17647" fill="#29399B"/>
<rect x="44.7168" y="11.3726" width="1.18717" height="1.17647" fill="#29399B"/>
<rect x="47.0898" y="11.3726" width="1.18717" height="1.17647" fill="#29399B"/>
<rect x="49.4648" y="11.3726" width="1.18717" height="1.17647" fill="#29399B"/>
<rect x="51.8398" y="11.3726" width="1.18717" height="1.17647" fill="#29399B"/>
<rect x="54.2129" y="11.3726" width="1.18717" height="1.17647" fill="#29399B"/>
<rect x="56.5879" y="11.3726" width="1.18717" height="1.17647" fill="#29399B"/>
<rect x="58.9629" y="11.3726" width="1.18717" height="1.17647" fill="#29399B"/>
<rect x="61.3359" y="11.3726" width="1.18717" height="1.17647" fill="#29399B"/>
<rect x="63.7109" y="11.3726" width="1.18717" height="1.17647" fill="#29399B"/>
<rect x="66.084" y="11.3726" width="1.18717" height="1.17647" fill="#29399B"/>
<rect x="28.0957" y="13.7256" width="1.18717" height="1.17647" fill="#29399B"/>
<rect x="30.4707" y="13.7256" width="1.18717" height="1.17647" fill="#29399B"/>
<rect x="32.8438" y="13.7256" width="1.18717" height="1.17647" fill="#29399B"/>
<rect x="35.2188" y="13.7256" width="1.18717" height="1.17647" fill="#29399B"/>
<rect x="37.5938" y="13.7256" width="1.18717" height="1.17647" fill="#29399B"/>
<rect x="39.9668" y="13.7256" width="1.18717" height="1.17647" fill="#29399B"/>
<rect x="42.3418" y="13.7256" width="1.18717" height="1.17647" fill="#29399B"/>
<rect x="44.7168" y="13.7256" width="1.18717" height="1.17647" fill="#29399B"/>
<rect x="47.0898" y="13.7256" width="1.18717" height="1.17647" fill="#29399B"/>
<rect x="49.4648" y="13.7256" width="1.18717" height="1.17647" fill="#29399B"/>
<rect x="51.8398" y="13.7256" width="1.18717" height="1.17647" fill="#29399B"/>
<rect x="54.2129" y="13.7256" width="1.18717" height="1.17647" fill="#29399B"/>
<rect x="56.5879" y="13.7256" width="1.18717" height="1.17647" fill="#29399B"/>
<rect x="58.9629" y="13.7256" width="1.18717" height="1.17647" fill="#29399B"/>
<rect x="61.3359" y="13.7256" width="1.18717" height="1.17647" fill="#29399B"/>
<rect x="63.7109" y="13.7256" width="1.18717" height="1.17647" fill="#29399B"/>
<rect x="66.084" y="13.7256" width="1.18717" height="1.17647" fill="#29399B"/>
<rect x="28.0957" y="16.0784" width="1.18717" height="1.17647" fill="#29399B"/>
<rect x="30.4707" y="16.0786" width="1.18717" height="1.17647" fill="#29399B"/>
<rect x="32.8438" y="16.0786" width="1.18717" height="1.17647" fill="#29399B"/>
<rect x="35.2188" y="16.0786" width="1.18717" height="1.17647" fill="#29399B"/>
<rect x="37.5938" y="16.0786" width="1.18717" height="1.17647" fill="#29399B"/>
<rect x="39.9668" y="16.0786" width="1.18717" height="1.17647" fill="#29399B"/>
<rect x="42.3418" y="16.0786" width="1.18717" height="1.17647" fill="#29399B"/>
<rect x="44.7168" y="16.0786" width="1.18717" height="1.17647" fill="#29399B"/>
<rect x="47.0898" y="16.0786" width="1.18717" height="1.17647" fill="#29399B"/>
<rect x="49.4648" y="16.0786" width="1.18717" height="1.17647" fill="#29399B"/>
<rect x="51.8398" y="16.0786" width="1.18717" height="1.17647" fill="#29399B"/>
<rect x="54.2129" y="16.0786" width="1.18717" height="1.17647" fill="#29399B"/>
<rect x="56.5879" y="16.0786" width="1.18717" height="1.17647" fill="#29399B"/>
<rect x="58.9629" y="16.0786" width="1.18717" height="1.17647" fill="#29399B"/>
<rect x="61.3359" y="16.0786" width="1.18717" height="1.17647" fill="#29399B"/>
<rect x="63.7109" y="16.0786" width="1.18717" height="1.17647" fill="#29399B"/>
<rect x="66.084" y="16.0786" width="1.18717" height="1.17647" fill="#29399B"/>
<rect x="28.0957" y="18.4314" width="1.18717" height="1.17647" fill="#29399B"/>
<rect x="30.4707" y="18.4314" width="1.18717" height="1.17647" fill="#29399B"/>
<rect x="32.8438" y="18.4314" width="1.18717" height="1.17647" fill="#29399B"/>
<rect x="35.2188" y="18.4314" width="1.18717" height="1.17647" fill="#29399B"/>
<rect x="37.5938" y="18.4314" width="1.18717" height="1.17647" fill="#29399B"/>
<rect x="39.9668" y="18.4314" width="1.18717" height="1.17647" fill="#29399B"/>
<rect x="42.3418" y="18.4314" width="1.18717" height="1.17647" fill="#29399B"/>
<rect x="44.7168" y="18.4314" width="1.18717" height="1.17647" fill="#29399B"/>
<rect x="47.0898" y="18.4314" width="1.18717" height="1.17647" fill="#29399B"/>
<rect x="49.4648" y="18.4314" width="1.18717" height="1.17647" fill="#29399B"/>
<rect x="51.8398" y="18.4314" width="1.18717" height="1.17647" fill="#29399B"/>
<rect x="54.2129" y="18.4314" width="1.18717" height="1.17647" fill="#29399B"/>
<rect x="56.5879" y="18.4314" width="1.18717" height="1.17647" fill="#29399B"/>
<rect x="58.9629" y="18.4314" width="1.18717" height="1.17647" fill="#29399B"/>
<rect x="61.3359" y="18.4314" width="1.18717" height="1.17647" fill="#29399B"/>
<rect x="63.7109" y="18.4314" width="1.18717" height="1.17647" fill="#29399B"/>
<rect x="66.084" y="18.4314" width="1.18717" height="1.17647" fill="#29399B"/>
<rect x="28.0957" y="20.7844" width="1.18717" height="1.17647" fill="#29399B"/>
<rect x="30.4707" y="20.7844" width="1.18717" height="1.17647" fill="#29399B"/>
<rect x="32.8438" y="20.7844" width="1.18717" height="1.17647" fill="#29399B"/>
<rect x="35.2188" y="20.7844" width="1.18717" height="1.17647" fill="#29399B"/>
<rect x="37.5938" y="20.7844" width="1.18717" height="1.17647" fill="#29399B"/>
<rect x="39.9668" y="20.7844" width="1.18717" height="1.17647" fill="#29399B"/>
<rect x="42.3418" y="20.7844" width="1.18717" height="1.17647" fill="#29399B"/>
<rect x="44.7168" y="20.7844" width="1.18717" height="1.17647" fill="#29399B"/>
<rect x="47.0898" y="20.7844" width="1.18717" height="1.17647" fill="#29399B"/>
<rect x="49.4648" y="20.7844" width="1.18717" height="1.17647" fill="#29399B"/>
<rect x="51.8398" y="20.7844" width="1.18717" height="1.17647" fill="#29399B"/>
<rect x="54.2129" y="20.7844" width="1.18717" height="1.17647" fill="#29399B"/>
<rect x="56.5879" y="20.7844" width="1.18717" height="1.17647" fill="#29399B"/>
<rect x="58.9629" y="20.7844" width="1.18717" height="1.17647" fill="#29399B"/>
<rect x="61.3359" y="20.7844" width="1.18717" height="1.17647" fill="#29399B"/>
<rect x="63.7109" y="20.7844" width="1.18717" height="1.17647" fill="#29399B"/>
<rect x="66.084" y="20.7844" width="1.18717" height="1.17647" fill="#29399B"/>
<rect x="28.0957" y="23.1372" width="1.18717" height="1.17647" fill="#29399B"/>
<rect x="30.4707" y="23.1372" width="1.18717" height="1.17647" fill="#29399B"/>
<rect x="32.8438" y="23.1372" width="1.18717" height="1.17647" fill="#29399B"/>
<rect x="35.2188" y="23.1372" width="1.18717" height="1.17647" fill="#29399B"/>
<rect x="37.5938" y="23.1372" width="1.18717" height="1.17647" fill="#29399B"/>
<rect x="39.9668" y="23.1372" width="1.18717" height="1.17647" fill="#29399B"/>
<rect x="42.3418" y="23.1372" width="1.18717" height="1.17647" fill="#29399B"/>
<rect x="44.7168" y="23.1372" width="1.18717" height="1.17647" fill="#29399B"/>
<rect x="47.0898" y="23.1372" width="1.18717" height="1.17647" fill="#29399B"/>
<rect x="49.4648" y="23.1372" width="1.18717" height="1.17647" fill="#29399B"/>
<rect x="51.8398" y="23.1372" width="1.18717" height="1.17647" fill="#29399B"/>
<rect x="54.2129" y="23.1372" width="1.18717" height="1.17647" fill="#29399B"/>
<rect x="56.5879" y="23.1372" width="1.18717" height="1.17647" fill="#29399B"/>
<rect x="58.9629" y="23.1372" width="1.18717" height="1.17647" fill="#29399B"/>
<rect x="61.3359" y="23.1372" width="1.18717" height="1.17647" fill="#29399B"/>
<rect x="63.7109" y="23.1372" width="1.18717" height="1.17647" fill="#29399B"/>
<rect x="66.084" y="23.1372" width="1.18717" height="1.17647" fill="#29399B"/>
<rect x="28.0957" y="25.4902" width="1.18717" height="1.17647" fill="#29399B"/>
<rect x="30.4707" y="25.4902" width="1.18717" height="1.17647" fill="#29399B"/>
<rect x="32.8438" y="25.4902" width="1.18717" height="1.17647" fill="#29399B"/>
<rect x="35.2188" y="25.4902" width="1.18717" height="1.17647" fill="#29399B"/>
<rect x="37.5938" y="25.4902" width="1.18717" height="1.17647" fill="#29399B"/>
<rect x="39.9668" y="25.4902" width="1.18717" height="1.17647" fill="#29399B"/>
<rect x="42.3418" y="25.4902" width="1.18717" height="1.17647" fill="#29399B"/>
<rect x="44.7168" y="25.4902" width="1.18717" height="1.17647" fill="#29399B"/>
<rect x="47.0898" y="25.4902" width="1.18717" height="1.17647" fill="#29399B"/>
<rect x="49.4648" y="25.4902" width="1.18717" height="1.17647" fill="#29399B"/>
<rect x="51.8398" y="25.4902" width="1.18717" height="1.17647" fill="#29399B"/>
<rect x="54.2129" y="25.4902" width="1.18717" height="1.17647" fill="#29399B"/>
<rect x="56.5879" y="25.4902" width="1.18717" height="1.17647" fill="#29399B"/>
<rect x="58.9629" y="25.4902" width="1.18717" height="1.17647" fill="#29399B"/>
<rect x="61.3359" y="25.4902" width="1.18717" height="1.17647" fill="#29399B"/>
<rect x="63.7109" y="25.4902" width="1.18717" height="1.17647" fill="#29399B"/>
<rect x="66.084" y="25.4902" width="1.18717" height="1.17647" fill="#29399B"/>
<rect x="28.0957" y="27.8433" width="1.18717" height="1.17647" fill="#29399B"/>
<rect x="30.4707" y="27.8433" width="1.18717" height="1.17647" fill="#29399B"/>
<rect x="32.8438" y="27.8433" width="1.18717" height="1.17647" fill="#29399B"/>
<rect x="35.2188" y="27.8433" width="1.18717" height="1.17647" fill="#29399B"/>
<rect x="37.5938" y="27.8433" width="1.18717" height="1.17647" fill="#29399B"/>
<rect x="39.9668" y="27.8433" width="1.18717" height="1.17647" fill="#29399B"/>
<rect x="42.3418" y="27.8433" width="1.18717" height="1.17647" fill="#29399B"/>
<rect x="44.7168" y="27.8433" width="1.18717" height="1.17647" fill="#29399B"/>
<rect x="47.0898" y="27.8433" width="1.18717" height="1.17647" fill="#29399B"/>
<rect x="49.4648" y="27.8433" width="1.18717" height="1.17647" fill="#29399B"/>
<rect x="51.8398" y="27.8433" width="1.18717" height="1.17647" fill="#29399B"/>
<rect x="54.2129" y="27.8433" width="1.18717" height="1.17647" fill="#29399B"/>
<rect x="56.5879" y="27.8433" width="1.18717" height="1.17647" fill="#29399B"/>
<rect x="58.9629" y="27.8433" width="1.18717" height="1.17647" fill="#29399B"/>
<rect x="61.3359" y="27.8433" width="1.18717" height="1.17647" fill="#29399B"/>
<rect x="63.7109" y="27.8433" width="1.18717" height="1.17647" fill="#29399B"/>
<rect x="66.084" y="27.8433" width="1.18717" height="1.17647" fill="#29399B"/>
<rect x="28.0957" y="30.196" width="1.18717" height="1.17647" fill="#29399B"/>
<rect x="30.4707" y="30.1963" width="1.18717" height="1.17647" fill="#29399B"/>
<rect x="32.8438" y="30.1963" width="1.18717" height="1.17647" fill="#29399B"/>
<rect x="35.2188" y="30.1963" width="1.18717" height="1.17647" fill="#29399B"/>
<rect x="37.5938" y="30.1963" width="1.18717" height="1.17647" fill="#29399B"/>
<rect x="39.9668" y="30.1963" width="1.18717" height="1.17647" fill="#29399B"/>
<rect x="42.3418" y="30.1963" width="1.18717" height="1.17647" fill="#29399B"/>
<rect x="44.7168" y="30.1963" width="1.18717" height="1.17647" fill="#29399B"/>
<rect x="47.0898" y="30.1963" width="1.18717" height="1.17647" fill="#29399B"/>
<rect x="49.4648" y="30.1963" width="1.18717" height="1.17647" fill="#29399B"/>
<rect x="51.8398" y="30.1963" width="1.18717" height="1.17647" fill="#29399B"/>
<rect x="54.2129" y="30.1963" width="1.18717" height="1.17647" fill="#29399B"/>
<rect x="56.5879" y="30.1963" width="1.18717" height="1.17647" fill="#29399B"/>
<rect x="58.9629" y="30.1963" width="1.18717" height="1.17647" fill="#29399B"/>
<rect x="61.3359" y="30.1963" width="1.18717" height="1.17647" fill="#29399B"/>
<rect x="63.7109" y="30.1963" width="1.18717" height="1.17647" fill="#29399B"/>
<rect x="66.084" y="30.1963" width="1.18717" height="1.17647" fill="#29399B"/>
</mask>
<g mask="url(#mask0)">
<path d="M47.485 6.4707L65.6483 31.4707H29.3216L47.485 6.4707Z" fill="#29399B"/>
</g>
</svg>
