<svg width="176" height="19" viewBox="0 0 176 19" fill="none" xmlns="http://www.w3.org/2000/svg">
<path d="M0.184 0.36H2.872V18H0.184V0.36ZM6.75869 6.984H9.30269L9.32669 9C9.63069 8.328 10.1107 7.776 10.7667 7.344C11.4227 6.912 12.1907 6.696 13.0707 6.696C14.2067 6.696 15.0787 6.936 15.6867 7.416C16.2947 7.88 16.7027 8.536 16.9107 9.384C17.1187 10.232 17.2227 11.336 17.2227 12.696V18H14.6307V12.768C14.6307 11.376 14.4947 10.376 14.2227 9.768C13.9507 9.144 13.3907 8.832 12.5427 8.832C12.0627 8.832 11.5747 8.984 11.0787 9.288C10.5827 9.576 10.1667 10 9.83069 10.56C9.51069 11.12 9.35069 11.776 9.35069 12.528V18H6.75869V6.984ZM21.5954 9.048H19.8194V6.984H21.5954V4.608C21.5954 3.168 21.9394 2.056 22.6274 1.272C23.3314 0.471999 24.3554 0.0719991 25.6994 0.0719991C26.2434 0.0719991 26.8594 0.223999 27.5474 0.527999L27.0434 2.976C26.9314 2.848 26.7554 2.728 26.5154 2.616C26.2914 2.488 26.0434 2.424 25.7714 2.424C24.6994 2.424 24.1554 3.12 24.1394 4.512V6.984H26.7314V9.048H24.1394V18H21.5954V9.048ZM34.3947 18.24C33.2587 18.24 32.2507 17.984 31.3707 17.472C30.4907 16.96 29.8107 16.264 29.3307 15.384C28.8507 14.504 28.6107 13.528 28.6107 12.456C28.6107 11.4 28.8427 10.432 29.3067 9.552C29.7867 8.672 30.4667 7.976 31.3467 7.464C32.2267 6.952 33.2427 6.696 34.3947 6.696C35.5467 6.696 36.5547 6.952 37.4187 7.464C38.2987 7.976 38.9707 8.672 39.4347 9.552C39.9147 10.432 40.1547 11.4 40.1547 12.456C40.1547 13.528 39.9147 14.504 39.4347 15.384C38.9547 16.264 38.2747 16.96 37.3947 17.472C36.5307 17.984 35.5307 18.24 34.3947 18.24ZM34.4667 16.128C35.3947 16.128 36.1227 15.784 36.6507 15.096C37.1947 14.408 37.4667 13.544 37.4667 12.504C37.4667 11.464 37.1787 10.592 36.6027 9.888C36.0267 9.168 35.2667 8.808 34.3227 8.808C33.4107 8.808 32.6747 9.16 32.1147 9.864C31.5707 10.568 31.2987 11.448 31.2987 12.504C31.2987 13.528 31.5947 14.392 32.1867 15.096C32.7787 15.784 33.5387 16.128 34.4667 16.128ZM43.8828 9.096H41.9388V6.984H43.8828V2.496L46.4988 1.92V6.984H49.0428V9.096H46.4988V18H43.8828V9.096ZM56.0213 18.24C55.0293 18.24 54.1093 18.008 53.2613 17.544C52.4293 17.064 51.7573 16.392 51.2453 15.528C50.7493 14.648 50.5013 13.624 50.5013 12.456C50.5013 11.304 50.7173 10.296 51.1493 9.432C51.5973 8.568 52.2293 7.896 53.0453 7.416C53.8613 6.936 54.8213 6.696 55.9253 6.696C56.5653 6.696 57.1653 6.808 57.7253 7.032C58.2853 7.256 58.7573 7.536 59.1413 7.872C59.5253 8.192 59.7813 8.512 59.9093 8.832L59.9573 6.984H62.4293V18H59.9813L59.9333 16.056C59.6613 16.632 59.1653 17.144 58.4453 17.592C57.7253 18.024 56.9173 18.24 56.0213 18.24ZM56.4533 16.08C57.3653 16.08 58.1333 15.768 58.7573 15.144C59.3813 14.504 59.6933 13.672 59.6933 12.648V12.48C59.6933 11.792 59.5493 11.176 59.2613 10.632C58.9733 10.088 58.5813 9.664 58.0853 9.36C57.5893 9.056 57.0453 8.904 56.4533 8.904C55.4293 8.904 54.6373 9.24 54.0773 9.912C53.5173 10.568 53.2373 11.424 53.2373 12.48C53.2373 13.552 53.5093 14.424 54.0533 15.096C54.6133 15.752 55.4133 16.08 56.4533 16.08ZM65.9149 6.984H68.4589L68.4829 9C68.7869 8.328 69.2669 7.776 69.9229 7.344C70.5789 6.912 71.3469 6.696 72.2269 6.696C73.3629 6.696 74.2349 6.936 74.8429 7.416C75.4509 7.88 75.8589 8.536 76.0669 9.384C76.2749 10.232 76.3789 11.336 76.3789 12.696V18H73.7869V12.768C73.7869 11.376 73.6509 10.376 73.3789 9.768C73.1069 9.144 72.5469 8.832 71.6989 8.832C71.2189 8.832 70.7309 8.984 70.2349 9.288C69.7389 9.576 69.3229 10 68.9869 10.56C68.6669 11.12 68.5069 11.776 68.5069 12.528V18H65.9149V6.984ZM89.6796 18H86.6316L84.3996 14.4L83.7756 13.176L82.3356 14.736V18H79.8396V0.36H82.3116V10.032L82.2636 11.904L86.4636 6.984H89.6556L85.5036 11.592L89.6796 18ZM95.5351 18.24C94.7671 18.24 93.9671 18.144 93.1351 17.952C92.3191 17.744 91.7351 17.504 91.3831 17.232L92.2471 15.192C93.2071 15.864 94.3031 16.2 95.5351 16.2C96.7671 16.2 97.3831 15.84 97.3831 15.12C97.3831 14.8 97.2551 14.552 96.9991 14.376C96.7431 14.2 96.2871 13.992 95.6311 13.752L94.7191 13.416C93.7591 13.032 92.9991 12.576 92.4391 12.048C91.8791 11.504 91.5991 10.792 91.5991 9.912C91.5991 8.904 91.9911 8.12 92.7751 7.56C93.5751 6.984 94.6391 6.696 95.9671 6.696C96.6231 6.696 97.2631 6.768 97.8871 6.912C98.5271 7.056 99.0151 7.24 99.3511 7.464L98.4151 9.528C98.2071 9.32 97.8711 9.144 97.4071 9C96.9591 8.84 96.4551 8.76 95.8951 8.76C94.7591 8.76 94.1911 9.104 94.1911 9.792C94.1911 10.176 94.3431 10.472 94.6471 10.68C94.9511 10.872 95.4471 11.088 96.1351 11.328C96.1991 11.344 96.4471 11.432 96.8791 11.592C97.9031 11.992 98.6631 12.448 99.1591 12.96C99.6551 13.472 99.9031 14.128 99.9031 14.928C99.9031 16.016 99.4871 16.84 98.6551 17.4C97.8391 17.96 96.7991 18.24 95.5351 18.24ZM113.181 9.768L112.077 7.272L111.573 9.768L109.941 18H107.277L110.925 0.36H111.213L116.061 9.888L117.501 13.08L118.941 9.888L123.693 0.36H123.957L127.749 18H125.109L123.333 9.768L122.805 7.272L121.845 9.768L117.573 18H117.429L113.181 9.768ZM135.154 18.24C133.842 18.24 132.746 17.984 131.866 17.472C130.986 16.944 130.338 16.248 129.922 15.384C129.506 14.504 129.298 13.544 129.298 12.504C129.298 11.336 129.538 10.312 130.018 9.432C130.514 8.552 131.194 7.88 132.058 7.416C132.922 6.936 133.898 6.696 134.986 6.696C136.682 6.696 137.938 7.168 138.754 8.112C139.586 9.04 140.002 10.352 140.002 12.048C140.002 12.48 139.978 12.928 139.93 13.392H132.01C132.186 14.368 132.53 15.072 133.042 15.504C133.57 15.936 134.298 16.152 135.226 16.152C135.994 16.152 136.626 16.088 137.122 15.96C137.618 15.832 138.074 15.656 138.49 15.432L139.282 17.28C138.882 17.536 138.338 17.76 137.65 17.952C136.962 18.144 136.13 18.24 135.154 18.24ZM137.482 11.592C137.498 10.6 137.282 9.904 136.834 9.504C136.386 9.088 135.746 8.88 134.914 8.88C133.234 8.88 132.266 9.784 132.01 11.592H137.482ZM147.592 18.24C146.6 18.24 145.68 18.008 144.832 17.544C144 17.064 143.328 16.392 142.816 15.528C142.32 14.648 142.072 13.624 142.072 12.456C142.072 10.712 142.56 9.32 143.536 8.28C144.512 7.224 145.832 6.696 147.496 6.696C148.424 6.696 149.272 6.928 150.04 7.392C150.808 7.84 151.328 8.384 151.6 9.024L151.48 7.152V0.36H154.024V18H151.552L151.504 16.056C151.232 16.632 150.736 17.144 150.016 17.592C149.296 18.024 148.488 18.24 147.592 18.24ZM148.024 16.056C148.936 16.056 149.704 15.744 150.328 15.12C150.952 14.48 151.264 13.648 151.264 12.624V12.456C151.264 11.768 151.12 11.152 150.832 10.608C150.544 10.064 150.152 9.64 149.656 9.336C149.16 9.032 148.616 8.88 148.024 8.88C147 8.88 146.208 9.216 145.648 9.888C145.088 10.544 144.808 11.4 144.808 12.456C144.808 13.528 145.08 14.4 145.624 15.072C146.184 15.728 146.984 16.056 148.024 16.056ZM157.654 6.984H160.342V18H157.654V6.984ZM158.974 4.92C158.478 4.92 158.062 4.752 157.726 4.416C157.39 4.08 157.222 3.664 157.222 3.168C157.222 2.72 157.39 2.336 157.726 2.016C158.062 1.696 158.478 1.536 158.974 1.536C159.454 1.536 159.862 1.696 160.198 2.016C160.534 2.336 160.702 2.72 160.702 3.168C160.702 3.664 160.534 4.08 160.198 4.416C159.878 4.752 159.47 4.92 158.974 4.92ZM168.803 18.24C167.811 18.24 166.891 18.008 166.043 17.544C165.211 17.064 164.539 16.392 164.027 15.528C163.531 14.648 163.283 13.624 163.283 12.456C163.283 11.304 163.499 10.296 163.931 9.432C164.379 8.568 165.011 7.896 165.827 7.416C166.643 6.936 167.603 6.696 168.707 6.696C169.347 6.696 169.947 6.808 170.507 7.032C171.067 7.256 171.539 7.536 171.923 7.872C172.307 8.192 172.563 8.512 172.691 8.832L172.739 6.984H175.211V18H172.763L172.715 16.056C172.443 16.632 171.947 17.144 171.227 17.592C170.507 18.024 169.699 18.24 168.803 18.24ZM169.235 16.08C170.147 16.08 170.915 15.768 171.539 15.144C172.163 14.504 172.475 13.672 172.475 12.648V12.48C172.475 11.792 172.331 11.176 172.043 10.632C171.755 10.088 171.363 9.664 170.867 9.36C170.371 9.056 169.827 8.904 169.235 8.904C168.211 8.904 167.419 9.24 166.859 9.912C166.299 10.568 166.019 11.424 166.019 12.48C166.019 13.552 166.291 14.424 166.835 15.096C167.395 15.752 168.195 16.08 169.235 16.08Z" fill="#3A3A3A"/>
</svg>
